OutlineCutoutDetail-Light.ufo
<glyph name="exclamation" format="2">
  <advance width="363.47836047619046"/>
  <unicode hex="0021"/>
  <outline>
    <contour>
      <point x="212.6917864392671" y="227.078857421875" type="line"/>
      <point x="232.28791681036085" y="865" type="line"/>
      <point x="131.1904436658296" y="865" type="line"/>
      <point x="150.78657403692335" y="227.078857421875" type="line"/>
    </contour>
    <contour>
      <point x="258.07886047619047" y="61.33968023809524" type="curve" smooth="yes"/>
      <point x="258.07886047619047" y="103.47269638349718"/>
      <point x="223.87219638349717" y="137.67936047619048"/>
      <point x="181.73918023809523" y="137.67936047619048" type="curve" smooth="yes"/>
      <point x="139.6061640926933" y="137.67936047619048"/>
      <point x="105.39949999999999" y="103.47269638349718"/>
      <point x="105.39949999999999" y="61.33968023809525" type="curve" smooth="yes"/>
      <point x="105.39949999999999" y="19.20666409269331"/>
      <point x="139.6061640926933" y="-15.0"/>
      <point x="181.73918023809523" y="-15.0" type="curve" smooth="yes"/>
      <point x="223.87219638349717" y="-15.000000000000014"/>
      <point x="258.07886047619047" y="19.206664092693288"/>
    </contour>
  </outline>
</glyph>
<glyph name="quote_dbl" format="2">
  <advance width="447.95485327148435"/>
  <unicode hex="0022"/>
  <outline>
    <contour>
      <point x="171.6054097290039" y="586.4743728637695" type="line"/>
      <point x="183.9633427734375" y="850" type="line"/>
      <point x="98.39949999999999" y="850" type="line"/>
      <point x="110.75743304443358" y="586.4743728637695" type="line"/>
    </contour>
    <contour>
      <point x="339.19742022705077" y="586.4743728637695" type="line"/>
      <point x="351.55535327148436" y="850" type="line"/>
      <point x="265.9915181274414" y="850" type="line"/>
      <point x="278.349451171875" y="586.4743728637695" type="line"/>
    </contour>
  </outline>
</glyph>
<glyph name="numbersign" format="2">
  <advance width="739.4304697265625"/>
  <unicode hex="0023"/>
  <outline>
    <contour>
      <point x="487.3303395385742" y="233.89965057373047" type="line"/>
      <point x="640.5436116333008" y="233.89965057373047" type="line"/>
      <point x="640.5436116333008" y="307.0871810913086" type="line"/>
      <point x="500.23527728271483" y="307.0871810913086" type="line"/>
      <point x="541.8176976318359" y="542.9128189086914" type="line"/>
      <point x="695.0309697265625" y="542.9128189086914" type="line"/>
      <point x="695.0309697265625" y="616.1003494262695" type="line"/>
      <point x="554.7226353759766" y="616.1003494262695" type="line"/>
      <point x="595.9654484863281" y="850" type="line"/>
      <point x="517.7374898071289" y="850" type="line"/>
      <point x="476.4946690673828" y="616.1003494262695" type="line"/>
      <point x="330.328096496582" y="616.1003494262695" type="line"/>
      <point x="371.5709096069336" y="850" type="line"/>
      <point x="293.34295092773436" y="850" type="line"/>
      <point x="252.10013018798827" y="616.1003494262695" type="line"/>
      <point x="98.88685809326171" y="616.1003494262695" type="line"/>
      <point x="98.88685809326171" y="542.9128189086914" type="line"/>
      <point x="239.19519244384765" y="542.9128189086914" type="line"/>
      <point x="197.61277209472655" y="307.0871810913086" type="line"/>
      <point x="44.39949999999999" y="307.0871810913086" type="line"/>
      <point x="44.39949999999999" y="233.89965057373047" type="line"/>
      <point x="184.70783435058593" y="233.89965057373047" type="line"/>
      <point x="143.46502124023436" y="0" type="line"/>
      <point x="221.69297991943358" y="0" type="line"/>
      <point x="262.9358006591797" y="233.89965057373047" type="line"/>
      <point x="409.10237322998046" y="233.89965057373047" type="line"/>
      <point x="367.8595601196289" y="0" type="line"/>
      <point x="446.0875187988281" y="0" type="line"/>
    </contour>
    <contour>
      <point x="275.8407384033203" y="307.0871810913086" type="line"/>
      <point x="317.4231587524414" y="542.9128189086914" type="line"/>
      <point x="463.5897313232422" y="542.9128189086914" type="line"/>
      <point x="422.0073109741211" y="307.0871810913086" type="line"/>
    </contour>
  </outline>
</glyph>
<glyph name="dollar" format="2">
  <advance width="596.4899226190475"/>
  <unicode hex="0024"/>
  <outline>
    <contour>
      <point x="252.13652239990233" y="-100" type="line"/>
      <point x="330.1390248413086" y="-100" type="line"/>
      <point x="330.1390248413086" y="18.904830932617188" type="line"/>
      <point x="457.17033350330644" y="38.06414055127996"/>
      <point x="553.0904226190476" y="126.0723749059521"/>
      <point x="553.0904226190476" y="242.0114375" type="curve"/>
      <point x="553.0904226190478" y="380.7713729956555"/>
      <point x="430.66657947866565" y="429.96048793372216"/>
      <point x="354.4068126175939" y="458.41393022698117" type="curve"/>
      <point x="263.3444540755213" y="492.39039869147587" type="line"/>
      <point x="183.0818086570972" y="522.3373634373545"/>
      <point x="121.4519375" y="553.0940132772433"/>
      <point x="121.4519375" y="622.6816249999999" type="curve"/>
      <point x="121.4519375" y="702.1233268309463"/>
      <point x="203.41917616874747" y="759.897625"/>
      <point x="304.6737113095238" y="759.897625" type="curve"/>
      <point x="391.75987592944915" y="759.8976266160226"/>
      <point x="469.3091192685358" y="733.1811522034006"/>
      <point x="519.6616688842773" y="688.7006454467773" type="curve"/>
      <point x="519.6616688842773" y="775.4485855102539" type="line"/>
      <point x="472.15608183734264" y="811.3650410358082"/>
      <point x="405.27889714210596" y="830.8489343186568"/>
      <point x="330.1390248413086" y="834.3973693847657" type="curve"/>
      <point x="330.1390248413086" y="950" type="line"/>
      <point x="252.13652239990233" y="950" type="line"/>
      <point x="252.13652239990233" y="830.8031768798828" type="line"/>
      <point x="134.1196422111247" y="811.6455462145797"/>
      <point x="45.39950000000002" y="728.6286883599832"/>
      <point x="45.39949999999999" y="620.7315625" type="curve"/>
      <point x="45.39950000000002" y="495.6956050308447"/>
      <point x="160.1330514911453" y="447.0193720295168"/>
      <point x="237.68377723779588" y="418.04427568422346" type="curve"/>
      <point x="328.62670881567095" y="384.0654807855031" type="line"/>
      <point x="413.7950977979747" y="352.2442147357492"/>
      <point x="477.0379851190477" y="315.6988918347265"/>
      <point x="477.0379851190477" y="240.06137499999997" type="curve"/>
      <point x="477.03798511904756" y="152.62132162932465"/>
      <point x="387.84466386695993" y="90.10237499999997"/>
      <point x="277.60183630952383" y="90.10237499999997" type="curve"/>
      <point x="181.09369424568638" y="90.10237356660946"/>
      <point x="96.00968115483467" y="123.7132384989824"/>
      <point x="45.3995" y="178.2167205810547" type="curve"/>
      <point x="45.3995" y="87.93913269042969" type="line"/>
      <point x="95.48147568557498" y="44.153578106485924"/>
      <point x="168.9992715137659" y="19.738350868325977"/>
      <point x="252.13652239990233" y="15.6325454711914" type="curve"/>
    </contour>
  </outline>
</glyph>
<glyph name="percent" format="2">
  <advance width="1115.1869022939984"/>
  <unicode hex="0025"/>
  <outline>
    <contour>
      <point x="488.6388452380952" y="647.8803273809524" type="curve" smooth="yes"/>
      <point x="488.6388452380952" y="767.7119358368875"/>
      <point x="391.3507810749827" y="865.0"/>
      <point x="271.5191726190476" y="865.0" type="curve" smooth="yes"/>
      <point x="151.68756416311248" y="865.0"/>
      <point x="54.39949999999999" y="767.7119358368875"/>
      <point x="54.39949999999999" y="647.8803273809524" type="curve" smooth="yes"/>
      <point x="54.39949999999996" y="528.0487189250173"/>
      <point x="151.68756416311243" y="430.7606547619048"/>
      <point x="271.5191726190476" y="430.7606547619048" type="curve" smooth="yes"/>
      <point x="391.3507810749827" y="430.7606547619048"/>
      <point x="488.6388452380952" y="528.0487189250173"/>
    </contour>
    <contour>
      <point x="199.33105172413792" y="0" type="line"/>
      <point x="288.26650704640355" y="0" type="line"/>
      <point x="915.8558472563645" y="850" type="line"/>
      <point x="826.9203919340989" y="850" type="line"/>
    </contour>
    <contour>
      <point x="413.86420300210386" y="647.8803273809524" type="curve" smooth="yes"/>
      <point x="413.86420300210386" y="567.292792427335"/>
      <point x="350.486072451847" y="501.7965648860966"/>
      <point x="271.5191726190476" y="501.7965648860966" type="curve" smooth="yes"/>
      <point x="192.5522727862482" y="501.7965648860966"/>
      <point x="129.17414223599135" y="567.292792427335"/>
      <point x="129.17414223599135" y="647.8803273809524" type="curve" smooth="yes"/>
      <point x="129.17414223599135" y="728.4678623345698"/>
      <point x="192.5522727862482" y="793.9640898758082"/>
      <point x="271.5191726190476" y="793.9640898758082" type="curve" smooth="yes"/>
      <point x="350.486072451847" y="793.9640898758082"/>
      <point x="413.86420300210386" y="728.4678623345698"/>
    </contour>
    <contour>
      <point x="1060.7874022939984" y="202.1196726190476" type="curve" smooth="yes"/>
      <point x="1060.7874022939984" y="321.9512810749827"/>
      <point x="963.4993381308859" y="419.2393452380952"/>
      <point x="843.6677296749508" y="419.2393452380952" type="curve" smooth="yes"/>
      <point x="723.8361212190157" y="419.2393452380952"/>
      <point x="626.5480570559032" y="321.9512810749827"/>
      <point x="626.5480570559032" y="202.1196726190476" type="curve" smooth="yes"/>
      <point x="626.5480570559032" y="82.28806416311251"/>
      <point x="723.8361212190157" y="-14.999999999999972"/>
      <point x="843.6677296749508" y="-15.0" type="curve" smooth="yes"/>
      <point x="963.4993381308859" y="-15.000000000000028"/>
      <point x="1060.7874022939984" y="82.28806416311244"/>
    </contour>
    <contour>
      <point x="986.012760058007" y="202.1196726190476" type="curve" smooth="yes"/>
      <point x="986.012760058007" y="121.53213766543021"/>
      <point x="922.6346295077501" y="56.03591012419179"/>
      <point x="843.6677296749508" y="56.03591012419179" type="curve" smooth="yes"/>
      <point x="764.7008298421513" y="56.03591012419179"/>
      <point x="701.3226992918944" y="121.53213766543021"/>
      <point x="701.3226992918944" y="202.1196726190476" type="curve" smooth="yes"/>
      <point x="701.3226992918944" y="282.70720757266497"/>
      <point x="764.7008298421513" y="348.2034351139034"/>
      <point x="843.6677296749508" y="348.2034351139034" type="curve" smooth="yes"/>
      <point x="922.6346295077501" y="348.2034351139034"/>
      <point x="986.012760058007" y="282.70720757266497"/>
    </contour>
  </outline>
</glyph>
<glyph name="ampersand" format="2">
  <advance width="810.4200449829101"/>
  <unicode hex="0026"/>
  <outline>
    <contour>
      <point x="227.59943147457952" y="490.14560708353895" type="curve"/>
      <point x="230.98564050292967" y="486.46680450439453" type="line"/>
      <point x="128.44193162843246" y="452.52094755686755"/>
      <point x="54.39949999999996" y="355.99096235125336"/>
      <point x="54.39950000000002" y="242.25031250000006" type="curve" smooth="yes"/>
      <point x="54.39949999999996" y="100.20376254639109"/>
      <point x="169.88052831804725" y="-14.999999999999982"/>
      <point x="312.13732812499995" y="-15.0" type="curve"/>
      <point x="376.14814909153154" y="-15.0"/>
      <point x="480.40237147138134" y="7.460644081037486"/>
      <point x="546.9392204400588" y="136.27745130069985" type="curve"/>
      <point x="549.2338170776367" y="140.71984100341797" type="line"/>
      <point x="678.761595703125" y="-3.814697265625e-06" type="line"/>
      <point x="784.0205449829101" y="0" type="line"/>
      <point x="587.0657033691406" y="213.9730682373047" type="line"/>
      <point x="732.4184942016601" y="495.4171905517578" type="line"/>
      <point x="649.0171346435546" y="495.4171905517578" type="line"/>
      <point x="533.6402196655273" y="272.0148696899414" type="line"/>
      <point x="286.420086834387" y="540.6212890380309" type="line"/>
      <point x="254.62797791682286" y="575.163639784619"/>
      <point x="227.43202157738088" y="607.4105030419246"/>
      <point x="227.43202157738088" y="657.4494375000002" type="curve"/>
      <point x="227.43202157738088" y="731.1096287997591"/>
      <point x="286.9695822973862" y="790.8976250000001"/>
      <point x="360.4373697916667" y="790.8976250000001" type="curve"/>
      <point x="435.040959542235" y="790.8976250000001"/>
      <point x="495.53557812500003" y="730.2133800818971"/>
      <point x="495.53557812500003" y="655.499375" type="curve"/>
      <point x="569.6379537353515" y="655.4993743896484" type="line"/>
      <point x="569.637953125" y="771.1259166368875"/>
      <point x="475.76386976188746" y="865.0"/>
      <point x="360.13732812499995" y="865.0" type="curve" smooth="yes"/>
      <point x="244.51078648811242" y="865.0"/>
      <point x="150.63670312499997" y="771.1259166368875"/>
      <point x="150.63670312499997" y="655.499375" type="curve"/>
      <point x="150.63670312499997" y="579.7831577260663"/>
      <point x="187.75938330425814" y="533.4281306180134"/>
    </contour>
    <contour>
      <point x="313.4373697916667" y="60.07740625000001" type="curve"/>
      <point x="212.82853481959157" y="60.077406249999996"/>
      <point x="131.42696874999996" y="142.13929063934404"/>
      <point x="131.42696874999996" y="243.22534375" type="curve" smooth="yes"/>
      <point x="131.42696874999996" y="335.6247082590761"/>
      <point x="199.43939203627505" y="412.1290491437023"/>
      <point x="287.9652166137695" y="424.56380462646484" type="curve"/>
      <point x="495.8083333740234" y="198.7616424560547" type="line"/>
      <point x="493.5129120802977" y="194.31967880420987" type="line"/>
      <point x="464.78189457454573" y="138.72111143450348"/>
      <point x="417.58390038491495" y="60.077406249999974"/>
    </contour>
  </outline>
</glyph>
<glyph name="quote" format="2">
  <advance width="280.3628427734375"/>
  <unicode hex="0027"/>
  <outline>
    <contour>
      <point x="171.6054097290039" y="586.4743728637695" type="line"/>
      <point x="183.9633427734375" y="850" type="line"/>
      <point x="98.39949999999999" y="850" type="line"/>
      <point x="110.75743304443358" y="586.4743728637695" type="line"/>
    </contour>
  </outline>
</glyph>
<glyph name="parenleft" format="2">
  <advance width="348.97180668501414"/>
  <unicode hex="0028"/>
  <outline>
    <contour>
      <point x="152.40199999999993" y="424.99999999999994" type="curve" smooth="yes"/>
      <point x="152.40199999999993" y="617.9129729559905"/>
      <point x="211.91078899227523" y="796.954594138419"/>
      <point x="313.5721769853071" y="944.5006256103516" type="curve"/>
      <point x="222.05739121870556" y="944.5006256103516" type="line"/>
      <point x="128.4564858002907" y="793.5385896107131"/>
      <point x="74.3995000000001" y="615.532324418538"/>
      <point x="74.39949999999999" y="425.00000000000006" type="curve" smooth="yes"/>
      <point x="74.39949999999999" y="234.46767558146226"/>
      <point x="128.45648580029058" y="56.46141038928721"/>
      <point x="222.0568419022993" y="-94.50062561035156" type="curve"/>
      <point x="313.57230668501415" y="-94.50062561035156" type="line"/>
      <point x="211.91078899227523" y="53.04540586158086"/>
      <point x="152.40199999999993" y="232.0870270440094"/>
    </contour>
  </outline>
</glyph>
<glyph name="parenright" format="2">
  <advance width="347.97180668501414"/>
  <unicode hex="0029"/>
  <outline>
    <contour>
      <point x="274.57230668501415" y="424.99999999999994" type="curve" smooth="yes"/>
      <point x="274.57230668501415" y="615.5323244185379"/>
      <point x="220.51532088472356" y="793.538589610713"/>
      <point x="126.91496478271483" y="944.5006256103516" type="curve"/>
      <point x="35.39949999999999" y="944.5006256103516" type="line"/>
      <point x="137.06101769273891" y="796.9545941384191"/>
      <point x="196.5698066850142" y="617.9129729559905"/>
      <point x="196.5698066850141" y="424.99999999999994" type="curve" smooth="yes"/>
      <point x="196.5698066850142" y="232.08702704400952"/>
      <point x="137.06101769273891" y="53.045405861580974"/>
      <point x="35.39962969970702" y="-94.50062561035156" type="curve"/>
      <point x="126.91441546630858" y="-94.50062561035156" type="line"/>
      <point x="220.51532088472356" y="56.46141038928707"/>
      <point x="274.57230668501415" y="234.46767558146215"/>
    </contour>
  </outline>
</glyph>
<glyph name="asterisk" format="2">
  <advance width="443.5743448486328"/>
  <unicode hex="002A"/>
  <outline>
    <contour>
      <point x="270.8110982055664" y="681.8066177368164" type="line"/>
      <point x="388.1748448486328" y="714.788200378418" type="line"/>
      <point x="385.70962742080576" y="739.0594460570305"/>
      <point x="378.07614916288344" y="761.7407427542079"/>
      <point x="366.3971806640625" y="781.7404708862305" type="curve"/>
      <point x="252.082849609375" y="739.4462203979492" type="line"/>
      <point x="256.983728515625" y="861.2782440185547" type="line"/>
      <point x="245.63209388131344" y="863.7177668339478"/>
      <point x="233.85456628609444" y="865.0"/>
      <point x="221.7799202270508" y="865.0" type="curve" smooth="yes"/>
      <point x="209.70545879703417" y="865.0"/>
      <point x="197.92810674465073" y="863.7178060459713"/>
      <point x="186.57683764648436" y="861.2600860595703" type="curve"/>
      <point x="191.47698413085936" y="739.4462203979492" type="line"/>
      <point x="77.15073596191405" y="781.7448806762695" type="line"/>
      <point x="65.50129215852851" y="761.7644030671671"/>
      <point x="57.87921493182006" y="739.1398173824538"/>
      <point x="55.39949999999999" y="714.7841186523438" type="curve"/>
      <point x="172.7487431640625" y="681.8066177368164" type="line"/>
      <point x="97.20808612060544" y="586.1678009033203" type="line"/>
      <point x="112.9373731225857" y="568.6188645053447"/>
      <point x="132.316291839548" y="554.4086955041166"/>
      <point x="154.14578448486327" y="544.7565994262695" type="curve"/>
      <point x="221.77991687011718" y="646.1833801269531" type="line"/>
      <point x="289.4213963623047" y="544.7455825805664" type="line"/>
      <point x="311.24236167170153" y="554.4094363417112"/>
      <point x="330.6143782328613" y="568.6136106213576"/>
      <point x="346.3398076171875" y="586.1829223632812" type="curve"/>
    </contour>
  </outline>
</glyph>
<glyph name="plus" format="2">
  <advance width="797.8002512207031"/>
  <unicode hex="002B"/>
  <outline>
    <contour>
      <point x="360.85012255859374" y="130.49937438964844" type="line"/>
      <point x="436.95012866210936" y="130.49937438964844" type="line"/>
      <point x="436.95012866210936" y="386.9499969482422" type="line"/>
      <point x="693.4007512207031" y="386.9499969482422" type="line"/>
      <point x="693.4007512207031" y="463.0500030517578" type="line"/>
      <point x="436.95012866210936" y="463.0500030517578" type="line"/>
      <point x="436.95012866210936" y="719.5006256103516" type="line"/>
      <point x="360.85012255859374" y="719.5006256103516" type="line"/>
      <point x="360.85012255859374" y="463.0500030517578" type="line"/>
      <point x="104.39949999999999" y="463.0500030517578" type="line"/>
      <point x="104.39949999999999" y="386.9499969482422" type="line"/>
      <point x="360.85012255859374" y="386.9499969482422" type="line"/>
    </contour>
  </outline>
</glyph>
<glyph name="comma" format="2">
  <advance width="348.4928956146927"/>
  <unicode hex="002C"/>
  <outline>
    <contour>
      <point x="164.73918023809523" y="137.67936047619048" type="curve"/>
      <point x="122.60616409269326" y="137.67936047619048"/>
      <point x="88.39949999999999" y="103.4726963834971"/>
      <point x="88.39949999999999" y="61.33968023809525" type="curve" smooth="yes"/>
      <point x="88.39949999999999" y="19.206664092693316"/>
      <point x="122.60616409269329" y="-15.0"/>
      <point x="164.73918023809523" y="-15.0" type="curve"/>
      <point x="183.01534505053468" y="-15.0"/>
      <point x="199.80009526400016" y="-8.563707759787633"/>
      <point x="212.94848504766554" y="2.1989974975585938" type="curve"/>
      <point x="205.73143565140376" y="-76.97746774516574"/>
      <point x="162.20435402696393" y="-145.62458537731845"/>
      <point x="99.20059076055615" y="-186.99638366699222" type="curve"/>
      <point x="151.31376519903273" y="-186.9963836669922" type="line"/>
      <point x="218.8125907086038" y="-140.49082066353"/>
      <point x="263.0933956146927" y="-62.65743034289645"/>
      <point x="263.0933956146927" y="25.436687213136437" type="curve"/>
      <point x="263.0933956146927" y="34.653671768443225"/>
      <point x="262.44300686463555" y="64.3679426538776"/>
      <point x="242.55864838222442" y="95.23869489435484" type="curve"/>
      <point x="222.47546316725192" y="126.41812849385681"/>
      <point x="190.05662824291173" y="137.67936047619048"/>
    </contour>
  </outline>
</glyph>
<glyph name="hyphen" format="2">
  <advance width="532.2347738095237"/>
  <unicode hex="002D"/>
  <outline>
    <contour>
      <point x="104.39949999999999" y="259.2003125" type="line"/>
      <point x="427.83527380952376" y="259.2003125" type="line"/>
      <point x="427.83527380952376" y="335.3003125" type="line"/>
      <point x="104.39949999999999" y="335.3003125" type="line"/>
    </contour>
  </outline>
</glyph>
<glyph name="period" format="2">
  <advance width="327.47836047619046"/>
  <unicode hex="002E"/>
  <outline>
    <contour>
      <point x="240.07886047619047" y="61.33968023809524" type="curve" smooth="yes"/>
      <point x="240.07886047619047" y="103.47269638349718"/>
      <point x="205.87219638349717" y="137.67936047619048"/>
      <point x="163.73918023809523" y="137.67936047619048" type="curve" smooth="yes"/>
      <point x="121.60616409269329" y="137.67936047619048"/>
      <point x="87.39949999999999" y="103.47269638349718"/>
      <point x="87.39949999999999" y="61.33968023809525" type="curve" smooth="yes"/>
      <point x="87.39949999999999" y="19.20666409269331"/>
      <point x="121.60616409269329" y="-15.0"/>
      <point x="163.73918023809523" y="-15.0" type="curve" smooth="yes"/>
      <point x="205.87219638349717" y="-15.000000000000014"/>
      <point x="240.07886047619047" y="19.206664092693288"/>
    </contour>
  </outline>
</glyph>
<glyph name="slash" format="2">
  <advance width="385.6616937866211"/>
  <unicode hex="002F"/>
  <outline>
    <contour>
      <point x="291.4776784057617" y="944.5006256103516" type="line"/>
      <point x="38.39949999999999" y="0" type="line"/>
      <point x="117.18401538085935" y="-7.62939453125e-06" type="line"/>
      <point x="370.2621937866211" y="944.5006256103516" type="line"/>
    </contour>
  </outline>
</glyph>
<glyph name="zero" format="2">
  <advance width="770.2043869047619"/>
  <unicode hex="0030"/>
  <outline>
    <contour>
      <point x="690.8048869047619" y="425.0" type="curve" smooth="yes"/>
      <point x="690.8048869047619" y="668.085124735434"/>
      <point x="579.0247033624859" y="865.0"/>
      <point x="385.10219345238096" y="865.0" type="curve" smooth="yes"/>
      <point x="191.1796835422761" y="865.0"/>
      <point x="79.39949999999999" y="668.085124735434"/>
      <point x="79.39949999999999" y="425.0" type="curve" smooth="yes"/>
      <point x="79.39949999999999" y="181.91487526456598"/>
      <point x="191.1796835422761" y="-15.0"/>
      <point x="385.10219345238096" y="-15.0" type="curve" smooth="yes"/>
      <point x="579.0247033624859" y="-15.0"/>
      <point x="690.8048869047619" y="181.91487526456598"/>
    </contour>
    <contour>
      <point x="612.802386904762" y="425.0" type="curve" smooth="yes"/>
      <point x="612.802386904762" y="222.6836204268037"/>
      <point x="530.3405639692343" y="59.102374999999995"/>
      <point x="385.10219345238096" y="59.102374999999995" type="curve" smooth="yes"/>
      <point x="239.8638229355277" y="59.102374999999995"/>
      <point x="157.402" y="222.6836204268037"/>
      <point x="157.402" y="425.0" type="curve" smooth="yes"/>
      <point x="157.402" y="627.3163795731963"/>
      <point x="239.8638229355277" y="790.8976250000001"/>
      <point x="385.10219345238096" y="790.8976250000001" type="curve" smooth="yes"/>
      <point x="530.3405639692343" y="790.8976250000001"/>
      <point x="612.802386904762" y="627.3163795731963"/>
    </contour>
  </outline>
</glyph>
<glyph name="one" format="2">
  <advance width="566.1008188476562"/>
  <unicode hex="0031"/>
  <outline>
    <contour>
      <point x="301.3400746459961" y="0" type="line"/>
      <point x="381.70131884765624" y="0" type="line"/>
      <point x="381.70131884765624" y="850" type="line"/>
      <point x="178.04045306396483" y="850" type="line"/>
      <point x="129.3995" y="775.8976287841797" type="line"/>
      <point x="301.3400746459961" y="775.8976287841797" type="line"/>
    </contour>
  </outline>
</glyph>
<glyph name="two" format="2">
  <advance width="706.154094909668"/>
  <unicode hex="0032"/>
  <outline>
    <contour>
      <point x="73.39949999999999" y="0" type="line"/>
      <point x="619.754594909668" y="0" type="line"/>
      <point x="619.754594909668" y="74.10237121582031" type="line"/>
      <point x="235.2508488769531" y="74.10237121582031" type="line"/>
      <point x="497.68949236027925" y="384.1796873200375" type="line"/>
      <point x="558.1362561179587" y="455.59893421291275"/>
      <point x="599.7545973481679" y="520.8781673920986"/>
      <point x="599.7545973481679" y="612.7586309523809" type="curve"/>
      <point x="599.7545973481679" y="751.9675653806903"/>
      <point x="485.56812807293386" y="865.0"/>
      <point x="344.98460330054877" y="865.0" type="curve"/>
      <point x="254.50474122326898" y="865.0"/>
      <point x="173.91281727876716" y="833.8789828060645"/>
      <point x="122.07210742187499" y="779.3607864379883" type="curve"/>
      <point x="122.07210742187499" y="678.5832672119141" type="line"/>
      <point x="162.93636788475328" y="746.2416575733859"/>
      <point x="245.42612924091276" y="790.8976250000001"/>
      <point x="340.5558533005487" y="790.8976250000002" type="curve"/>
      <point x="441.20358362629656" y="790.897625"/>
      <point x="522.9101372129576" y="714.097453851096"/>
      <point x="522.9101372129576" y="614.0586726190476" type="curve"/>
      <point x="522.9101372129576" y="538.977039360612"/>
      <point x="481.9188192655796" y="486.4655182074276"/>
      <point x="440.07722000175534" y="436.64046879459613" type="curve"/>
    </contour>
  </outline>
</glyph>
<glyph name="three" format="2">
  <advance width="674.8472406616211"/>
  <unicode hex="0033"/>
  <outline>
    <contour>
      <point x="304.9236220238095" y="-14.999999999999993" type="curve"/>
      <point x="470.90578597122555" y="-15.0"/>
      <point x="605.447744047619" y="109.95609951122862"/>
      <point x="605.447744047619" y="264.2741220238095" type="curve"/>
      <point x="605.447744047619" y="410.2231169156609"/>
      <point x="491.11809268225613" y="521.0823776599048"/>
      <point x="342.0179844970703" y="540.5035552978516" type="curve"/>
      <point x="610.4477406616211" y="850" type="line"/>
      <point x="110.86599932861326" y="850" type="line"/>
      <point x="110.86599932861326" y="775.8976287841797" type="line"/>
      <point x="451.2009144897461" y="775.8976287841797" type="line"/>
      <point x="169.7305852050781" y="453.50193786621094" type="line"/>
      <point x="219.92364830765217" y="467.4194865908269"/>
      <point x="267.8266112629134" y="469.4201983033761"/>
      <point x="290.8663720238095" y="469.42019830337614" type="curve"/>
      <point x="421.44896611319126" y="469.4201983033761"/>
      <point x="527.4452440476191" y="384.7788425019322"/>
      <point x="527.4452440476191" y="264.2741220238095" type="curve"/>
      <point x="527.4452440476191" y="151.0998164457982"/>
      <point x="427.8177628444075" y="59.12804574424294"/>
      <point x="304.9236220238095" y="59.12804574424294" type="curve"/>
      <point x="215.7847688616776" y="59.128045744242954"/>
      <point x="136.2626052100656" y="94.19898986598392"/>
      <point x="84.39949999999999" y="148.93647003173828" type="curve"/>
      <point x="84.39949999999999" y="58.189781188964844" type="line"/>
      <point x="140.67502031082523" y="11.531091077203484"/>
      <point x="218.70688807112646" y="-15.000000000000004"/>
    </contour>
  </outline>
</glyph>
<glyph name="four" format="2">
  <advance width="729.9007532348633"/>
  <unicode hex="0034"/>
  <outline>
    <contour>
      <point x="33.39949999999999" y="230.99874877929688" type="line"/>
      <point x="497.498750793457" y="230.99874877929688" type="line"/>
      <point x="497.498750793457" y="0" type="line"/>
      <point x="575.5012532348633" y="0" type="line"/>
      <point x="575.5012532348633" y="230.99874877929688" type="line"/>
      <point x="675.5012532348633" y="230.99874877929688" type="line"/>
      <point x="675.5012532348633" y="303.8745422363281" type="line"/>
      <point x="575.5012532348633" y="303.8745422363281" type="line"/>
      <point x="575.5012532348633" y="607.1428604125977" type="line"/>
      <point x="497.498750793457" y="607.1428604125977" type="line"/>
      <point x="497.498750793457" y="303.8745422363281" type="line"/>
      <point x="170.35075579833983" y="303.8745422363281" type="line"/>
      <point x="526.7992497558594" y="850" type="line"/>
      <point x="435.75774584960936" y="850" type="line"/>
    </contour>
  </outline>
</glyph>
<glyph name="five" format="2">
  <advance width="676.3950407511394"/>
  <unicode hex="0035"/>
  <outline>
    <contour>
      <point x="298.983144917806" y="-15.000000000000014" type="curve"/>
      <point x="466.93478821989106" y="-15.0"/>
      <point x="602.9955407511394" y="111.68227348130696"/>
      <point x="602.9955407511394" y="267.5836458333334" type="curve"/>
      <point x="602.9955407511394" y="427.1146649660966"/>
      <point x="470.6067386608602" y="550.1672916666668"/>
      <point x="307.411894917806" y="550.1672916666668" type="curve"/>
      <point x="279.33189413201353" y="550.1672916666668"/>
      <point x="245.46028804388806" y="547.5628010673864"/>
      <point x="209.55686389160155" y="538.9633331298828" type="curve"/>
      <point x="227.43130694580077" y="775.8976287841797" type="line"/>
      <point x="564.5667897338867" y="775.8976287841797" type="line"/>
      <point x="564.5667897338867" y="850" type="line"/>
      <point x="156.45273028564452" y="850" type="line"/>
      <point x="130.80119143676757" y="509.9765319824219" type="line"/>
      <point x="124.66340075683591" y="428.61722564697266" type="line"/>
      <point x="173.9007111888718" y="458.9889613988436"/>
      <point x="236.080492375654" y="475.8699104166667"/>
      <point x="303.668894917806" y="475.8699104166667" type="curve"/>
      <point x="425.8459081996021" y="475.86991041666676"/>
      <point x="524.9930407511395" y="387.2042916862734"/>
      <point x="524.9930407511395" y="267.5836458333334" type="curve"/>
      <point x="524.9930407511395" y="151.47972382312"/>
      <point x="422.30692129926274" y="59.29738125"/>
      <point x="295.55439491780606" y="59.29738125" type="curve"/>
      <point x="206.9725260564781" y="59.29738124999999"/>
      <point x="128.2831477940178" y="94.95365619443565"/>
      <point x="78.39949999999999" y="150.14313507080078" type="curve"/>
      <point x="78.39949999999999" y="60.40528106689453" type="line"/>
      <point x="135.4736923889501" y="13.745305547787922"/>
      <point x="213.24877635109618" y="-15.000000000000025"/>
    </contour>
  </outline>
</glyph>
<glyph name="six" format="2">
  <advance width="731.4436839080461"/>
  <unicode hex="0036"/>
  <outline>
    <contour>
      <point x="146.11717814872526" y="484.8029446762882" type="line"/>
      <point x="100.28999972252912" y="415.49041811636204"/>
      <point x="69.39949999999999" y="359.911896795352"/>
      <point x="69.39949999999999" y="279.6670833333334" type="curve"/>
      <point x="69.39949999999993" y="116.12233204733175"/>
      <point x="202.17709066802126" y="-14.99999999999998"/>
      <point x="365.7218419540229" y="-15.0" type="curve" smooth="yes"/>
      <point x="529.2665932400245" y="-15.0"/>
      <point x="662.0441839080461" y="116.1223320473317"/>
      <point x="662.0441839080461" y="279.6670833333333" type="curve"/>
      <point x="662.0441839080461" y="441.8658512298257"/>
      <point x="530.3593610001202" y="571.8954155170619"/>
      <point x="368.16059310362783" y="571.8954155170619" type="curve" smooth="yes"/>
      <point x="339.9143264695253" y="571.8954155170619"/>
      <point x="312.5934510368488" y="567.952031114889"/>
      <point x="286.73241625976556" y="560.5769119262695" type="curve"/>
      <point x="479.8964024658203" y="850" type="line"/>
      <point x="387.5735417480468" y="850" type="line"/>
    </contour>
    <contour>
      <point x="584.041683908046" y="279.6670833333334" type="curve" smooth="yes"/>
      <point x="584.041683908046" y="157.97273610777034"/>
      <point x="486.58337478652174" y="59.102374999999995"/>
      <point x="365.721841954023" y="59.102374999999995" type="curve" smooth="yes"/>
      <point x="244.86030912152427" y="59.102374999999995"/>
      <point x="147.40199999999993" y="157.97273610777034"/>
      <point x="147.40199999999993" y="279.6670833333334" type="curve" smooth="yes"/>
      <point x="147.40199999999993" y="401.3614305588964"/>
      <point x="244.86030912152427" y="500.23179166666677"/>
      <point x="365.721841954023" y="500.23179166666677" type="curve" smooth="yes"/>
      <point x="486.58337478652174" y="500.23179166666677"/>
      <point x="584.041683908046" y="401.3614305588964"/>
    </contour>
  </outline>
</glyph>
<glyph name="seven" format="2">
  <advance width="719.4953653564453"/>
  <unicode hex="0037"/>
  <outline>
    <contour>
      <point x="540.5742283935547" y="775.8976287841797" type="line"/>
      <point x="131.4418583984375" y="0" type="line"/>
      <point x="218.83069812011718" y="0" type="line"/>
      <point x="665.0958653564453" y="850" type="line"/>
      <point x="94.39949999999999" y="850" type="line"/>
      <point x="94.39949999999999" y="775.8976287841797" type="line"/>
    </contour>
  </outline>
</glyph>
<glyph name="eight" format="2">
  <advance width="729.9662916666667"/>
  <unicode hex="0038"/>
  <outline>
    <contour>
      <point x="69.39949999999999" y="231.07187499999998" type="curve"/>
      <point x="69.3995" y="95.39344952530297"/>
      <point x="201.6870712766597" y="-14.99999999999998"/>
      <point x="364.9831458333333" y="-15.0" type="curve" smooth="yes"/>
      <point x="528.279220390007" y="-15.000000000000028"/>
      <point x="660.5667916666667" y="95.39344952530291"/>
      <point x="660.5667916666667" y="231.07187499999995" type="curve"/>
      <point x="660.5667916666667" y="328.1542390912828"/>
      <point x="601.3173910569684" y="405.48649026825916"/>
      <point x="513.2064152832031" y="446.03218841552734" type="curve"/>
      <point x="589.7988045235985" y="484.22614165761934"/>
      <point x="640.5667916666667" y="552.925982158288"/>
      <point x="640.5667916666669" y="638.928125" type="curve"/>
      <point x="640.5667916666667" y="763.5691102712558"/>
      <point x="517.2863298593602" y="865.0"/>
      <point x="364.98314583333337" y="865.0" type="curve" smooth="yes"/>
      <point x="212.6799618073066" y="865.0"/>
      <point x="89.3995" y="763.5691102712558"/>
      <point x="89.39949999999999" y="638.928125" type="curve"/>
      <point x="89.39949999999999" y="552.9251778248829"/>
      <point x="140.168436760777" y="484.2248566312296"/>
      <point x="216.76210986328124" y="446.0256042480469" type="curve"/>
      <point x="128.6499632203803" y="405.4878771787221"/>
      <point x="69.39950000000002" y="328.1551096510988"/>
    </contour>
    <contour>
      <point x="562.5642916666668" y="635.8659787448173" type="curve" smooth="yes"/>
      <point x="562.5642916666668" y="543.3336443923815"/>
      <point x="474.12205988065205" y="480.8343324896347"/>
      <point x="364.98314583333337" y="480.8343324896347" type="curve" smooth="yes"/>
      <point x="255.8442317860147" y="480.8343324896347"/>
      <point x="167.402" y="543.3336443923815"/>
      <point x="167.402" y="635.8659787448173" type="curve" smooth="yes"/>
      <point x="167.402" y="728.3983130972531"/>
      <point x="255.8442317860147" y="790.897625"/>
      <point x="364.98314583333337" y="790.897625" type="curve" smooth="yes"/>
      <point x="474.12205988065205" y="790.897625"/>
      <point x="562.5642916666668" y="728.3983130972531"/>
    </contour>
    <contour>
      <point x="582.5642916666668" y="234.13402125518263" type="curve" smooth="yes"/>
      <point x="582.5642916666668" y="130.5644002282395"/>
      <point x="485.14946100595034" y="59.10237499999997"/>
      <point x="364.98314583333337" y="59.10237499999997" type="curve" smooth="yes"/>
      <point x="244.8168306607164" y="59.10237499999997"/>
      <point x="147.402" y="130.5644002282395"/>
      <point x="147.402" y="234.13402125518263" type="curve" smooth="yes"/>
      <point x="147.402" y="337.70364228212577"/>
      <point x="244.8168306607164" y="409.1656675103653"/>
      <point x="364.98314583333337" y="409.1656675103653" type="curve" smooth="yes"/>
      <point x="485.14946100595034" y="409.1656675103653"/>
      <point x="582.5642916666668" y="337.70364228212577"/>
    </contour>
  </outline>
</glyph>
<glyph name="nine" format="2">
  <advance width="731.4436839080461"/>
  <unicode hex="0039"/>
  <outline>
    <contour>
      <point x="585.3265056891653" y="365.1970553237118" type="line"/>
      <point x="631.1536841153614" y="434.50958188363796"/>
      <point x="662.0441839080461" y="490.088103204648"/>
      <point x="662.0441839080461" y="570.3329166666666" type="curve"/>
      <point x="662.0441839080461" y="733.8776679526683"/>
      <point x="529.2665932400247" y="865.0"/>
      <point x="365.72184195402303" y="865.0" type="curve" smooth="yes"/>
      <point x="202.17709066802144" y="865.0"/>
      <point x="69.3995" y="733.8776679526683"/>
      <point x="69.39949999999999" y="570.3329166666666" type="curve"/>
      <point x="69.3995" y="408.1341487701743"/>
      <point x="201.08432290792575" y="278.1045844829381"/>
      <point x="363.2830908044181" y="278.1045844829381" type="curve" smooth="yes"/>
      <point x="391.52935743852066" y="278.1045844829381"/>
      <point x="418.85023287119714" y="282.04796888511095"/>
      <point x="444.711267578125" y="289.42308807373047" type="curve"/>
      <point x="251.5472813720703" y="0" type="line"/>
      <point x="343.87014208984374" y="0" type="line"/>
    </contour>
    <contour>
      <point x="584.0416839080461" y="570.3329166666666" type="curve" smooth="yes"/>
      <point x="584.0416839080461" y="448.6385694411036"/>
      <point x="486.58337478652174" y="349.76820833333323"/>
      <point x="365.72184195402303" y="349.76820833333323" type="curve" smooth="yes"/>
      <point x="244.86030912152432" y="349.76820833333323"/>
      <point x="147.402" y="448.6385694411036"/>
      <point x="147.402" y="570.3329166666666" type="curve" smooth="yes"/>
      <point x="147.402" y="692.0272638922297"/>
      <point x="244.86030912152432" y="790.8976250000001"/>
      <point x="365.72184195402303" y="790.8976250000001" type="curve" smooth="yes"/>
      <point x="486.58337478652174" y="790.8976250000001"/>
      <point x="584.0416839080461" y="692.0272638922297"/>
    </contour>
  </outline>
</glyph>
<glyph name="colon" format="2">
  <advance width="333.47836047619046"/>
  <unicode hex="003A"/>
  <outline>
    <contour>
      <point x="243.07886047619047" y="533.1609447619048" type="curve" smooth="yes"/>
      <point x="243.07886047619047" y="575.2939609073068"/>
      <point x="208.87219638349717" y="609.5006250000001"/>
      <point x="166.73918023809523" y="609.5006250000001" type="curve" smooth="yes"/>
      <point x="124.60616409269329" y="609.5006250000001"/>
      <point x="90.39949999999999" y="575.2939609073068"/>
      <point x="90.39949999999999" y="533.1609447619048" type="curve" smooth="yes"/>
      <point x="90.39949999999999" y="491.0279286165029"/>
      <point x="124.60616409269329" y="456.8212645238096"/>
      <point x="166.73918023809523" y="456.8212645238096" type="curve" smooth="yes"/>
      <point x="208.87219638349717" y="456.8212645238096"/>
      <point x="243.07886047619047" y="491.0279286165029"/>
    </contour>
    <contour>
      <point x="243.07886047619047" y="61.33968023809524" type="curve" smooth="yes"/>
      <point x="243.07886047619047" y="103.47269638349718"/>
      <point x="208.87219638349717" y="137.67936047619048"/>
      <point x="166.73918023809523" y="137.67936047619048" type="curve" smooth="yes"/>
      <point x="124.60616409269329" y="137.67936047619048"/>
      <point x="90.39949999999999" y="103.47269638349718"/>
      <point x="90.39949999999999" y="61.33968023809525" type="curve" smooth="yes"/>
      <point x="90.39949999999999" y="19.20666409269331"/>
      <point x="124.60616409269329" y="-15.0"/>
      <point x="166.73918023809523" y="-15.0" type="curve" smooth="yes"/>
      <point x="208.87219638349717" y="-15.000000000000014"/>
      <point x="243.07886047619047" y="19.206664092693288"/>
    </contour>
  </outline>
</glyph>
<glyph name="semicolon" format="2">
  <advance width="345.4928956146927"/>
  <unicode hex="003B"/>
  <outline>
    <contour>
      <point x="243.07886047619047" y="533.1609447619048" type="curve" smooth="yes"/>
      <point x="243.07886047619047" y="575.2939609073068"/>
      <point x="208.87219638349717" y="609.5006250000001"/>
      <point x="166.73918023809523" y="609.5006250000001" type="curve" smooth="yes"/>
      <point x="124.60616409269329" y="609.5006250000001"/>
      <point x="90.39949999999999" y="575.2939609073068"/>
      <point x="90.39949999999999" y="533.1609447619048" type="curve" smooth="yes"/>
      <point x="90.39949999999999" y="491.0279286165029"/>
      <point x="124.60616409269329" y="456.8212645238096"/>
      <point x="166.73918023809523" y="456.8212645238096" type="curve" smooth="yes"/>
      <point x="208.87219638349717" y="456.8212645238096"/>
      <point x="243.07886047619047" y="491.0279286165029"/>
    </contour>
    <contour>
      <point x="166.73918023809523" y="137.67936047619048" type="curve"/>
      <point x="124.60616409269326" y="137.67936047619048"/>
      <point x="90.39949999999999" y="103.4726963834971"/>
      <point x="90.39949999999999" y="61.33968023809525" type="curve" smooth="yes"/>
      <point x="90.39949999999999" y="19.206664092693316"/>
      <point x="124.60616409269329" y="-15.0"/>
      <point x="166.73918023809523" y="-15.0" type="curve"/>
      <point x="185.01534505053468" y="-15.0"/>
      <point x="201.80009526400016" y="-8.563707759787633"/>
      <point x="214.94848504766554" y="2.1989974975585938" type="curve"/>
      <point x="207.73143565140376" y="-76.97746774516574"/>
      <point x="164.20435402696393" y="-145.62458537731845"/>
      <point x="101.20059076055615" y="-186.99638366699222" type="curve"/>
      <point x="153.31376519903273" y="-186.9963836669922" type="line"/>
      <point x="220.8125907086038" y="-140.49082066353"/>
      <point x="265.0933956146927" y="-62.65743034289645"/>
      <point x="265.0933956146927" y="25.436687213136437" type="curve"/>
      <point x="265.0933956146927" y="34.653671768443225"/>
      <point x="264.44300686463555" y="64.3679426538776"/>
      <point x="244.55864838222442" y="95.23869489435484" type="curve"/>
      <point x="224.47546316725192" y="126.41812849385681"/>
      <point x="192.05662824291173" y="137.67936047619048"/>
    </contour>
  </outline>
</glyph>
<glyph name="less" format="2">
  <advance width="704.2996256103515"/>
  <unicode hex="003C"/>
  <outline>
    <contour>
      <point x="629.9001256103516" y="133.24906158447266" type="line"/>
      <point x="629.9001256103516" y="217.56893157958984" type="line"/>
      <point x="206.04116259765624" y="425" type="line"/>
      <point x="629.9001256103516" y="632.4310684204102" type="line"/>
      <point x="629.9001256103516" y="716.7509384155273" type="line"/>
      <point x="35.39949999999999" y="425" type="line"/>
    </contour>
  </outline>
</glyph>
<glyph name="equal" format="2">
  <advance width="797.80025"/>
  <unicode hex="003D"/>
  <outline>
    <contour>
      <point x="104.39949999999999" y="543.54925" type="line"/>
      <point x="693.40075" y="543.54925" type="line"/>
      <point x="693.40075" y="619.64925" type="line"/>
      <point x="104.39949999999999" y="619.64925" type="line"/>
    </contour>
    <contour>
      <point x="104.39949999999999" y="230.35074999999998" type="line"/>
      <point x="693.40075" y="230.35074999999998" type="line"/>
      <point x="693.40075" y="306.45074999999997" type="line"/>
      <point x="104.39949999999999" y="306.45074999999997" type="line"/>
    </contour>
  </outline>
</glyph>
<glyph name="greater" format="2">
  <advance width="704.2996256103515"/>
  <unicode hex="003E"/>
  <outline>
    <contour>
      <point x="74.39949999999999" y="133.24906158447266" type="line"/>
      <point x="668.9001256103516" y="425" type="line"/>
      <point x="74.39949999999999" y="716.7509384155273" type="line"/>
      <point x="74.39949999999999" y="632.4310684204102" type="line"/>
      <point x="498.2584630126953" y="425" type="line"/>
      <point x="74.39949999999999" y="217.56893157958984" type="line"/>
    </contour>
  </outline>
</glyph>
<glyph name="question" format="2">
  <advance width="616.7635982142858"/>
  <unicode hex="003F"/>
  <outline>
    <contour>
      <point x="261.8817991071429" y="426.13777678571415" type="curve"/>
      <point x="238.0290161933462" y="426.13777685728684"/>
      <point x="209.0552920994133" y="429.4313047545349"/>
      <point x="178.04525958251952" y="440.25428009033203" type="curve"/>
      <point x="181.75986682128905" y="227.078857421875" type="line"/>
      <point x="243.25126849365233" y="227.078857421875" type="line"/>
      <point x="247.62012683105468" y="352.43983459472656" type="line"/>
      <point x="253.6271818370618" y="352.0923655876122"/>
      <point x="258.6335434536922" y="352.0354017857141"/>
      <point x="261.8817991071429" y="352.03540178571416" type="curve"/>
      <point x="411.7596151352459" y="352.03540178571416"/>
      <point x="533.3640982142858" y="466.5876002842863"/>
      <point x="533.3640982142858" y="608.5177008928571" type="curve"/>
      <point x="533.3640982142858" y="750.0741341342218"/>
      <point x="418.4382323485077" y="865.0"/>
      <point x="276.8817991071429" y="865.0" type="curve"/>
      <point x="213.6630826634035" y="865.0"/>
      <point x="155.6408499316339" y="843.0736164102829"/>
      <point x="110.39949999999999" y="806.4493255615234" type="curve"/>
      <point x="110.39949999999999" y="718.0945739746094" type="line"/>
      <point x="151.70994732469683" y="762.881976134945"/>
      <point x="211.02198773264234" y="790.8976250000001"/>
      <point x="276.8817991071429" y="790.8976250000001" type="curve"/>
      <point x="377.21545008983907" y="790.8976250000001"/>
      <point x="455.36159821428583" y="709.1854912028681"/>
      <point x="455.36159821428583" y="608.5177008928571" type="curve"/>
      <point x="455.36159821428583" y="507.7678222442945"/>
      <point x="368.72850500927393" y="426.13777678571415"/>
    </contour>
    <contour>
      <point x="288.8452468089764" y="61.33968023809524" type="curve" smooth="yes"/>
      <point x="288.8452468089764" y="103.47269638349718"/>
      <point x="254.63858271628317" y="137.67936047619048"/>
      <point x="212.50556657088123" y="137.67936047619048" type="curve" smooth="yes"/>
      <point x="170.3725504254793" y="137.67936047619048"/>
      <point x="136.165886332786" y="103.47269638349718"/>
      <point x="136.165886332786" y="61.33968023809525" type="curve" smooth="yes"/>
      <point x="136.165886332786" y="19.20666409269331"/>
      <point x="170.3725504254793" y="-15.0"/>
      <point x="212.50556657088123" y="-15.0" type="curve" smooth="yes"/>
      <point x="254.6385827162831" y="-15.000000000000014"/>
      <point x="288.8452468089764" y="19.206664092693288"/>
    </contour>
  </outline>
</glyph>
<glyph name="at" format="2">
  <advance width="1108.799"/>
  <unicode hex="0040"/>
  <outline>
    <contour>
      <point x="117.01198749999996" y="425.00000000000006" type="curve"/>
      <point x="117.01198749999996" y="666.4007377091878"/>
      <point x="312.99876229081224" y="862.3875125"/>
      <point x="554.3995" y="862.3875125" type="curve" smooth="yes"/>
      <point x="795.8002377091881" y="862.3875125"/>
      <point x="991.7870125" y="666.400737709188"/>
      <point x="991.7870125" y="425.0" type="curve"/>
      <point x="991.7870125" y="240.0235366904232"/>
      <point x="929.789214784716" y="229.68768452380948"/>
      <point x="905.8624910714286" y="229.68768452380948" type="curve"/>
      <point x="851.3782229924028" y="229.68768452380948"/>
      <point x="815.7567326772595" y="283.28246741338796"/>
      <point x="815.7567319460802" y="469.07125" type="curve"/>
      <point x="815.7567311401367" y="673.8572311401367" type="line"/>
      <point x="738.7292653198242" y="673.8572311401367" type="line"/>
      <point x="738.7292653198242" y="603.8624038696289" type="line"/>
      <point x="690.9463885864844" y="656.0929025076463"/>
      <point x="622.2546367898553" y="688.8572321428571"/>
      <point x="545.9707500000001" y="688.8572321428571" type="curve"/>
      <point x="397.0718142699053" y="688.8572321428571"/>
      <point x="276.18476785714284" y="567.9701857300947"/>
      <point x="276.18476785714284" y="419.07125" type="curve" smooth="yes"/>
      <point x="276.18476785714284" y="270.17231426990526"/>
      <point x="397.0718142699052" y="149.28526785714288"/>
      <point x="545.97075" y="149.28526785714286" type="curve"/>
      <point x="635.4105219390012" y="149.28526785714286"/>
      <point x="714.6357847483956" y="193.36660630684025"/>
      <point x="763.0872517700195" y="260.9716033935547" type="curve"/>
      <point x="788.2792417172782" y="196.18210173928904"/>
      <point x="832.84256303736" y="154.28526785714286"/>
      <point x="899.3624910714286" y="154.2852678571429" type="curve"/>
      <point x="1020.8768106181924" y="154.28526785714286"/>
      <point x="1069.3995" y="275.406160701174"/>
      <point x="1069.3995" y="425.0" type="curve"/>
      <point x="1069.3995" y="709.2362353000002"/>
      <point x="838.6357353000002" y="940.0"/>
      <point x="554.3995" y="940.0" type="curve" smooth="yes"/>
      <point x="270.1632647" y="940.0"/>
      <point x="39.39949999999999" y="709.2362353000001"/>
      <point x="39.39949999999999" y="425.00000000000006" type="curve"/>
      <point x="39.3995" y="140.76376469999985"/>
      <point x="270.1632646999997" y="-89.99999999999997"/>
      <point x="554.3994999999999" y="-90.0" type="curve"/>
      <point x="645.584095891724" y="-90.0"/>
      <point x="734.2754319165489" y="-65.81771036252256"/>
      <point x="811.8995" y="-21.002723693847656" type="curve"/>
      <point x="811.8995" y="71.02559661865234" type="line"/>
      <point x="737.4660946070992" y="17.146962360325418"/>
      <point x="647.4553396674675" y="-12.387512500000025"/>
      <point x="554.3995000000001" y="-12.387512500000028" type="curve"/>
      <point x="312.998762290812" y="-12.387512499999891"/>
      <point x="117.01198749999993" y="183.59926229081213"/>
    </contour>
    <contour>
      <point x="737.7542321428572" y="419.07125" type="curve" smooth="yes"/>
      <point x="737.7542321428572" y="311.1083976083145"/>
      <point x="652.4572503134809" y="223.38764285714285"/>
      <point x="545.9707500000001" y="223.38764285714285" type="curve" smooth="yes"/>
      <point x="439.48424968651915" y="223.38764285714285"/>
      <point x="354.18726785714284" y="311.1083976083145"/>
      <point x="354.18726785714284" y="419.07125" type="curve" smooth="yes"/>
      <point x="354.18726785714284" y="527.0341023916856"/>
      <point x="439.48424968651915" y="614.7548571428572"/>
      <point x="545.9707500000001" y="614.7548571428572" type="curve" smooth="yes"/>
      <point x="652.4572503134809" y="614.7548571428572"/>
      <point x="737.7542321428572" y="527.0341023916856"/>
    </contour>
  </outline>
</glyph>
<glyph name="A" format="2">
  <advance width="816.322811340332"/>
  <unicode hex="0041"/>
  <anchor x="408.16140476190475" y="988.3581080780788" name="top" identifier="top"/>
  <anchor x="408.16140476190475" y="-161.4177927577586" name="below" identifier="below"/>
  <anchor x="812.9233095238095" y="0" name="ogonek" identifier="ogonek"/>
  <outline>
    <contour>
      <point x="3.399499999999989" y="0" type="line"/>
      <point x="83.99813281249997" y="0" type="line"/>
      <point x="186.10225115966796" y="219.98572540283203" type="line"/>
      <point x="625.9681721801758" y="219.98572540283203" type="line"/>
      <point x="728.0722828979492" y="0" type="line"/>
      <point x="812.923311340332" y="0" type="line"/>
      <point x="677.0263653869629" y="292.1120300292969" type="line"/>
      <point x="408.16140185546874" y="870" type="line"/>
      <point x="139.29014979553222" y="292.0984992980957" type="line"/>
    </contour>
    <contour>
      <point x="406.03521166992186" y="693.8364791870117" type="line"/>
      <point x="592.4852009887695" y="292.1255645751953" type="line"/>
      <point x="219.58521472167968" y="292.1255645751953" type="line"/>
    </contour>
  </outline>
</glyph>
<glyph name="C" format="2">
  <advance width="816.0572321166992"/>
  <unicode hex="0043"/>
  <anchor x="464.65772862112067" y="988.3581080780788" name="top" identifier="top"/>
  <anchor x="464.65772862112067" y="0" name="bottom" identifier="bottom"/>
  <outline>
    <contour>
      <point x="39.39949999999999" y="425.0" type="curve" smooth="yes"/>
      <point x="39.39949999999999" y="179.25529584540962"/>
      <point x="238.91302446653026" y="-15.0"/>
      <point x="484.65772862112067" y="-15.0" type="curve"/>
      <point x="585.7006774972358" y="-15.0"/>
      <point x="678.9231968150486" y="17.903262169466366"/>
      <point x="753.6577321166992" y="73.74042510986328" type="curve"/>
      <point x="753.6577321166992" y="166.13326263427734" type="line"/>
      <point x="683.5608035009038" y="99.89280285012434"/>
      <point x="588.8420154408423" y="59.360603621120575"/>
      <point x="484.65772862112067" y="59.36060362112062" type="curve"/>
      <point x="282.97936266186446" y="59.36060362112073"/>
      <point x="123.47205099224134" y="223.20140781933017"/>
      <point x="123.47205099224134" y="425.0" type="curve" smooth="yes"/>
      <point x="123.47205099224134" y="626.79859218067"/>
      <point x="282.97936266186457" y="790.6393963788794"/>
      <point x="484.65772862112067" y="790.6393963788794" type="curve"/>
      <point x="588.8418561985029" y="790.6393965226916"/>
      <point x="683.5605116523759" y="750.107322481103"/>
      <point x="753.6577321166992" y="683.8668365478516" type="curve"/>
      <point x="753.6577321166992" y="776.2557525634766" type="line"/>
      <point x="678.9231968150486" y="832.0967378305336"/>
      <point x="585.7006774972358" y="865.0"/>
      <point x="484.65772862112067" y="865.0" type="curve"/>
      <point x="238.91302446653032" y="865.0"/>
      <point x="39.39949999999999" y="670.7447041545904"/>
    </contour>
  </outline>
</glyph>
<glyph name="E" format="2">
  <advance width="653.8948633422851"/>
  <unicode hex="0045"/>
  <anchor x="341.88500967261905" y="988.3581080780788" name="top" identifier="top"/>
  <anchor x="339.4474315476191" y="-161.4177927577586" name="below" identifier="below"/>
  <anchor x="341.88500967261905" y="0" name="bottom" identifier="bottom"/>
  <anchor x="574.4953630952382" y="0" name="ogonek" identifier="ogonek"/>
  <outline>
    <contour>
      <point x="104.39949999999999" y="0" type="line"/>
      <point x="574.4953633422851" y="0" type="line"/>
      <point x="574.4953633422851" y="74.10237121582031" type="line"/>
      <point x="182.40200244140624" y="74.10237121582031" type="line"/>
      <point x="182.40200244140624" y="394.1376266479492" type="line"/>
      <point x="544.4953633422851" y="394.1376266479492" type="line"/>
      <point x="544.4953633422851" y="465.8623733520508" type="line"/>
      <point x="182.40200244140624" y="465.8623733520508" type="line"/>
      <point x="182.40200244140624" y="775.8976287841797" type="line"/>
      <point x="574.4953633422851" y="775.8976287841797" type="line"/>
      <point x="574.4953633422851" y="850" type="line"/>
      <point x="104.39949999999999" y="850" type="line"/>
    </contour>
  </outline>
</glyph>
<glyph name="F" format="2">
  <advance width="622.9424783935547"/>
  <unicode hex="0046"/>
  <anchor x="343.9088191964286" y="988.3581080780788" name="top" identifier="top"/>
  <anchor x="182.402" y="0" name="lefthook" identifier="lefthook"/>
  <outline>
    <contour>
      <point x="104.39949999999999" y="0" type="line"/>
      <point x="182.40200244140624" y="0" type="line"/>
      <point x="182.40200244140624" y="393.66587829589844" type="line"/>
      <point x="533.5429783935547" y="393.66587829589844" type="line"/>
      <point x="533.5429783935547" y="466.33412170410156" type="line"/>
      <point x="182.40200244140624" y="466.33412170410156" type="line"/>
      <point x="182.40200244140624" y="775.8976287841797" type="line"/>
      <point x="578.5429783935547" y="775.8976287841797" type="line"/>
      <point x="578.5429783935547" y="850" type="line"/>
      <point x="104.39949999999999" y="850" type="line"/>
    </contour>
  </outline>
</glyph>
<glyph name="H" format="2">
  <advance width="787.3237650146484"/>
  <unicode hex="0048"/>
  <anchor x="393.66188095238095" y="988.3581080780788" name="top" identifier="top"/>
  <anchor x="393.66188095238095" y="-161.4177927577586" name="below" identifier="below"/>
  <anchor x="393.66188095238095" y="656.02559375" name="stroke" identifier="stroke"/>
  <anchor x="144.500625" y="0" name="bottom" identifier="bottom"/>
  <outline>
    <contour>
      <point x="104.39949999999999" y="0" type="line"/>
      <point x="182.40200244140624" y="0" type="line"/>
      <point x="182.40200244140624" y="392.94881439208984" type="line"/>
      <point x="604.9217625732422" y="392.94881439208984" type="line"/>
      <point x="604.9217625732422" y="0" type="line"/>
      <point x="682.9242650146484" y="0" type="line"/>
      <point x="682.9242650146484" y="850" type="line"/>
      <point x="604.9217625732422" y="850" type="line"/>
      <point x="604.9217625732422" y="467.05118560791016" type="line"/>
      <point x="182.40200244140624" y="467.05118560791016" type="line"/>
      <point x="182.40200244140624" y="850" type="line"/>
      <point x="104.39949999999999" y="850" type="line"/>
    </contour>
  </outline>
</glyph>
<glyph name="I" format="2">
  <advance width="288.29123275862065"/>
  <unicode hex="0049"/>
  <anchor x="144.14561637931035" y="988.3581080780788" name="top" identifier="top"/>
  <anchor x="144.14561637931035" y="-161.4177927577586" name="below" identifier="below"/>
  <anchor x="183.89173275862066" y="0" name="ogonek" identifier="ogonek"/>
  <anchor x="144.14561637931035" y="425.0" name="stroke" identifier="stroke"/>
  <outline>
    <contour>
      <point x="104.39949999999999" y="0" type="line"/>
      <point x="183.89173275862066" y="0" type="line"/>
      <point x="183.89173275862066" y="850" type="line"/>
      <point x="104.39949999999999" y="850" type="line"/>
    </contour>
  </outline>
</glyph>
<glyph name="K" format="2">
  <advance width="702.5338175048828"/>
  <unicode hex="004B"/>
  <anchor x="345.69592431972785" y="988.3581080780788" name="top" identifier="top"/>
  <anchor x="352.7928779761905" y="0" name="bottom" identifier="bottom"/>
  <anchor x="352.7928779761905" y="-161.4177927577586" name="below" identifier="below"/>
  <outline>
    <contour>
      <point x="104.39949999999999" y="0" type="line"/>
      <point x="182.40200244140624" y="0" type="line"/>
      <point x="182.40200244140624" y="353.3003921508789" type="line"/>
      <point x="213.12803088378905" y="384.40362548828125" type="line"/>
      <point x="594.4433232421875" y="0" type="line"/>
      <point x="703.1343175048828" y="0" type="line"/>
      <point x="266.6744786376953" y="438.607421875" type="line"/>
      <point x="673.0778981323242" y="850" type="line"/>
      <point x="571.0031529541016" y="850" type="line"/>
      <point x="182.40200244140624" y="455.6450500488281" type="line"/>
      <point x="182.40200244140624" y="850" type="line"/>
      <point x="104.39949999999999" y="850" type="line"/>
    </contour>
  </outline>
</glyph>
<glyph name="L" format="2">
  <advance width="582.4662897338867"/>
  <unicode hex="004C"/>
  <anchor x="143.40074999999996" y="988.3581080780788" name="top" identifier="top"/>
  <anchor x="321.23314583333337" y="0" name="bottom" identifier="bottom"/>
  <anchor x="321.23314583333337" y="-161.4177927577586" name="below" identifier="below"/>
  <anchor x="282.3273002786124" y="850" name="right" identifier="right"/>
  <anchor x="143.40074999999996" y="425.0" name="stroke" identifier="stroke"/>
  <anchor x="397.4860427577586" y="464.00125" name="dotmiddle" identifier="dotmiddle"/>
  <outline>
    <contour>
      <point x="104.39949999999999" y="0" type="line"/>
      <point x="538.0667897338867" y="0" type="line"/>
      <point x="538.0667897338867" y="74.10237121582031" type="line"/>
      <point x="182.40200244140624" y="74.10237121582031" type="line"/>
      <point x="182.40200244140624" y="850" type="line"/>
      <point x="104.39949999999999" y="850" type="line"/>
    </contour>
  </outline>
</glyph>
<glyph name="M" format="2">
  <advance width="998.0847131958008"/>
  <unicode hex="004D"/>
  <anchor x="499.0423571428571" y="988.3581080780788" name="top" identifier="top"/>
  <anchor x="499.0423571428571" y="-161.4177927577586" name="below" identifier="below"/>
  <outline>
    <contour>
      <point x="104.39949999999999" y="0" type="line"/>
      <point x="178.5018712158203" y="0" type="line"/>
      <point x="178.5018712158203" y="659.2164077758789" type="line"/>
      <point x="496.5129567260742" y="274.2603302001953" type="line"/>
      <point x="815.6827107543945" y="660.6189956665039" type="line"/>
      <point x="815.6827107543945" y="0" type="line"/>
      <point x="893.6852131958008" y="0" type="line"/>
      <point x="893.6852131958008" y="870" type="line"/>
      <point x="499.04236041259765" y="392.2802734375" type="line"/>
      <point x="104.39949999999999" y="870" type="line"/>
    </contour>
  </outline>
</glyph>
<glyph name="N" format="2">
  <advance width="917.1323358764648"/>
  <unicode hex="004E"/>
  <anchor x="458.5661666666666" y="988.3581080780788" name="top" identifier="top"/>
  <anchor x="458.5661666666666" y="-161.4177927577586" name="below" identifier="below"/>
  <anchor x="458.5661666666666" y="0" name="bottom" identifier="bottom"/>
  <anchor x="812.7328333333332" y="0" name="right" identifier="right"/>
  <anchor x="178.50187499999998" y="0" name="lefthook" identifier="lefthook"/>
  <outline>
    <contour>
      <point x="178.5018712158203" y="674.0720138549805" type="line"/>
      <point x="812.7328358764648" y="-20" type="line"/>
      <point x="812.7328358764648" y="850" type="line"/>
      <point x="738.63045703125" y="850" type="line"/>
      <point x="738.63045703125" y="175.92798614501953" type="line"/>
      <point x="104.39949999999999" y="870" type="line"/>
      <point x="104.39949999999999" y="0" type="line"/>
      <point x="178.5018712158203" y="0" type="line"/>
    </contour>
  </outline>
</glyph>
<glyph name="O" format="2">
  <advance width="969.3154572422413"/>
  <unicode hex="004F"/>
  <anchor x="484.65772862112067" y="988.3581080780788" name="top" identifier="top"/>
  <anchor x="484.65772862112067" y="-161.4177927577586" name="below" identifier="below"/>
  <anchor x="484.65772862112067" y="425.0" name="stroke" identifier="stroke"/>
  <anchor x="740.3203125000001" y="714.665" name="horn" identifier="horn"/>
  <outline>
    <contour>
      <point x="929.9159572422413" y="425.0" type="curve" smooth="yes"/>
      <point x="929.9159572422413" y="670.7447041545904"/>
      <point x="730.4024327757111" y="865.0"/>
      <point x="484.65772862112067" y="865.0" type="curve" smooth="yes"/>
      <point x="238.91302446653026" y="865.0"/>
      <point x="39.39949999999999" y="670.7447041545904"/>
      <point x="39.39949999999999" y="425.0" type="curve" smooth="yes"/>
      <point x="39.39949999999999" y="179.2552958454096"/>
      <point x="238.91302446653026" y="-15.0"/>
      <point x="484.65772862112067" y="-15.0" type="curve" smooth="yes"/>
      <point x="730.4024327757111" y="-15.0"/>
      <point x="929.9159572422413" y="179.2552958454096"/>
    </contour>
    <contour>
      <point x="845.84340625" y="425.0" type="curve" smooth="yes"/>
      <point x="845.84340625" y="223.05622999835467"/>
      <point x="686.4714406828949" y="59.102374999999995"/>
      <point x="484.65772862112067" y="59.102374999999995" type="curve" smooth="yes"/>
      <point x="282.84401655934647" y="59.102374999999995"/>
      <point x="123.47205099224134" y="223.05622999835467"/>
      <point x="123.47205099224134" y="425.0" type="curve" smooth="yes"/>
      <point x="123.47205099224134" y="626.9437700016454"/>
      <point x="282.84401655934647" y="790.8976250000001"/>
      <point x="484.65772862112067" y="790.8976250000001" type="curve" smooth="yes"/>
      <point x="686.4714406828949" y="790.8976250000001"/>
      <point x="845.84340625" y="626.9437700016454"/>
    </contour>
  </outline>
</glyph>
<glyph name="Q" format="2">
  <advance width="968.0522653808594"/>
  <unicode hex="0051"/>
  <outline>
    <contour>
      <point x="929.9159572422413" y="425.0" type="curve" smooth="yes"/>
      <point x="929.9159572422413" y="670.7447041545904"/>
      <point x="730.4024327757111" y="865.0"/>
      <point x="484.65772862112067" y="865.0" type="curve" smooth="yes"/>
      <point x="238.91302446653026" y="865.0"/>
      <point x="39.39949999999999" y="670.7447041545904"/>
      <point x="39.39949999999999" y="425.0" type="curve" smooth="yes"/>
      <point x="39.39949999999999" y="179.2552958454096"/>
      <point x="238.91302446653026" y="-15.0"/>
      <point x="484.65772862112067" y="-15.0" type="curve" smooth="yes"/>
      <point x="593.2653378563543" y="-15.0"/>
      <point x="692.8429596139389" y="22.94242112762076"/>
      <point x="770.1585866088867" y="86.50410461425781" type="curve"/>
      <point x="856.6626912231445" y="0" type="line"/>
      <point x="962.6527653808594" y="0" type="line"/>
      <point x="823.8072529907226" y="138.84551239013672" type="line"/>
      <point x="889.9687336255193" y="215.38604571119726"/>
      <point x="929.9159572422412" y="315.0383374448745"/>
    </contour>
    <contour>
      <point x="845.84340625" y="425.0" type="curve" smooth="yes"/>
      <point x="845.84340625" y="223.06185516199446"/>
      <point x="685.2952940604152" y="59.102374999999995"/>
      <point x="484.65772862112067" y="59.102374999999995" type="curve" smooth="yes"/>
      <point x="284.02016318182615" y="59.102374999999995"/>
      <point x="123.47205099224134" y="223.06185516199446"/>
      <point x="123.47205099224134" y="425.0" type="curve" smooth="yes"/>
      <point x="123.47205099224134" y="626.9381448380055"/>
      <point x="284.02016318182615" y="790.8976250000001"/>
      <point x="484.65772862112067" y="790.8976250000001" type="curve" smooth="yes"/>
      <point x="685.2952940604152" y="790.8976250000001"/>
      <point x="845.84340625" y="626.9381448380055"/>
    </contour>
  </outline>
</glyph>
<glyph name="R" format="2">
  <advance width="680.5624201049804"/>
  <unicode hex="0052"/>
  <anchor x="343.95964880952386" y="988.3581080780788" name="top" identifier="top"/>
  <anchor x="343.95964880952386" y="0" name="bottom" identifier="bottom"/>
  <anchor x="343.95964880952386" y="-161.4177927577586" name="below" identifier="below"/>
  <outline>
    <contour>
      <point x="104.39949999999999" y="0" type="line"/>
      <point x="182.40200244140624" y="0" type="line"/>
      <point x="182.40200244140624" y="340.52782440185547" type="line"/>
      <point x="336.49417315673827" y="340.52782440185547" type="line"/>
      <point x="568.709802734375" y="0" type="line"/>
      <point x="661.1629201049805" y="0" type="line"/>
      <point x="422.7137623901367" y="348.6383361816406" type="line"/>
      <point x="532.4069726602249" y="377.02458713301394"/>
      <point x="613.5197976190477" y="476.7465361728367"/>
      <point x="613.5197976190477" y="595.2639107142857" type="curve" smooth="yes"/>
      <point x="613.5197976190477" y="667.4750635490768"/>
      <point x="583.9688037147646" y="850.0"/>
      <point x="308.7837083333334" y="850.0" type="curve"/>
      <point x="104.39949999999999" y="850" type="line"/>
    </contour>
    <contour>
      <point x="182.40200244140624" y="412.97493743896484" type="line"/>
      <point x="182.40200244140624" y="775.8976287841797" type="line"/>
      <point x="309.4833650340079" y="775.8976287841797" type="line"/>
      <point x="489.9372872517847" y="775.8976287841797"/>
      <point x="535.259068997927" y="682.2856750848438"/>
      <point x="535.259068997927" y="594.4362814039408" type="curve" smooth="yes"/>
      <point x="535.259068997927" y="506.5868877230378"/>
      <point x="489.9372900187118" y="412.9749380893913"/>
      <point x="309.48336744102295" y="412.9749377077375" type="curve"/>
    </contour>
  </outline>
</glyph>
<glyph name="T" format="2">
  <advance width="649.9662897338867"/>
  <unicode hex="0054"/>
  <anchor x="324.98314583333337" y="988.3581080780788" name="top" identifier="top"/>
  <anchor x="324.98314583333337" y="-161.4177927577586" name="below" identifier="below"/>
  <anchor x="324.98314583333337" y="0" name="bottom" identifier="bottom"/>
  <anchor x="324.98314583333337" y="405.499375" name="stroke" identifier="stroke"/>
  <outline>
    <contour>
      <point x="363.9843922729492" y="0" type="line"/>
      <point x="363.9843922729492" y="775.8976287841797" type="line"/>
      <point x="605.5667897338867" y="775.8976287841797" type="line"/>
      <point x="605.5667897338867" y="850" type="line"/>
      <point x="44.39949999999999" y="850" type="line"/>
      <point x="44.39949999999999" y="775.8976287841797" type="line"/>
      <point x="285.9818974609375" y="775.8976287841797" type="line"/>
      <point x="285.9818974609375" y="0" type="line"/>
    </contour>
  </outline>
</glyph>
<glyph name="U" format="2">
  <advance width="777.5258153692504"/>
  <unicode hex="0055"/>
  <anchor x="388.76290773809524" y="988.3581080780788" name="top" identifier="top"/>
  <anchor x="388.76290773809524" y="-161.4177927577586" name="below" identifier="below"/>
  <anchor x="693.1263154761905" y="714.665" name="horn" identifier="horn"/>
  <outline>
    <contour>
      <point x="84.39949999999999" y="336.0528869628906" type="line"/>
      <point x="84.3995" y="38.595134541545406"/>
      <point x="282.705377598759" y="-14.999999999999988"/>
      <point x="388.7629077380952" y="-15.0" type="curve" smooth="yes"/>
      <point x="494.82043787743135" y="-15.0"/>
      <point x="693.1263160054535" y="38.59513807537064"/>
      <point x="693.1263153692504" y="336.05289049671586" type="curve"/>
      <point x="693.1263142700195" y="850" type="line"/>
      <point x="615.1238118286133" y="850" type="line"/>
      <point x="615.1238118286133" y="337.41334533691406" type="line"/>
      <point x="615.1238118286133" y="89.21800200003182"/>
      <point x="461.66007178526525" y="59.10237499999998"/>
      <point x="388.76290773809524" y="59.102374999999995" type="curve" smooth="yes"/>
      <point x="315.8657436909252" y="59.10237500000004"/>
      <point x="162.4019991399096" y="89.218001901213"/>
      <point x="162.4020002169804" y="337.41334523809525" type="curve"/>
      <point x="162.40200244140624" y="850" type="line"/>
      <point x="84.39949999999999" y="850" type="line"/>
    </contour>
  </outline>
</glyph>
<glyph name="V" format="2">
  <advance width="798.2037622680664"/>
  <unicode hex="0056"/>
  <anchor x="399.10188095238095" y="988.3581080780788" name="top" identifier="top"/>
  <anchor x="399.10188095238095" y="-161.4177927577586" name="below" identifier="below"/>
  <outline>
    <contour>
      <point x="798.8042622680664" y="850" type="line"/>
      <point x="717.7743474121094" y="850" type="line"/>
      <point x="401.24466143798827" y="157.7582550048828" type="line"/>
      <point x="84.71496783447263" y="850" type="line"/>
      <point x="-0.6005000000000109" y="850" type="line"/>
      <point x="399.1018773193359" y="-20" type="line"/>
    </contour>
  </outline>
</glyph>
<glyph name="W" format="2">
  <advance width="1188.6085245361328"/>
  <unicode hex="0057"/>
  <anchor x="594.3042619047619" y="988.3581080780788" name="top" identifier="top"/>
  <anchor x="594.3042619047619" y="-161.4177927577586" name="below" identifier="below"/>
  <outline>
    <contour>
      <point x="1181.2090245361328" y="850" type="line"/>
      <point x="1102.7894536132812" y="850" type="line"/>
      <point x="871.1964818115234" y="188.38307189941406" type="line"/>
      <point x="596.3746739501953" y="849.8160629272461" type="line"/>
      <point x="321.55285845947265" y="188.38307189941406" type="line"/>
      <point x="89.95987902832029" y="850" type="line"/>
      <point x="7.399499999999989" y="850" type="line"/>
      <point x="312.71457873535155" y="-20" type="line"/>
      <point x="594.3042622680664" y="656.2168502807617" type="line"/>
      <point x="875.8939458007812" y="-20" type="line"/>
    </contour>
  </outline>
</glyph>
<glyph name="X" format="2">
  <advance width="745.2889978637695"/>
  <unicode hex="0058"/>
  <anchor x="372.6444978637695" y="988.3581080780788" name="top" identifier="top"/>
  <outline>
    <contour>
      <point x="714.8894978637695" y="0" type="line"/>
      <point x="423.98164569091796" y="432.09458923339844" type="line"/>
      <point x="705.3696080322266" y="850" type="line"/>
      <point x="616.5851842041016" y="850" type="line"/>
      <point x="377.35991107177733" y="492.3155212402344" type="line"/>
      <point x="138.1346379394531" y="850" type="line"/>
      <point x="44.66122637939452" y="850" type="line"/>
      <point x="323.67813311767577" y="435.6159896850586" type="line"/>
      <point x="30.39949999999999" y="0" type="line"/>
      <point x="119.19452868652343" y="0" type="line"/>
      <point x="370.30000506591796" y="375.4037857055664" type="line"/>
      <point x="621.405473815918" y="0" type="line"/>
    </contour>
  </outline>
</glyph>
<glyph name="Y" format="2">
  <advance width="716.8967401733398"/>
  <unicode hex="0059"/>
  <anchor x="358.448369047619" y="988.3581080780788" name="top" identifier="top"/>
  <anchor x="358.448369047619" y="-161.4177927577586" name="below" identifier="below"/>
  <outline>
    <contour>
      <point x="319.44712268066405" y="0" type="line"/>
      <point x="397.44961749267577" y="0" type="line"/>
      <point x="397.44961749267577" y="373.7377700805664" type="line"/>
      <point x="691.4972401733398" y="850" type="line"/>
      <point x="604.8967839355469" y="850" type="line"/>
      <point x="360.7345067138672" y="453.3224182128906" type="line"/>
      <point x="116.57222949218747" y="850" type="line"/>
      <point x="25.39949999999999" y="850" type="line"/>
      <point x="319.44712268066405" y="373.7377624511719" type="line"/>
    </contour>
  </outline>
</glyph>
<glyph name="Z" format="2">
  <advance width="695.1091501464844"/>
  <unicode hex="005A"/>
  <anchor x="349.0545744047619" y="988.3581080780788" name="top" identifier="top"/>
  <anchor x="349.0545744047619" y="-161.4177927577586" name="below" identifier="below"/>
  <anchor x="349.0545744047619" y="425.0" name="stroke" identifier="stroke"/>
  <outline>
    <contour>
      <point x="194.29854022216796" y="74.10237121582031" type="line"/>
      <point x="635.7096501464844" y="850" type="line"/>
      <point x="77.39949999999999" y="850" type="line"/>
      <point x="77.39949999999999" y="775.8976287841797" type="line"/>
      <point x="503.8106099243164" y="775.8976287841797" type="line"/>
      <point x="62.39949999999999" y="0" type="line"/>
      <point x="630.7096501464844" y="0" type="line"/>
      <point x="630.7096501464844" y="74.10237121582031" type="line"/>
    </contour>
  </outline>
</glyph>
<glyph name="bracketleft" format="2">
  <advance width="374.8015024414062"/>
  <unicode hex="005B"/>
  <outline>
    <contour>
      <point x="182.40200244140624" y="-20.39824676513672" type="line"/>
      <point x="182.40200244140624" y="870.3982467651367" type="line"/>
      <point x="332.40200244140624" y="870.3982467651367" type="line"/>
      <point x="332.40200244140624" y="944.5006256103516" type="line"/>
      <point x="104.39949999999999" y="944.5006256103516" type="line"/>
      <point x="104.39949999999999" y="-94.50062561035156" type="line"/>
      <point x="332.40200244140624" y="-94.50062561035156" type="line"/>
      <point x="332.40200244140624" y="-20.39824676513672" type="line"/>
    </contour>
  </outline>
</glyph>
<glyph name="backslash" format="2">
  <advance width="385.6616937866211"/>
  <unicode hex="005C"/>
  <outline>
    <contour>
      <point x="94.18401538085936" y="944.5006256103516" type="line"/>
      <point x="15.399499999999989" y="944.5006256103516" type="line"/>
      <point x="268.4776784057617" y="-7.62939453125e-06" type="line"/>
      <point x="347.2621937866211" y="0" type="line"/>
    </contour>
  </outline>
</glyph>
<glyph name="bracketright" format="2">
  <advance width="374.8015024414062"/>
  <unicode hex="005D"/>
  <outline>
    <contour>
      <point x="192.3995" y="-20.39824676513672" type="line"/>
      <point x="42.39949999999999" y="-20.39824676513672" type="line"/>
      <point x="42.39949999999999" y="-94.50062561035156" type="line"/>
      <point x="270.40200244140624" y="-94.50062561035156" type="line"/>
      <point x="270.40200244140624" y="944.5006256103516" type="line"/>
      <point x="42.39949999999999" y="944.5006256103516" type="line"/>
      <point x="42.39949999999999" y="870.3982467651367" type="line"/>
      <point x="192.3995" y="870.3982467651367" type="line"/>
    </contour>
  </outline>
</glyph>
<glyph name="power" format="2">
  <advance width="458.2275659790039"/>
  <unicode hex="005E"/>
  <outline>
    <contour>
      <point x="43.39949999999999" y="545" type="line"/>
      <point x="123.69115649414061" y="545" type="line"/>
      <point x="229.1137868041992" y="730.1943283081055" type="line"/>
      <point x="334.5364171142578" y="545" type="line"/>
      <point x="414.8280659790039" y="545" type="line"/>
      <point x="229.1137868041992" y="870" type="line"/>
    </contour>
  </outline>
</glyph>
<glyph name="underscore" format="2">
  <advance width="718.3709642857143"/>
  <unicode hex="005F"/>
  <outline>
    <contour>
      <point x="104.39949999999999" y="-180.4995" type="line"/>
      <point x="613.9714642857143" y="-180.4995" type="line"/>
      <point x="613.9714642857143" y="-104.39950000000002" type="line"/>
      <point x="104.39949999999999" y="-104.39950000000002" type="line"/>
    </contour>
  </outline>
</glyph>
<glyph name="grave" format="2">
  <advance width="409.36930487060545"/>
  <unicode hex="0060"/>
  <anchor x="259.0998192400632" y="988.3581080780788" name="center" identifier="center"/>
  <anchor x="259.0998192400632" y="903.0718580780788" name="bottom" identifier="bottom"/>
  <outline>
    <contour>
      <point x="224.6973286743164" y="903.0718612670898" type="line"/>
      <point x="304.96980487060546" y="903.0718612670898" type="line"/>
      <point x="194.06202136230468" y="1088.0718612670898" type="line"/>
      <point x="104.39949999999999" y="1088.0718612670898" type="line"/>
    </contour>
  </outline>
</glyph>
<glyph name="d" format="2">
  <advance width="780.2076033908608"/>
  <unicode hex="0064"/>
  <anchor x="355.39765097290643" y="755.9184177577586" name="top" identifier="top"/>
  <anchor x="373.969079544335" y="-161.4177927577586" name="below" identifier="below"/>
  <anchor x="373.969079544335" y="0" name="bottom" identifier="bottom"/>
  <anchor x="779.0439194165435" y="850" name="right" identifier="right"/>
  <anchor x="640.6338263801725" y="739.500625" name="stroke" identifier="stroke"/>
  <outline>
    <contour>
      <point x="598.8385141574623" y="0" type="line"/>
      <point x="675.8081033908608" y="0" type="line"/>
      <point x="675.8081033908608" y="869.5006256103516" type="line"/>
      <point x="598.8385141574623" y="869.5006256103516" type="line"/>
      <point x="598.8385141574623" y="499.99280548095703" type="line"/>
      <point x="542.8266350046246" y="566.9134041842958"/>
      <point x="458.6891431153664" y="609.500625"/>
      <point x="364.6833652586208" y="609.500625" type="curve"/>
      <point x="192.3477277901768" y="609.500625"/>
      <point x="54.3995" y="469.58594996844386"/>
      <point x="54.39949999999999" y="297.2503125" type="curve" smooth="yes"/>
      <point x="54.3995" y="124.91467503155613"/>
      <point x="192.34772779017686" y="-14.999999999999979"/>
      <point x="364.6833652586207" y="-15.0" type="curve"/>
      <point x="458.68914959005303" y="-15.0"/>
      <point x="542.8266361643607" y="27.587222202461504"/>
      <point x="598.8385141574623" y="94.52110290527344" type="curve"/>
    </contour>
    <contour>
      <point x="602.1490336224139" y="297.2503125" type="curve" smooth="yes"/>
      <point x="602.1490336224139" y="165.26763047525608"/>
      <point x="497.07099698115655" y="58.12110623974135"/>
      <point x="366.568306637931" y="58.12110623974135" type="curve" smooth="yes"/>
      <point x="236.06561629470553" y="58.12110623974135"/>
      <point x="130.98757965344822" y="165.26763047525608"/>
      <point x="130.98757965344822" y="297.2503125" type="curve" smooth="yes"/>
      <point x="130.98757965344822" y="429.23299452474396"/>
      <point x="236.06561629470553" y="536.3795187602586"/>
      <point x="366.568306637931" y="536.3795187602586" type="curve" smooth="yes"/>
      <point x="497.07099698115655" y="536.3795187602586"/>
      <point x="602.1490336224139" y="429.23299452474396"/>
    </contour>
  </outline>
</glyph>
<glyph name="h" format="2">
  <advance width="694.8257639160156"/>
  <unicode hex="0068"/>
  <anchor x="358.9128805803571" y="988.3581080780788" name="top" identifier="top"/>
  <anchor x="358.9128805803571" y="-161.4177927577586" name="below" identifier="below"/>
  <anchor x="142.8842927577586" y="988.3581080780788" name="stem" identifier="stem"/>
  <anchor x="142.8842927577586" y="739.500625" name="stroke" identifier="stroke"/>
  <anchor x="143.9841677577586" y="0" name="bottom" identifier="bottom"/>
  <outline>
    <contour>
      <point x="104.39949999999999" y="0" type="line"/>
      <point x="181.36908923339843" y="0" type="line"/>
      <point x="181.36908923339843" y="309.22775537429266" type="line"/>
      <point x="181.36908923339843" y="498.57976851767944"/>
      <point x="277.4050958914159" y="539.1804177218161"/>
      <point x="358.40326230053523" y="539.1804177218161" type="curve" smooth="yes"/>
      <point x="439.40142870965457" y="539.1804177218161"/>
      <point x="535.4374383386574" y="498.5797715367155"/>
      <point x="535.4374393414156" y="309.2277594329521" type="curve"/>
      <point x="535.4374409790039" y="0" type="line"/>
      <point x="613.4262639160156" y="0" type="line"/>
      <point x="613.4262639160156" y="309.95301818847656" type="line"/>
      <point x="613.4262639160156" y="584.7563327646973"/>
      <point x="433.56456511481184" y="609.500625"/>
      <point x="366.609833166564" y="609.500625" type="curve"/>
      <point x="293.3005763374056" y="609.500625"/>
      <point x="227.28758890825912" y="578.0131395672231"/>
      <point x="181.36908923339843" y="527.818962097168" type="curve"/>
      <point x="181.36908923339843" y="869.5006256103516" type="line"/>
      <point x="104.39949999999999" y="869.5006256103516" type="line"/>
    </contour>
  </outline>
</glyph>
<glyph name="i" format="2">
  <advance width="303.7685855155172"/>
  <unicode hex="0069"/>
  <anchor x="151.8842927577586" y="-161.4177927577586" name="below" identifier="below"/>
  <anchor x="191.48638508448272" y="0" name="ogonek" identifier="ogonek"/>
  <outline>
    <contour>
      <point x="210.3690855155172" y="755.9184177577586" type="curve" smooth="yes"/>
      <point x="210.3690855155172" y="788.1970533223528"/>
      <point x="184.1629283223528" y="814.4032105155172"/>
      <point x="151.8842927577586" y="814.4032105155172" type="curve" smooth="yes"/>
      <point x="119.60565719316439" y="814.4032105155172"/>
      <point x="93.39949999999999" y="788.1970533223528"/>
      <point x="93.39949999999999" y="755.9184177577586" type="curve" smooth="yes"/>
      <point x="93.39949999999997" y="723.6397821931644"/>
      <point x="119.60565719316439" y="697.433625"/>
      <point x="151.8842927577586" y="697.4336249999999" type="curve" smooth="yes"/>
      <point x="184.1629283223528" y="697.4336249999999"/>
      <point x="210.3690855155172" y="723.6397821931644"/>
    </contour>
    <contour>
      <point x="112.28220043103447" y="0" type="line"/>
      <point x="191.48638508448272" y="0" type="line"/>
      <point x="191.48638508448272" y="594.500625" type="line"/>
      <point x="112.28220043103447" y="594.500625" type="line"/>
    </contour>
  </outline>
</glyph>
<glyph name="j" format="2">
  <advance width="315.6546481375875"/>
  <unicode hex="006A"/>
  <outline>
    <contour>
      <point x="224.25514813758753" y="755.9184177577586" type="curve" smooth="yes"/>
      <point x="224.25514813758753" y="788.1970533223528"/>
      <point x="198.0489909444231" y="814.4032105155172"/>
      <point x="165.7703553798289" y="814.4032105155172" type="curve" smooth="yes"/>
      <point x="133.49171981523472" y="814.4032105155172"/>
      <point x="107.2855626220703" y="788.1970533223528"/>
      <point x="107.2855626220703" y="755.9184177577586" type="curve" smooth="yes"/>
      <point x="107.2855626220703" y="723.6397821931644"/>
      <point x="133.49171981523472" y="697.433625"/>
      <point x="165.7703553798289" y="697.4336249999999" type="curve" smooth="yes"/>
      <point x="198.0489909444231" y="697.4336249999999"/>
      <point x="224.25514813758753" y="723.6397821931644"/>
    </contour>
    <contour>
      <point x="24.370924923301857" y="-203.87951876025863" type="curve"/>
      <point x="-14.65188338217314" y="-203.87951876025863"/>
      <point x="-50.32131003948456" y="-189.71568294499406"/>
      <point x="-77.60050000000001" y="-166.2270278930664" type="curve"/>
      <point x="-77.60050000000001" y="-245.9757080078125" type="line"/>
      <point x="-48.242354644497" y="-265.543832774242"/>
      <point x="-12.63059212562257" y="-277.000625"/>
      <point x="25.742424923301854" y="-277.000625" type="curve"/>
      <point x="100.63550458773875" y="-277.000625"/>
      <point x="204.2551473728205" y="-241.94139482653048"/>
      <point x="204.2551483831927" y="-53.41047959068848" type="curve"/>
      <point x="204.25515185546874" y="594.5006256103516" type="line"/>
      <point x="127.2855626220703" y="594.5006256103516" type="line"/>
      <point x="127.2855626220703" y="-49.07109155201887" type="line"/>
      <point x="127.2855626220703" y="-108.63717965766288"/>
      <point x="122.12835519587986" y="-203.87951876025863"/>
    </contour>
  </outline>
</glyph>
<glyph name="k" format="2">
  <advance width="593.0613672485351"/>
  <unicode hex="006B"/>
  <anchor x="304.6157260841837" y="988.3581080780788" name="top" identifier="top"/>
  <anchor x="310.5044386160714" y="0" name="bottom" identifier="bottom"/>
  <anchor x="310.5044386160714" y="-161.4177927577586" name="below" identifier="below"/>
  <anchor x="142.8842927577586" y="988.3581080780788" name="stem" identifier="stem"/>
  <outline>
    <contour>
      <point x="104.39949999999999" y="0" type="line"/>
      <point x="181.36908923339843" y="0" type="line"/>
      <point x="181.36908923339843" y="234.24158477783203" type="line"/>
      <point x="211.17125140380858" y="262.07481384277344" type="line"/>
      <point x="490.66079913330077" y="0" type="line"/>
      <point x="601.6618672485351" y="0" type="line"/>
      <point x="266.430505859375" y="313.6832733154297" type="line"/>
      <point x="567.1129399414062" y="594.5006256103516" type="line"/>
      <point x="461.5714055175781" y="594.5006256103516" type="line"/>
      <point x="181.36908923339843" y="332.2091598510742" type="line"/>
      <point x="181.36908923339843" y="869.5006256103516" type="line"/>
      <point x="104.39949999999999" y="869.5006256103516" type="line"/>
    </contour>
  </outline>
</glyph>
<glyph name="l" format="2">
  <advance width="288.0031846534482"/>
  <unicode hex="006C"/>
  <anchor x="144.0015923267241" y="988.3581080780788" name="top" identifier="top"/>
  <anchor x="144.0015923267241" y="0" name="bottom" identifier="bottom"/>
  <anchor x="144.0015923267241" y="-161.4177927577586" name="below" identifier="below"/>
  <anchor x="283.5289849320607" y="850" name="right" identifier="right"/>
  <anchor x="144.0015923267241" y="434.7503125" name="stroke" identifier="stroke"/>
  <anchor x="396.45312827327587" y="434.7503125" name="dotmiddle" identifier="dotmiddle"/>
  <outline>
    <contour>
      <point x="104.39949999999999" y="0" type="line"/>
      <point x="183.60368465344823" y="0" type="line"/>
      <point x="183.60368465344823" y="869.500625" type="line"/>
      <point x="104.39949999999999" y="869.500625" type="line"/>
    </contour>
  </outline>
</glyph>
<glyph name="o" format="2">
  <advance width="733.299625"/>
  <unicode hex="006F"/>
  <anchor x="366.6498125" y="755.9184177577586" name="top" identifier="top"/>
  <anchor x="366.6498125" y="-161.4177927577586" name="below" identifier="below"/>
  <anchor x="366.6498125" y="297.2503125" name="stroke" identifier="stroke"/>
  <anchor x="555.4324144844828" y="459.16562500000003" name="horn" identifier="horn"/>
  <outline>
    <contour>
      <point x="678.900125" y="297.2503125" type="curve" smooth="yes"/>
      <point x="678.900125" y="469.58594996844374"/>
      <point x="538.9854499684437" y="609.500625"/>
      <point x="366.6498125" y="609.500625" type="curve" smooth="yes"/>
      <point x="194.31417503155626" y="609.500625"/>
      <point x="54.39949999999999" y="469.58594996844374"/>
      <point x="54.39949999999999" y="297.2503125" type="curve" smooth="yes"/>
      <point x="54.39949999999999" y="124.91467503155624"/>
      <point x="194.31417503155626" y="-15.0"/>
      <point x="366.6498125" y="-15.0" type="curve" smooth="yes"/>
      <point x="538.9854499684437" y="-15.0"/>
      <point x="678.900125" y="124.91467503155624"/>
    </contour>
    <contour>
      <point x="601.9305394844828" y="297.2503125" type="curve" smooth="yes"/>
      <point x="601.9305394844828" y="165.25257337849783"/>
      <point x="497.0275916896445" y="58.12110623974135"/>
      <point x="366.6498125" y="58.12110623974135" type="curve" smooth="yes"/>
      <point x="236.27203331035554" y="58.12110623974135"/>
      <point x="131.3690855155172" y="165.25257337849783"/>
      <point x="131.3690855155172" y="297.2503125" type="curve" smooth="yes"/>
      <point x="131.3690855155172" y="429.2480516215022"/>
      <point x="236.27203331035554" y="536.3795187602586"/>
      <point x="366.6498125" y="536.3795187602586" type="curve" smooth="yes"/>
      <point x="497.0275916896445" y="536.3795187602586"/>
      <point x="601.9305394844828" y="429.2480516215022"/>
    </contour>
  </outline>
</glyph>
<glyph name="q" format="2">
  <advance width="775.2076033908608"/>
  <unicode hex="0071"/>
  <outline>
    <contour>
      <point x="598.8385141574623" y="-269.50062561035156" type="line"/>
      <point x="675.8081033908608" y="-269.50062561035156" type="line"/>
      <point x="675.8081033908608" y="594.5006256103516" type="line"/>
      <point x="598.8385141574623" y="594.5006256103516" type="line"/>
      <point x="598.8385141574623" y="499.19049072265625" type="line"/>
      <point x="543.0883751896479" y="566.5604924010545"/>
      <point x="458.86090384984726" y="609.500625"/>
      <point x="364.68336525862065" y="609.500625" type="curve"/>
      <point x="192.34772779017663" y="609.500625"/>
      <point x="54.3995" y="469.58594996844386"/>
      <point x="54.39949999999999" y="297.2503125" type="curve" smooth="yes"/>
      <point x="54.3995" y="124.91467503155613"/>
      <point x="192.34772779017686" y="-14.999999999999979"/>
      <point x="364.6833652586207" y="-15.0" type="curve"/>
      <point x="458.8609038498473" y="-15.0"/>
      <point x="543.0883751896479" y="27.940132598945524"/>
      <point x="598.8385141574623" y="95.31036376953125" type="curve"/>
    </contour>
    <contour>
      <point x="602.1490336224139" y="297.2503125" type="curve" smooth="yes"/>
      <point x="602.1490336224139" y="165.26763047525608"/>
      <point x="497.07099698115655" y="58.12110623974135"/>
      <point x="366.568306637931" y="58.12110623974135" type="curve" smooth="yes"/>
      <point x="236.06561629470553" y="58.12110623974135"/>
      <point x="130.98757965344822" y="165.26763047525608"/>
      <point x="130.98757965344822" y="297.2503125" type="curve" smooth="yes"/>
      <point x="130.98757965344822" y="429.23299452474396"/>
      <point x="236.06561629470553" y="536.3795187602586"/>
      <point x="366.568306637931" y="536.3795187602586" type="curve" smooth="yes"/>
      <point x="497.07099698115655" y="536.3795187602586"/>
      <point x="602.1490336224139" y="429.23299452474396"/>
    </contour>
  </outline>
</glyph>
<glyph name="r" format="2">
  <advance width="450.57369635009763"/>
  <unicode hex="0072"/>
  <anchor x="260.7868500627537" y="755.9184177577586" name="top" identifier="top"/>
  <anchor x="143.8842927577586" y="0" name="bottom" identifier="bottom"/>
  <anchor x="182.3690855155172" y="-161.4177927577586" name="below" identifier="below"/>
  <outline>
    <contour>
      <point x="105.39949999999999" y="0" type="line"/>
      <point x="182.36908923339843" y="0" type="line"/>
      <point x="182.36908923339843" y="339.2044848499503" type="line"/>
      <point x="182.36908923339843" y="379.77913956249404"/>
      <point x="184.83854314091025" y="527.7010812602587"/>
      <point x="327.90901199007754" y="527.7010812602587" type="curve"/>
      <point x="359.9677248580926" y="527.7010812602587"/>
      <point x="389.9614782368886" y="519.6677083690404"/>
      <point x="416.17419635009765" y="505.46495056152344" type="curve"/>
      <point x="416.17419635009765" y="582.7937240600586" type="line"/>
      <point x="384.71618310297123" y="596.405069538096"/>
      <point x="354.22033365665175" y="600.8221875"/>
      <point x="328.6166347521551" y="600.8221875" type="curve"/>
      <point x="271.2515748361925" y="600.8221875"/>
      <point x="219.39499646495392" y="577.049993606999"/>
      <point x="182.36908923339843" y="538.8114395141602" type="curve"/>
      <point x="182.36908923339843" y="594.5006256103516" type="line"/>
      <point x="105.39949999999999" y="594.5006256103516" type="line"/>
    </contour>
  </outline>
</glyph>
<glyph name="u" format="2">
  <advance width="703.8257639160156"/>
  <unicode hex="0075"/>
  <anchor x="343.9128805803571" y="755.9184177577586" name="top" identifier="top"/>
  <anchor x="343.9128805803571" y="-161.4177927577586" name="below" identifier="below"/>
  <anchor x="598.4262611607143" y="0" name="ogonek" identifier="ogonek"/>
  <anchor x="597.4641413417703" y="459.16562500000003" name="horn" identifier="horn"/>
  <outline>
    <contour>
      <point x="89.39949999999999" y="284.547607421875" type="line"/>
      <point x="89.3995" y="11.21875778351506"/>
      <point x="266.08411930830584" y="-14.999999999999991"/>
      <point x="335.3055357527709" y="-15.0" type="curve"/>
      <point x="409.3969398917375" y="-15.0"/>
      <point x="475.95142283382535" y="17.526079918664216"/>
      <point x="521.4566746826172" y="69.08119201660156" type="curve"/>
      <point x="521.4566746826172" y="0" type="line"/>
      <point x="598.4262639160156" y="0" type="line"/>
      <point x="598.4262639160156" y="594.5006256103516" type="line"/>
      <point x="520.9470540161133" y="594.5006256103516" type="line"/>
      <point x="520.9470540161133" y="285.2728710099632" type="line"/>
      <point x="520.9470540161133" y="95.92085786657637"/>
      <point x="424.91104698947646" y="55.32020727818397"/>
      <point x="343.9128805803571" y="55.32020727818397" type="curve" smooth="yes"/>
      <point x="262.9147141712378" y="55.32020727818398"/>
      <point x="166.87870439682825" y="95.92085346328454"/>
      <point x="166.87870358928836" y="285.2728655670479" type="curve"/>
      <point x="166.8787022705078" y="594.5006256103516" type="line"/>
      <point x="89.39949999999999" y="594.5006256103516" type="line"/>
    </contour>
  </outline>
</glyph>
<glyph name="v" format="2">
  <advance width="674.3271219482422"/>
  <unicode hex="0076"/>
  <anchor x="337.1635609375" y="755.9184177577586" name="top" identifier="top"/>
  <anchor x="337.1635609375" y="-161.4177927577586" name="below" identifier="below"/>
  <outline>
    <contour>
      <point x="632.9276219482422" y="594.5006256103516" type="line"/>
      <point x="552.2003117675781" y="594.5006256103516" type="line"/>
      <point x="339.2938405151367" y="150.9593276977539" type="line"/>
      <point x="126.38736926269529" y="594.5006256103516" type="line"/>
      <point x="41.39949999999999" y="594.5006256103516" type="line"/>
      <point x="337.1635609741211" y="-20" type="line"/>
    </contour>
  </outline>
</glyph>
<glyph name="w" format="2">
  <advance width="946.7776605834961"/>
  <unicode hex="0077"/>
  <anchor x="473.38883035714287" y="755.9184177577586" name="top" identifier="top"/>
  <anchor x="473.38883035714287" y="-161.4177927577586" name="below" identifier="below"/>
  <outline>
    <contour>
      <point x="905.3781605834961" y="594.5006256103516" type="line"/>
      <point x="827.3211537475586" y="594.5006256103516" type="line"/>
      <point x="665.500688659668" y="169.0084228515625" type="line"/>
      <point x="475.42704974365233" y="590.1986694335938" type="line"/>
      <point x="285.3534108276367" y="169.0084228515625" type="line"/>
      <point x="123.53294573974607" y="594.5006256103516" type="line"/>
      <point x="41.39949999999999" y="594.5006256103516" type="line"/>
      <point x="275.7319508666992" y="-20" type="line"/>
      <point x="473.3888341064453" y="416.81754302978516" type="line"/>
      <point x="671.0457097167969" y="-20" type="line"/>
    </contour>
  </outline>
</glyph>
<glyph name="x" format="2">
  <advance width="625.2775690307617"/>
  <unicode hex="0078"/>
  <anchor x="312.638783316476" y="755.9184177577586" name="top" identifier="top"/>
  <outline>
    <contour>
      <point x="587.8780690307617" y="0" type="line"/>
      <point x="363.2399083251953" y="307.5814971923828" type="line"/>
      <point x="572.8355885620117" y="594.5006256103516" type="line"/>
      <point x="483.42168627929686" y="594.5006256103516" type="line"/>
      <point x="313.60576068115233" y="359.8876419067383" type="line"/>
      <point x="143.78982745361327" y="594.5006256103516" type="line"/>
      <point x="49.647707092285145" y="594.5006256103516" type="line"/>
      <point x="260.64068041992186" y="305.66871643066406" type="line"/>
      <point x="37.39949999999999" y="0" type="line"/>
      <point x="126.83424578857421" y="0" type="line"/>
      <point x="310.2746754760742" y="253.37866973876953" type="line"/>
      <point x="493.7150975341797" y="0" type="line"/>
    </contour>
  </outline>
</glyph>
<glyph name="y" format="2">
  <advance width="687.7185251464844"/>
  <unicode hex="0079"/>
  <anchor x="344.85241844656804" y="755.9184177577586" name="top" identifier="top"/>
  <anchor x="495.5857212367466" y="-161.4177927577586" name="below" identifier="below"/>
  <outline>
    <contour>
      <point x="346.9691105957031" y="116.82637786865234" type="line"/>
      <point x="126.4017277832031" y="594.5006256103516" type="line"/>
      <point x="41.39949999999999" y="594.5006256103516" type="line"/>
      <point x="304.7687932128906" y="25.56854248046875" type="line"/>
      <point x="168.54050646972655" y="-269.50062561035156" type="line"/>
      <point x="248.97473345947265" y="-269.50062561035156" type="line"/>
      <point x="646.3190251464844" y="594.5006256103516" type="line"/>
      <point x="566.0927220458984" y="594.5006256103516" type="line"/>
    </contour>
  </outline>
</glyph>
<glyph name="z" format="2">
  <advance width="608.3117258300781"/>
  <unicode hex="007A"/>
  <anchor x="303.65586160714287" y="755.9184177577586" name="top" identifier="top"/>
  <anchor x="303.65586160714287" y="-161.4177927577586" name="below" identifier="below"/>
  <anchor x="303.65586160714287" y="297.2503125" name="stroke" identifier="stroke"/>
  <outline>
    <contour>
      <point x="203.78061877441405" y="73.12110900878906" type="line"/>
      <point x="542.9122258300781" y="594.5006256103516" type="line"/>
      <point x="84.3652745361328" y="594.5006256103516" type="line"/>
      <point x="84.3652745361328" y="521.3795166015625" type="line"/>
      <point x="403.5310994262695" y="521.3795166015625" type="line"/>
      <point x="64.39949999999999" y="0" type="line"/>
      <point x="537.9464436645508" y="0" type="line"/>
      <point x="537.9464436645508" y="73.12110900878906" type="line"/>
    </contour>
  </outline>
</glyph>
<glyph name="braceleft" format="2">
  <advance width="368.6305216267903"/>
  <unicode hex="007B"/>
  <outline>
    <contour>
      <point x="301.2310200805664" y="-27.827056884765625" type="line" smooth="yes"/>
      <point x="277.6278766708721" y="-27.82705826313349"/>
      <point x="219.92366864216444" y="-18.241531146101423"/>
      <point x="219.92366904029308" y="78.86235330910202" type="curve"/>
      <point x="219.923669758399" y="254.00894517007703" type="line"/>
      <point x="219.92367000214267" y="313.4582132861169"/>
      <point x="219.92032302856995" y="378.657247145787"/>
      <point x="148.74125872802733" y="424.99344635009766" type="curve"/>
      <point x="219.90387050263365" y="471.3407087147677"/>
      <point x="219.92366886775488" y="536.4938867374602"/>
      <point x="219.9236691116949" y="595.9910445280007" type="curve"/>
      <point x="219.92366982980082" y="771.1376452680378" type="line"/>
      <point x="219.92367022792945" y="868.2415301724452"/>
      <point x="277.627878217096" y="877.8270595238096"/>
      <point x="301.2310216267903" y="877.8270595238096" type="curve"/>
      <point x="301.2310200805664" y="944.5006256103516" type="line"/>
      <point x="292.82718096923827" y="944.5006256103516" type="line"/>
      <point x="265.79803277810265" y="944.5006254122748"/>
      <point x="141.9211698741413" y="943.4047613140843"/>
      <point x="141.92116871044988" y="755.1246429125796" type="curve"/>
      <point x="141.9211676359485" y="581.2750825729945" type="line"/>
      <point x="141.92116697260724" y="473.94939888665334"/>
      <point x="79.4768018630892" y="458.62243749999993"/>
      <point x="45.39950079345702" y="458.62243749999993" type="curve"/>
      <point x="45.39949999999999" y="391.3775634765625" type="line" smooth="yes"/>
      <point x="79.47680106963212" y="391.3775628531023"/>
      <point x="141.9211694560804" y="376.05060483358477"/>
      <point x="141.92116879273914" y="268.72492393126925" type="curve"/>
      <point x="141.9211677182377" y="94.87535963847628" type="line"/>
      <point x="141.92116655454635" y="-93.40475767511197"/>
      <point x="265.79803042254923" y="-94.50062500000013"/>
      <point x="292.8271808529808" y="-94.50062500000013" type="curve" smooth="yes"/>
      <point x="301.2310200805664" y="-94.50062561035156" type="line"/>
    </contour>
  </outline>
</glyph>
<glyph name="bar" format="2">
  <advance width="284.899"/>
  <unicode hex="007C"/>
  <outline>
    <contour>
      <point x="104.39949999999999" y="-94.500625" type="line"/>
      <point x="180.4995" y="-94.500625" type="line"/>
      <point x="180.4995" y="944.500625" type="line"/>
      <point x="104.39949999999999" y="944.500625" type="line"/>
    </contour>
  </outline>
</glyph>
<glyph name="braceright" format="2">
  <advance width="368.6305216267903"/>
  <unicode hex="007D"/>
  <outline>
    <contour>
      <point x="67.39949999999999" y="-27.827059523809567" type="curve"/>
      <point x="67.39950154622392" y="-94.50062561035156" type="line"/>
      <point x="75.80334065755204" y="-94.50062561035156" type="line"/>
      <point x="102.83248884868766" y="-94.50062541227477"/>
      <point x="226.7093517526489" y="-93.40476131408431"/>
      <point x="226.70935291634038" y="94.87535708742041" type="curve"/>
      <point x="226.70935399084175" y="268.72491742700544" type="line"/>
      <point x="226.70935465418307" y="376.0506011133466"/>
      <point x="289.15371976370113" y="391.37756250000007"/>
      <point x="323.2310208333333" y="391.37756250000007" type="curve"/>
      <point x="323.2310216267903" y="458.6224365234375" type="line" smooth="yes"/>
      <point x="289.1537205571582" y="458.6224371468977"/>
      <point x="226.7093521707099" y="473.94939516641523"/>
      <point x="226.70935283405117" y="581.2750760687308" type="curve"/>
      <point x="226.70935390855254" y="755.1246403615237" type="line"/>
      <point x="226.70935507224397" y="943.4047576751119"/>
      <point x="102.83249120424108" y="944.5006250000001"/>
      <point x="75.80334077380951" y="944.5006250000001" type="curve" smooth="yes"/>
      <point x="67.39950154622392" y="944.5006256103516" type="line"/>
      <point x="67.39950154622392" y="877.8270568847656" type="line" smooth="yes"/>
      <point x="91.00264495591819" y="877.8270582631335"/>
      <point x="148.70685298462587" y="868.2415311461015"/>
      <point x="148.7068525864972" y="771.137646690898" type="curve"/>
      <point x="148.70685186839128" y="595.9910548299231" type="line"/>
      <point x="148.7068516246476" y="536.5417867138831"/>
      <point x="148.71019859822033" y="471.342752854213"/>
      <point x="219.88926289876298" y="425.00655364990234" type="curve"/>
      <point x="148.72665112415666" y="378.6592912852323"/>
      <point x="148.70685275903546" y="313.50611326253966"/>
      <point x="148.70685251509545" y="254.00895547199912" type="curve"/>
      <point x="148.70685179698953" y="78.86235473196226" type="line"/>
      <point x="148.7068513988609" y="-18.241530172445223"/>
      <point x="91.00264340969431" y="-27.827059523809567"/>
    </contour>
  </outline>
</glyph>
<glyph name="tilde" format="2">
  <advance width="758.8002512207031"/>
  <unicode hex="007E"/>
  <outline>
    <contour>
      <point x="253.2785817260742" y="434.4804372947665" type="curve"/>
      <point x="289.41117251045046" y="434.4804372947664"/>
      <point x="313.40447049250344" y="422.3667811485302"/>
      <point x="358.49354644679454" y="395.8002615083291" type="curve"/>
      <point x="362.8013987440678" y="393.26207148690094" type="line"/>
      <point x="409.3551649956124" y="365.8325551512642"/>
      <point x="451.73291090246613" y="339.41956270523366"/>
      <point x="514.5216718600028" y="339.41956270523366" type="curve"/>
      <point x="578.6612403302056" y="339.41956270523366"/>
      <point x="636.6984203095469" y="365.7547988746501"/>
      <point x="678.4007512207031" y="408.212890625" type="curve"/>
      <point x="678.4007512207031" y="510.6077651977539" type="line"/>
      <point x="645.8328936426061" y="453.79835585964383"/>
      <point x="584.6122574114481" y="415.51956270523357"/>
      <point x="514.5216718600027" y="415.51956270523357" type="curve"/>
      <point x="478.38908107562645" y="415.51956270523374"/>
      <point x="454.39578300317305" y="427.6332166829564"/>
      <point x="409.30670823166236" y="454.1997383305892" type="curve"/>
      <point x="404.998856047393" y="456.7379285438092" type="line"/>
      <point x="358.44509101705074" y="484.16744695208786"/>
      <point x="316.0673426836109" y="510.58043729476645"/>
      <point x="253.2785817260742" y="510.58043729476645" type="curve"/>
      <point x="189.1390132558714" y="510.58043729476645"/>
      <point x="131.1018321150824" y="484.2451999428538"/>
      <point x="89.39949999999999" y="441.787109375" type="curve"/>
      <point x="89.39949999999999" y="339.39222717285156" type="line"/>
      <point x="121.96735606647081" y="396.20163737755087"/>
      <point x="183.1879961746288" y="434.48043729476643"/>
    </contour>
  </outline>
</glyph>
<glyph name="inv_exclamation" format="2">
  <advance width="321.47836047619046"/>
  <unicode hex="00A1"/>
  <outline>
    <contour>
      <point x="84.39949999999999" y="533.1609447619048" type="curve" smooth="yes"/>
      <point x="84.39949999999999" y="491.02792861650283"/>
      <point x="118.60616409269328" y="456.82126452380953"/>
      <point x="160.73918023809523" y="456.82126452380953" type="curve" smooth="yes"/>
      <point x="202.87219638349717" y="456.82126452380953"/>
      <point x="237.07886047619047" y="491.02792861650283"/>
      <point x="237.07886047619047" y="533.1609447619047" type="curve" smooth="yes"/>
      <point x="237.07886047619047" y="575.2939609073067"/>
      <point x="202.87219638349717" y="609.500625"/>
      <point x="160.73918023809523" y="609.500625" type="curve" smooth="yes"/>
      <point x="118.60616409269333" y="609.500625"/>
      <point x="84.39950000000002" y="575.2939609073068"/>
    </contour>
    <contour>
      <point x="129.78657403692335" y="367.42176818847656" type="line"/>
      <point x="110.19044366582962" y="-270.49937438964844" type="line"/>
      <point x="211.28791681036085" y="-270.49937438964844" type="line"/>
      <point x="191.6917864392671" y="367.42176818847656" type="line"/>
    </contour>
  </outline>
</glyph>
<glyph name="cent" format="2">
  <advance width="595.0614130249023"/>
  <unicode hex="00A2"/>
  <outline>
    <contour>
      <point x="311.4369450683593" y="0" type="line"/>
      <point x="389.43944750976556" y="0" type="line"/>
      <point x="389.43944750976556" y="114.02253723144531" type="line"/>
      <point x="449.2192018796886" y="119.21729670516106"/>
      <point x="504.1955265340661" y="140.2180523688182"/>
      <point x="549.6619130249023" y="173.0069808959961" type="curve"/>
      <point x="549.6619130249023" y="261.3034133911133" type="line"/>
      <point x="500.3081567673839" y="215.17021424056105"/>
      <point x="433.5857500872142" y="186.85206250000005"/>
      <point x="360.18850669642853" y="186.85206250000005" type="curve"/>
      <point x="228.78183317524804" y="186.85206249999996"/>
      <point x="122.15199999999994" y="293.5625763117287"/>
      <point x="122.15199999999994" y="425.0" type="curve" smooth="yes"/>
      <point x="122.15199999999994" y="556.4374236882713"/>
      <point x="228.7818331752481" y="663.1479374999999"/>
      <point x="360.1885066964285" y="663.1479374999999" type="curve"/>
      <point x="433.5857543456414" y="663.1479358299192"/>
      <point x="500.3081629866991" y="634.8297825584601"/>
      <point x="549.6619130249023" y="588.7016906738281" type="curve"/>
      <point x="549.6619130249023" y="676.9922485351562" type="line"/>
      <point x="504.1955265076122" y="709.7823776096491"/>
      <point x="449.21920187631184" y="730.7833882075104"/>
      <point x="389.43944750976556" y="735.9785537719727" type="curve"/>
      <point x="389.43944750976556" y="850" type="line"/>
      <point x="311.4369450683593" y="850" type="line"/>
      <point x="311.4369450683593" y="733.563117980957" type="line"/>
      <point x="160.25546128022978" y="710.507988875532"/>
      <point x="44.39949999999992" y="581.8228928581509"/>
      <point x="44.39949999999999" y="425.0" type="curve" smooth="yes"/>
      <point x="44.39949999999996" y="268.1771071418491"/>
      <point x="160.25546128022978" y="139.492011124468"/>
      <point x="311.4369450683593" y="116.43742370605469" type="curve"/>
    </contour>
  </outline>
</glyph>
<glyph name="pound" format="2">
  <advance width="679.9662897338867"/>
  <unicode hex="00A3"/>
  <outline>
    <contour>
      <point x="45.39949999999999" y="0" type="line"/>
      <point x="606.5667897338867" y="0" type="line"/>
      <point x="606.5667897338867" y="74.10237121582031" type="line"/>
      <point x="183.35993395996093" y="74.10237121582031" type="line"/>
      <point x="223.4020002126698" y="118.3130135087338"/>
      <point x="223.4019998815092" y="168.0417791051615"/>
      <point x="223.40200047009023" y="217.51981873137623" type="curve"/>
      <point x="223.40200244140624" y="383.2350616455078" type="line"/>
      <point x="461.9567814941406" y="383.2350616455078" type="line"/>
      <point x="461.9567814941406" y="457.33744049072266" type="line"/>
      <point x="223.40200244140624" y="457.33744049072266" type="line"/>
      <point x="223.40200244140624" y="534.4163513183594" type="line"/>
      <point x="223.40200244140624" y="755.6857517658112"/>
      <point x="348.5098957173054" y="790.8976250000001"/>
      <point x="426.6452492816092" y="790.8976250000001" type="curve"/>
      <point x="491.4745403777904" y="790.8976250000001"/>
      <point x="550.0267220227068" y="763.3216798723819"/>
      <point x="591.5667897338867" y="719.0788345336914" type="curve"/>
      <point x="591.5667897338867" y="810.8858489990234" type="line"/>
      <point x="545.1423645256496" y="844.9071765567652"/>
      <point x="487.8907049601603" y="865.0"/>
      <point x="425.98314583333337" y="865.0" type="curve"/>
      <point x="333.0801601945852" y="865.0"/>
      <point x="145.3995" y="819.2405549343015"/>
      <point x="145.3995" y="534.4163541666667" type="curve"/>
      <point x="145.3995" y="457.33744049072266" type="line"/>
      <point x="45.39949999999999" y="457.33744049072266" type="line"/>
      <point x="45.39949999999999" y="383.2350616455078" type="line"/>
      <point x="145.3995" y="383.2350616455078" type="line"/>
      <point x="145.3995" y="206.2037348752571" type="line"/>
      <point x="145.3995" y="96.51376931729232"/>
      <point x="89.08133418734202" y="74.10237499999998"/>
      <point x="45.39949999999999" y="74.10237499999998" type="curve"/>
    </contour>
  </outline>
</glyph>
<glyph name="currency" format="2">
  <advance width="718.3267404785156"/>
  <unicode hex="00A4"/>
  <outline>
    <contour>
      <point x="133.2103215332031" y="145.2361297607422" type="line"/>
      <point x="205.95012103271483" y="217.9759292602539" type="line"/>
      <point x="248.78201812229514" y="186.19811159279627"/>
      <point x="301.7952287102561" y="167.40413690476186"/>
      <point x="359.16337023925774" y="167.40413690476186" type="curve" smooth="yes"/>
      <point x="416.53279130749286" y="167.40413690476186"/>
      <point x="469.5470871677303" y="186.1989499639027"/>
      <point x="512.379495727539" y="217.97305297851562" type="curve"/>
      <point x="585.1164189453125" y="145.2361297607422" type="line"/>
      <point x="638.9272404785156" y="199.0469512939453" type="line"/>
      <point x="566.1874409790039" y="271.78675079345703" type="line"/>
      <point x="597.9588306567867" y="314.6005177721911"/>
      <point x="616.759233334496" y="367.622048670209"/>
      <point x="616.759233334496" y="424.99999999999994" type="curve" smooth="yes"/>
      <point x="616.759233334496" y="482.3762452774798"/>
      <point x="597.9599486469851" y="535.3963291833475"/>
      <point x="566.1903172607422" y="578.2161254882812" type="curve"/>
      <point x="638.9272404785156" y="650.9530487060547" type="line"/>
      <point x="585.1164189453125" y="704.7638702392578" type="line"/>
      <point x="512.3766194458008" y="632.0240707397461" type="line"/>
      <point x="469.54472235622046" y="663.8018884072037"/>
      <point x="416.53151176825946" y="682.5958630952381"/>
      <point x="359.1633702392578" y="682.5958630952382" type="curve" smooth="yes"/>
      <point x="301.79394917102275" y="682.5958630952382"/>
      <point x="248.7796533107853" y="663.8010500360973"/>
      <point x="205.94724475097655" y="632.0269470214844" type="curve"/>
      <point x="133.2103215332031" y="704.7638702392578" type="line"/>
      <point x="79.39949999999999" y="650.9530487060547" type="line"/>
      <point x="152.1392994995117" y="578.213249206543" type="line"/>
      <point x="120.36790982172892" y="535.3994822278089"/>
      <point x="101.56750714401966" y="482.377951329791"/>
      <point x="101.56750714401966" y="425.00000000000006" type="curve" smooth="yes"/>
      <point x="101.56750714401966" y="367.6237547225202"/>
      <point x="120.36679183153049" y="314.6036708166526"/>
      <point x="152.13642321777343" y="271.78387451171875" type="curve"/>
      <point x="79.39949999999999" y="199.0469512939453" type="line"/>
    </contour>
    <contour>
      <point x="540.659233334496" y="425.0" type="curve" smooth="yes"/>
      <point x="540.6592333344959" y="324.8297070898743"/>
      <point x="459.33366314938337" y="243.50413690476182"/>
      <point x="359.1633702392578" y="243.50413690476185" type="curve" smooth="yes"/>
      <point x="258.9930773291321" y="243.50413690476185"/>
      <point x="177.66750714401965" y="324.82970708987443"/>
      <point x="177.66750714401965" y="425.0" type="curve" smooth="yes"/>
      <point x="177.66750714401965" y="525.1702929101257"/>
      <point x="258.9930773291322" y="606.4958630952382"/>
      <point x="359.1633702392578" y="606.4958630952382" type="curve" smooth="yes"/>
      <point x="459.3336631493834" y="606.4958630952382"/>
      <point x="540.659233334496" y="525.1702929101257"/>
    </contour>
  </outline>
</glyph>
<glyph name="yen" format="2">
  <advance width="726.8967401733398"/>
  <unicode hex="00A5"/>
  <outline>
    <contour>
      <point x="125.55632220458982" y="250.59686279296875" type="line"/>
      <point x="324.44712268066405" y="250.59686279296875" type="line"/>
      <point x="324.44712268066405" y="0" type="line"/>
      <point x="402.44961749267577" y="0" type="line"/>
      <point x="402.44961749267577" y="250.59686279296875" type="line"/>
      <point x="601.34041796875" y="250.59686279296875" type="line"/>
      <point x="601.34041796875" y="321.5691833496094" type="line"/>
      <point x="402.44961749267577" y="321.5691833496094" type="line"/>
      <point x="402.44961749267577" y="373.7377700805664" type="line"/>
      <point x="410.4921971435547" y="386.76415252685547" type="line"/>
      <point x="601.34041796875" y="386.76415252685547" type="line"/>
      <point x="601.34041796875" y="457.7364730834961" type="line"/>
      <point x="454.3109990234375" y="457.7364730834961" type="line"/>
      <point x="696.4972401733398" y="850" type="line"/>
      <point x="609.8967839355469" y="850" type="line"/>
      <point x="365.7345067138672" y="453.3224182128906" type="line"/>
      <point x="121.57222949218747" y="850" type="line"/>
      <point x="30.39949999999999" y="850" type="line"/>
      <point x="272.5857335205078" y="457.7364730834961" type="line"/>
      <point x="125.55632220458982" y="457.7364730834961" type="line"/>
      <point x="125.55632220458982" y="386.76415252685547" type="line"/>
      <point x="316.4045354003906" y="386.76415252685547" type="line"/>
      <point x="324.44712268066405" y="373.7377624511719" type="line"/>
      <point x="324.44712268066405" y="321.5691833496094" type="line"/>
      <point x="125.55632220458982" y="321.5691833496094" type="line"/>
    </contour>
  </outline>
</glyph>
<glyph name="brokenbar" format="2">
  <advance width="284.8989984741211"/>
  <unicode hex="00A6"/>
  <outline>
    <contour>
      <point x="180.49949847412108" y="944.5006256103516" type="line"/>
      <point x="104.39949999999999" y="944.5006256103516" type="line"/>
      <point x="104.39949999999999" y="480.49937438964844" type="line"/>
      <point x="180.49949847412108" y="480.49937438964844" type="line"/>
    </contour>
    <contour>
      <point x="104.39949999999999" y="-94.50062561035156" type="line"/>
      <point x="180.49949847412108" y="-94.50062561035156" type="line"/>
      <point x="180.49949847412108" y="369.50062561035156" type="line"/>
      <point x="104.39949999999999" y="369.50062561035156" type="line"/>
    </contour>
  </outline>
</glyph>
<glyph name="section" format="2">
  <advance width="573.8797083333335"/>
  <unicode hex="00A7"/>
  <outline>
    <contour>
      <point x="506.05145833333347" y="-2.240316598074827" type="curve"/>
      <point x="506.05145833333347" y="61.2052585799264"/>
      <point x="468.3796048657126" y="115.88127444919124"/>
      <point x="410.48804766845706" y="149.14737701416016" type="curve"/>
      <point x="481.91525680747236" y="184.7389121341143"/>
      <point x="529.4802083333334" y="249.30835670283554"/>
      <point x="529.4802083333335" y="327.644796875" type="curve"/>
      <point x="529.4802083333334" y="451.2059382825342"/>
      <point x="418.34776752483424" y="499.12117215188493"/>
      <point x="349.66860948495145" y="526.4355370046173" type="curve"/>
      <point x="265.15694019849667" y="560.0466445820164" type="line"/>
      <point x="208.08018742121328" y="582.7466207387216"/>
      <point x="145.8806874999999" y="607.4219981133925"/>
      <point x="145.88068750000002" y="671.226078125" type="curve"/>
      <point x="145.88068749999996" y="739.2725783768957"/>
      <point x="216.11928629805027" y="789.897625"/>
      <point x="305.0829791666667" y="789.897625" type="curve"/>
      <point x="340.0613532550982" y="789.897624475505"/>
      <point x="414.6074013363434" y="784.1151213639401"/>
      <point x="476.0514555664063" y="739.314142150879" type="curve"/>
      <point x="476.0514555664063" y="822.7010650634766" type="line"/>
      <point x="430.88166132586923" y="850.7615310925572"/>
      <point x="370.8990561814853" y="864.9999999999999"/>
      <point x="305.08297916666675" y="865.0" type="curve"/>
      <point x="175.11103668256578" y="865.0"/>
      <point x="69.82825" y="781.8222405319957"/>
      <point x="69.82825" y="669.276015625" type="curve"/>
      <point x="69.82825" y="605.8304404469988"/>
      <point x="107.50009856256212" y="551.1544273963171"/>
      <point x="165.39165789794924" y="517.8883285522461" type="curve"/>
      <point x="93.96445152586104" y="482.29678689281087"/>
      <point x="46.39950000000006" y="417.7273423240897"/>
      <point x="46.39949999999999" y="339.3909021519253" type="curve"/>
      <point x="46.39950000000013" y="215.82976074439108"/>
      <point x="157.53193947351872" y="167.91452645198922"/>
      <point x="226.21109736353804" y="140.60016122244048" type="curve"/>
      <point x="310.72276487790754" y="106.98905381279152" type="line"/>
      <point x="367.7995181109313" y="84.28907711214245"/>
      <point x="429.9990208333335" y="59.61370091353269"/>
      <point x="429.9990208333335" y="-4.1903790980747715" type="curve"/>
      <point x="429.9990208333335" y="-72.23687934997052"/>
      <point x="359.7604220352831" y="-122.86192597307473"/>
      <point x="270.79672916666675" y="-122.86192597307473" type="curve"/>
      <point x="232.77690105717528" y="-122.86192552427426"/>
      <point x="145.41162523526566" y="-116.47816434114725"/>
      <point x="79.82825276692715" y="-62.8629310389928" type="curve"/>
      <point x="79.82825000000001" y="-148.30557250976562" type="line"/>
      <point x="127.95531676679427" y="-181.66262205891948"/>
      <point x="195.7199725288241" y="-197.96430097307478"/>
      <point x="270.79672916666664" y="-197.96430097307478" type="curve"/>
      <point x="400.7686716507676" y="-197.96430097307478"/>
      <point x="506.05145833333347" y="-114.78654150507055"/>
    </contour>
    <contour>
      <point x="122.45193750000008" y="341.3409646519253" type="curve"/>
      <point x="122.45193750000008" y="409.4297022217173"/>
      <point x="177.86504747344543" y="462.2028715221171"/>
      <point x="254.35370166015628" y="479.79718017578125" type="curve"/>
      <point x="328.9582357705209" y="450.0701990222132" type="line"/>
      <point x="385.79073168031823" y="427.42467814379694"/>
      <point x="453.4277708333334" y="400.49805434388065"/>
      <point x="453.4277708333334" y="325.694734375" type="curve"/>
      <point x="453.4277708333334" y="257.6059968052079"/>
      <point x="398.01466085988807" y="204.8328275048081"/>
      <point x="321.52600390625" y="187.23851776123047" type="curve"/>
      <point x="246.92146945979187" y="216.9654990487186" type="line"/>
      <point x="190.088973886088" y="239.61101979321475"/>
      <point x="122.45193750000008" y="266.5376446830446"/>
    </contour>
  </outline>
</glyph>
<glyph name="diaeresis" format="2">
  <advance width="512.0036412130619"/>
  <unicode hex="00A8"/>
  <anchor x="256.00182060653094" y="988.3581080780788" name="center" identifier="center"/>
  <anchor x="256.00182060653094" y="1146.313853963222" name="top" identifier="top"/>
  <outline>
    <contour>
      <point x="220.46039121306185" y="988.3581080780788" type="curve" smooth="yes"/>
      <point x="220.46039121306185" y="1020.3859826256162"/>
      <point x="194.45782015406834" y="1046.3885536846096"/>
      <point x="162.42994560653094" y="1046.3885536846096" type="curve" smooth="yes"/>
      <point x="130.4020710589935" y="1046.3885536846096"/>
      <point x="104.39949999999999" y="1020.3859826256162"/>
      <point x="104.39949999999999" y="988.3581080780788" type="curve" smooth="yes"/>
      <point x="104.39949999999999" y="956.3302335305414"/>
      <point x="130.40207105899347" y="930.3276624715478"/>
      <point x="162.4299456065309" y="930.3276624715478" type="curve" smooth="yes"/>
      <point x="194.45782015406834" y="930.3276624715478"/>
      <point x="220.46039121306185" y="956.3302335305414"/>
    </contour>
    <contour>
      <point x="407.6041412130619" y="988.3581080780788" type="curve" smooth="yes"/>
      <point x="407.6041412130619" y="1020.3859826256162"/>
      <point x="381.6015701540683" y="1046.3885536846096"/>
      <point x="349.5736956065309" y="1046.3885536846096" type="curve" smooth="yes"/>
      <point x="317.5458210589935" y="1046.3885536846096"/>
      <point x="291.54324999999994" y="1020.3859826256162"/>
      <point x="291.54324999999994" y="988.3581080780788" type="curve" smooth="yes"/>
      <point x="291.54324999999994" y="956.3302335305414"/>
      <point x="317.5458210589935" y="930.3276624715478"/>
      <point x="349.5736956065309" y="930.3276624715478" type="curve" smooth="yes"/>
      <point x="381.6015701540683" y="930.3276624715478"/>
      <point x="407.6041412130619" y="956.3302335305414"/>
    </contour>
  </outline>
</glyph>
<glyph name="copyright" format="2">
  <advance width="958.799"/>
  <unicode hex="00A9"/>
  <outline>
    <contour>
      <point x="919.3995" y="425.0" type="curve" smooth="yes"/>
      <point x="919.3995" y="667.8426088"/>
      <point x="722.2421088000001" y="865.0"/>
      <point x="479.3995" y="865.0" type="curve" smooth="yes"/>
      <point x="236.5568912" y="865.0"/>
      <point x="39.39949999999999" y="667.8426088000001"/>
      <point x="39.39949999999999" y="425.0" type="curve" smooth="yes"/>
      <point x="39.39949999999993" y="182.15739120000003"/>
      <point x="236.55689119999988" y="-14.999999999999943"/>
      <point x="479.3995" y="-15.0" type="curve" smooth="yes"/>
      <point x="722.2421087999999" y="-15.000000000000057"/>
      <point x="919.3995" y="182.1573911999999"/>
    </contour>
    <contour>
      <point x="846.4591537950432" y="425.0" type="curve" smooth="yes"/>
      <point x="846.459153795043" y="222.41426383451562"/>
      <point x="681.9852361654843" y="57.940346204956825"/>
      <point x="479.3995" y="57.94034620495688" type="curve" smooth="yes"/>
      <point x="276.8137638345156" y="57.94034620495688"/>
      <point x="112.33984620495687" y="222.41426383451574"/>
      <point x="112.33984620495687" y="425.0" type="curve" smooth="yes"/>
      <point x="112.33984620495687" y="627.5857361654844"/>
      <point x="276.8137638345157" y="792.0596537950431"/>
      <point x="479.3995" y="792.0596537950431" type="curve" smooth="yes"/>
      <point x="681.9852361654844" y="792.0596537950431"/>
      <point x="846.4591537950432" y="627.5857361654844"/>
    </contour>
    <contour>
      <point x="486.4665" y="603.0739201617596" type="curve"/>
      <point x="546.1113601074501" y="603.0739212310307"/>
      <point x="600.1910651715116" y="579.3125154226032"/>
      <point x="639.4870086330961" y="540.8542869716448" type="curve"/>
      <point x="639.4870086330961" y="628.5149935090814" type="line"/>
      <point x="596.8513098440901" y="659.2605648075203"/>
      <point x="543.8611219806886" y="677.1762951617595"/>
      <point x="486.4665" y="677.1762951617595" type="curve"/>
      <point x="345.7027739884647" y="677.1762951617595"/>
      <point x="231.4323220549661" y="564.9645106349597"/>
      <point x="231.4323220549661" y="425.0" type="curve" smooth="yes"/>
      <point x="231.4323220549661" y="285.03548936504046"/>
      <point x="345.7027739884645" y="172.82370483824045"/>
      <point x="486.4665" y="172.82370483824042" type="curve"/>
      <point x="543.8611219806885" y="172.82370483824042"/>
      <point x="596.8513098440901" y="190.73943519247965"/>
      <point x="639.4870086330961" y="221.48590657319954" type="curve"/>
      <point x="639.4870086330961" y="309.14578129856113" type="line"/>
      <point x="600.1910235905809" y="270.6874669374154"/>
      <point x="546.1113365352062" y="246.92607983824044"/>
      <point x="486.4665" y="246.92607983824047" type="curve"/>
      <point x="388.41796992229575" y="246.9260798382404"/>
      <point x="309.2329196988542" y="326.70442248700203"/>
      <point x="309.2329196988542" y="425.0" type="curve" smooth="yes"/>
      <point x="309.2329196988542" y="523.2955775129981"/>
      <point x="388.41796992229587" y="603.0739201617596"/>
    </contour>
  </outline>
</glyph>
<glyph name="ordinal_a" format="2">
  <advance width="490.08635611982425"/>
  <unicode hex="00AA"/>
  <outline>
    <contour>
      <point x="328.0532721667614" y="495.14178571428573" type="line"/>
      <point x="394.68685525273804" y="495.14178571428573" type="line"/>
      <point x="394.68685525273804" y="672.7724207735387" type="line"/>
      <point x="394.68685525273804" y="750.0782527120765"/>
      <point x="387.01418692783375" y="858.9535199635588"/>
      <point x="236.67040932066448" y="858.9535199635588" type="curve"/>
      <point x="186.9198394046319" y="858.9535199635588"/>
      <point x="141.83022073839936" y="847.1827793681057"/>
      <point x="108.86345456757958" y="826.0148288360043" type="curve"/>
      <point x="108.86345456757958" y="750.1775292599806" type="line"/>
      <point x="135.20294937140454" y="776.8314314315938"/>
      <point x="180.69332126135964" y="793.4521197657102"/>
      <point x="232.4797094379859" y="793.4521197657102" type="curve"/>
      <point x="326.00593429995826" y="793.4521197657102"/>
      <point x="327.2080332256079" y="736.8217760600018"/>
      <point x="327.2080324726279" y="708.5127074888892" type="curve"/>
      <point x="327.20803233963517" y="703.5127074888892" type="line"/>
      <point x="293.82114174315865" y="711.4877157450976"/>
      <point x="262.67912395091867" y="713.8180217756144"/>
      <point x="237.65690892679356" y="713.8180217756144" type="curve"/>
      <point x="149.13811078910004" y="713.8180217756144"/>
      <point x="78.39949999999999" y="677.4589050275995"/>
      <point x="78.39949999999999" y="600.0031437631707" type="curve"/>
      <point x="78.39949999999999" y="529.7850948914336"/>
      <point x="141.26375684290502" y="486.1882657507269"/>
      <point x="217.26239698582611" y="486.1882657507269" type="curve"/>
      <point x="261.3259243766755" y="486.1882657507269"/>
      <point x="300.90362275119685" y="500.9442531317273"/>
      <point x="328.0532721667614" y="525.8095589156387" type="curve"/>
    </contour>
    <contour>
      <point x="148.2811123883546" y="599.3971645450554" type="curve"/>
      <point x="148.2811123883546" y="631.3921552624823"/>
      <point x="178.26077009463597" y="653.3121512400331"/>
      <point x="239.54773022092593" y="653.3121512400331" type="curve"/>
      <point x="257.7305440521556" y="653.3121509845058"/>
      <point x="291.40567429568006" y="651.6825182090574"/>
      <point x="327.20803233963517" y="642.1961466944638" type="curve"/>
      <point x="327.20803233963517" y="638.2703564424569" type="line"/>
      <point x="327.2080328519155" y="585.1160429535765"/>
      <point x="280.14722583751984" y="549.0394724115656"/>
      <point x="222.15391749134312" y="549.0394724115656" type="curve"/>
      <point x="182.12969708858043" y="549.0394724115656"/>
      <point x="148.2811123883546" y="566.1294567501178"/>
    </contour>
    <contour>
      <point x="87.35301996355884" y="360.61140222098214" type="line"/>
      <point x="394.68685611982426" y="360.61140222098214" type="line"/>
      <point x="394.68685611982426" y="429.67216920758926" type="line"/>
      <point x="87.35301996355884" y="429.67216920758926" type="line"/>
    </contour>
  </outline>
</glyph>
<glyph name="angleleft_dbl" format="2">
  <advance width="558.1882135620117"/>
  <unicode hex="00AB"/>
  <outline>
    <contour>
      <point x="131.99240313720702" y="297.2503128051758" type="line"/>
      <point x="293.41711627197265" y="518.2273635864258" type="line"/>
      <point x="218.74080859375" y="518.2273635864258" type="line"/>
      <point x="43.39949999999999" y="297.2503128051758" type="line"/>
      <point x="218.74080859375" y="76.27326202392578" type="line"/>
      <point x="293.41711627197265" y="76.27326202392578" type="line"/>
    </contour>
    <contour>
      <point x="332.3640004272461" y="297.2503128051758" type="line"/>
      <point x="493.7887135620117" y="518.2273635864258" type="line"/>
      <point x="419.11240588378905" y="518.2273635864258" type="line"/>
      <point x="243.77109729003905" y="297.2503128051758" type="line"/>
      <point x="419.11240588378905" y="76.27326202392578" type="line"/>
      <point x="493.7887135620117" y="76.27326202392578" type="line"/>
    </contour>
  </outline>
</glyph>
<glyph name="logicalnot" format="2">
  <advance width="648.3722116699219"/>
  <unicode hex="00AC"/>
  <outline>
    <contour>
      <point x="465.97021685791015" y="106.9758071899414" type="line"/>
      <point x="543.9727116699219" y="106.9758071899414" type="line"/>
      <point x="543.9727116699219" y="464.0012512207031" type="line"/>
      <point x="45.39949999999999" y="464.0012512207031" type="line"/>
      <point x="45.39949999999999" y="389.8988723754883" type="line"/>
      <point x="465.97021685791015" y="389.8988723754883" type="line"/>
    </contour>
  </outline>
</glyph>
<glyph name="registered" format="2">
  <advance width="958.799"/>
  <unicode hex="00AE"/>
  <outline>
    <contour>
      <point x="919.3995" y="425.0" type="curve" smooth="yes"/>
      <point x="919.3995" y="667.8426088"/>
      <point x="722.2421088" y="865.0"/>
      <point x="479.3995" y="865.0" type="curve" smooth="yes"/>
      <point x="236.5568912" y="865.0"/>
      <point x="39.39949999999999" y="667.8426088000001"/>
      <point x="39.39949999999999" y="425.0" type="curve" smooth="yes"/>
      <point x="39.39949999999993" y="182.15739120000003"/>
      <point x="236.55689119999988" y="-14.999999999999943"/>
      <point x="479.3995" y="-15.0" type="curve" smooth="yes"/>
      <point x="722.2421087999999" y="-15.000000000000057"/>
      <point x="919.3995" y="182.1573911999999"/>
    </contour>
    <contour>
      <point x="847.0401681925647" y="425.0" type="curve" smooth="yes"/>
      <point x="847.0401681925646" y="222.09359326168723"/>
      <point x="682.3059067383126" y="57.35933180743524"/>
      <point x="479.3995" y="57.3593318074353" type="curve" smooth="yes"/>
      <point x="276.49309326168725" y="57.3593318074353"/>
      <point x="111.75883180743529" y="222.09359326168735"/>
      <point x="111.75883180743529" y="425.0" type="curve" smooth="yes"/>
      <point x="111.75883180743529" y="627.9064067383127"/>
      <point x="276.4930932616873" y="792.6406681925647"/>
      <point x="479.3995" y="792.6406681925647" type="curve" smooth="yes"/>
      <point x="682.3059067383127" y="792.6406681925647"/>
      <point x="847.0401681925647" y="627.9064067383127"/>
    </contour>
    <contour>
      <point x="332.74517646281527" y="176.8568318074353" type="line"/>
      <point x="410.6185640317325" y="176.8568318074353" type="line"/>
      <point x="410.6185640317325" y="362.08308535201263" type="line"/>
      <point x="469.6650571323805" y="362.08308535201263" type="line"/>
      <point x="591.0820212454504" y="176.8568318074353" type="line"/>
      <point x="680.2335313105405" y="176.8568318074353" type="line"/>
      <point x="550.8444396101063" y="372.99634487892706" type="line"/>
      <point x="608.3711928880123" y="395.818290402971"/>
      <point x="649.0915415867703" y="451.9978583638824"/>
      <point x="649.0915415867703" y="517.6131266057943" type="curve" smooth="yes"/>
      <point x="649.0915415867703" y="577.0981543599831"/>
      <point x="623.1915939398542" y="673.1431681925646"/>
      <point x="453.91274123400206" y="673.1431681925646" type="curve"/>
      <point x="332.74517646281527" y="673.1431681925646" type="line"/>
    </contour>
    <contour>
      <point x="410.6185640317325" y="433.9815099356337" type="line"/>
      <point x="410.6185640317325" y="599.1634504475479" type="line"/>
      <point x="469.36010920884985" y="599.1634504475479" type="line"/>
      <point x="554.7003802056759" y="599.1634504475479"/>
      <point x="570.9603547113612" y="548.4328624364643"/>
      <point x="570.9603547113612" y="516.5724818239593" type="curve" smooth="yes"/>
      <point x="570.9603547113612" y="484.71210121145424"/>
      <point x="554.7003813569328" y="433.98151335940975"/>
      <point x="469.3601101148703" y="433.9815113314927" type="curve"/>
    </contour>
  </outline>
</glyph>
<glyph name="macron" format="2">
  <advance width="516.1103988095238"/>
  <unicode hex="00AF"/>
  <anchor x="258.0551994047619" y="988.3581080780788" name="center" identifier="center"/>
  <anchor x="258.0551994047619" y="1140.0746451148707" name="top" identifier="top"/>
  <outline>
    <contour>
      <point x="104.39949999999999" y="951.939994439686" type="line"/>
      <point x="411.71089880952377" y="951.939994439686" type="line"/>
      <point x="411.71089880952377" y="1024.7762217164716" type="line"/>
      <point x="104.39949999999999" y="1024.7762217164716" type="line"/>
    </contour>
  </outline>
</glyph>
<glyph name="degree" format="2">
  <advance width="458.6329583333333"/>
  <unicode hex="00B0"/>
  <outline>
    <contour>
      <point x="383.2334583333333" y="711.0830208333333" type="curve" smooth="yes"/>
      <point x="383.2334583333333" y="796.0321134684438"/>
      <point x="314.26557180177707" y="865.0"/>
      <point x="229.31647916666668" y="865.0" type="curve" smooth="yes"/>
      <point x="144.36738653155624" y="865.0"/>
      <point x="75.39949999999999" y="796.0321134684438"/>
      <point x="75.39949999999999" y="711.0830208333333" type="curve" smooth="yes"/>
      <point x="75.39949999999999" y="626.1339281982229"/>
      <point x="144.36738653155624" y="557.1660416666666"/>
      <point x="229.31647916666662" y="557.1660416666666" type="curve" smooth="yes"/>
      <point x="314.26557180177707" y="557.1660416666666"/>
      <point x="383.23345833333326" y="626.1339281982229"/>
    </contour>
    <contour>
      <point x="308.58017769697983" y="711.0830208333333" type="curve" smooth="yes"/>
      <point x="308.58017769697983" y="665.2706106730263"/>
      <point x="273.36336423432806" y="628.0866582712025"/>
      <point x="229.31647916666668" y="628.0866582712025" type="curve" smooth="yes"/>
      <point x="185.26959409900525" y="628.0866582712025"/>
      <point x="150.05278063635353" y="665.2706106730263"/>
      <point x="150.05278063635353" y="711.0830208333333" type="curve" smooth="yes"/>
      <point x="150.05278063635353" y="756.8954309936403"/>
      <point x="185.26959409900525" y="794.0793833954641"/>
      <point x="229.31647916666668" y="794.0793833954641" type="curve" smooth="yes"/>
      <point x="273.36336423432806" y="794.0793833954641"/>
      <point x="308.58017769697983" y="756.8954309936403"/>
    </contour>
  </outline>
</glyph>
<glyph name="plusminus" format="2">
  <advance width="679.9873010864258"/>
  <unicode hex="00B1"/>
  <outline>
    <contour>
      <point x="302.419275390625" y="259.79857635498047" type="line"/>
      <point x="377.56802569580077" y="259.79857635498047" type="line"/>
      <point x="377.56802569580077" y="452.81835174560547" type="line"/>
      <point x="570.5878010864258" y="452.81835174560547" type="line"/>
      <point x="570.5878010864258" y="527.9671020507812" type="line"/>
      <point x="377.56802569580077" y="527.9671020507812" type="line"/>
      <point x="377.56802569580077" y="720.9868774414062" type="line"/>
      <point x="302.419275390625" y="720.9868774414062" type="line"/>
      <point x="302.419275390625" y="527.9671020507812" type="line"/>
      <point x="109.39949999999999" y="527.9671020507812" type="line"/>
      <point x="109.39949999999999" y="452.81835174560547" type="line"/>
      <point x="302.419275390625" y="452.81835174560547" type="line"/>
    </contour>
    <contour>
      <point x="109.39949999999999" y="129.01312343750004" type="line"/>
      <point x="570.5878007440475" y="129.01312343750004" type="line"/>
      <point x="570.5878007440475" y="204.16187343750005" type="line"/>
      <point x="109.39949999999999" y="204.16187343750005" type="line"/>
    </contour>
  </outline>
</glyph>
<glyph name="sup_two" format="2">
  <advance width="526.848819946289"/>
  <unicode hex="00B2"/>
  <outline>
    <contour>
      <point x="79.39949999999999" y="303.57142639160156" type="line"/>
      <point x="438.44931994628905" y="303.57142639160156" type="line"/>
      <point x="438.44931994628905" y="371.5408706665039" type="line"/>
      <point x="223.10865222167968" y="371.5408706665039" type="line"/>
      <point x="350.248103059956" y="528.5504403868853" type="line"/>
      <point x="390.50303225913177" y="578.2628551488988"/>
      <point x="425.59218070297425" y="624.9557409109765"/>
      <point x="425.59218070297425" y="691.7510870166769" type="curve"/>
      <point x="425.59218070297425" y="784.4077124708123"/>
      <point x="349.4926541146934" y="859.6428571428571"/>
      <point x="255.77183914822263" y="859.6428571428571" type="curve"/>
      <point x="196.83090482731603" y="859.6428571428571"/>
      <point x="144.16603737279945" y="839.6240242715971"/>
      <point x="109.41964160156247" y="804.913703918457" type="curve"/>
      <point x="109.41964160156247" y="715.7207336425781" type="line"/>
      <point x="135.2615537555115" y="760.7547574062042"/>
      <point x="189.1378318233315" y="791.7218190290487"/>
      <point x="251.43062494532853" y="791.7218190290487" type="curve"/>
      <point x="308.6914405365552" y="791.7218190290488"/>
      <point x="355.1800141597788" y="750.1769691881472"/>
      <point x="355.1800141597788" y="692.9435334245434" type="curve"/>
      <point x="355.1800141597788" y="648.8680677715627"/>
      <point x="332.6827275791242" y="620.5584043750996"/>
      <point x="327.5673009033203" y="614.1580352783203" type="curve"/>
      <point x="325.3359128112793" y="611.3619194030762" type="line"/>
    </contour>
  </outline>
</glyph>
<glyph name="sup_three" format="2">
  <advance width="497.4444713003976"/>
  <unicode hex="00B3"/>
  <outline>
    <contour>
      <point x="226.72248587750374" y="361.6347336077493" type="curve"/>
      <point x="167.62388764501497" y="361.6347336077493"/>
      <point x="115.48495740089511" y="386.73489727033643"/>
      <point x="84.39949999999999" y="424.9448847089495" type="curve"/>
      <point x="84.39950163487025" y="341.048828125" type="line"/>
      <point x="121.16450023750058" y="311.0103627405237"/>
      <point x="172.00718378694364" y="293.92857142857133"/>
      <point x="228.17469991475747" y="293.92857142857133" type="curve"/>
      <point x="336.7765653538412" y="293.92857142857133"/>
      <point x="424.8306843187643" y="375.5136021632057"/>
      <point x="424.8306843187643" y="476.4397702011127" type="curve"/>
      <point x="424.8306843187643" y="565.354322838409"/>
      <point x="360.7162851091663" y="633.4713481282704"/>
      <point x="273.77178557041714" y="653.1519470214844" type="curve"/>
      <point x="428.0449713003976" y="850" type="line"/>
      <point x="99.50278837803431" y="850" type="line"/>
      <point x="99.50278837803431" y="782.0305557250977" type="line"/>
      <point x="292.8853033316476" y="782.0305557250977" type="line"/>
      <point x="132.77234251621792" y="579.9480285644531" type="line"/>
      <point x="166.12351847819968" y="590.9353290675131"/>
      <point x="200.2466062118749" y="592.5517994280045"/>
      <point x="216.59555738889537" y="592.5517994280044" type="curve"/>
      <point x="295.6758090847019" y="592.5517994280045"/>
      <point x="353.2838998467816" y="542.7497431203931"/>
      <point x="353.2838998467816" y="477.0932665178769" type="curve"/>
      <point x="353.2838998467816" y="412.93730196765296"/>
      <point x="296.61786508417197" y="361.6347336077493"/>
    </contour>
  </outline>
</glyph>
<glyph name="acute" format="2">
  <advance width="409.36930487060545"/>
  <unicode hex="00B4"/>
  <anchor x="150.26948260243307" y="988.3581080780788" name="center" identifier="center"/>
  <anchor x="150.26948260243307" y="903.0718580780788" name="bottom" identifier="bottom"/>
  <anchor x="150.26948260243307" y="1205.2268893012042" name="top" identifier="top"/>
  <outline>
    <contour>
      <point x="184.67196856689452" y="903.0718612670898" type="line"/>
      <point x="304.96980487060546" y="1088.0718612670898" type="line"/>
      <point x="215.30728350830077" y="1088.0718612670898" type="line"/>
      <point x="104.39949999999999" y="903.0718612670898" type="line"/>
    </contour>
  </outline>
</glyph>
<glyph name="micron" format="2">
  <advance width="712.3263895263672"/>
  <unicode hex="00B5"/>
  <outline>
    <contour>
      <point x="181.36908600651242" y="284.00757049136496" type="curve"/>
      <point x="181.36908923339843" y="594.5006256103516" type="line"/>
      <point x="104.39949999999999" y="594.5006256103516" type="line"/>
      <point x="104.39949999999999" y="-269.50062561035156" type="line"/>
      <point x="181.36908923339843" y="-269.50062561035156" type="line"/>
      <point x="181.36908923339843" y="58.63629913330078" type="line"/>
      <point x="225.13280202397112" y="13.243007136352588"/>
      <point x="286.54814010254114" y="-14.999999999999996"/>
      <point x="354.5079344596674" y="-15.0" type="curve" smooth="yes"/>
      <point x="424.1992409748565" y="-15.000000000000014"/>
      <point x="487.00835728202304" y="14.700518864463088"/>
      <point x="530.9573002929687" y="62.14300537109375" type="curve"/>
      <point x="530.9573002929687" y="0" type="line"/>
      <point x="607.9268895263672" y="0" type="line"/>
      <point x="607.9268895263672" y="594.5006256103516" type="line"/>
      <point x="530.9573002929687" y="594.5006256103516" type="line"/>
      <point x="530.9573002929687" y="284.0075736116258" type="line"/>
      <point x="530.9573002929687" y="99.75925906182772"/>
      <point x="437.5667628885525" y="58.12110623974135"/>
      <point x="356.1631930803571" y="58.12110623974135" type="curve" smooth="yes"/>
      <point x="274.75962327216166" y="58.12110623974136"/>
      <point x="181.36908409166023" y="99.75925737900116"/>
    </contour>
  </outline>
</glyph>
<glyph name="pilcrow" format="2">
  <advance width="674.5996131562733"/>
  <unicode hex="00B6"/>
  <outline>
    <contour>
      <point x="301.99536309523813" y="-185.71428680419922" type="line"/>
      <point x="376.09773431105845" y="-185.71428680419922" type="line"/>
      <point x="376.09773431105845" y="775.8976287841797" type="line"/>
      <point x="496.0977343110585" y="775.8976287841797" type="line"/>
      <point x="496.0977343110585" y="-185.71428680419922" type="line"/>
      <point x="570.2001131562733" y="-185.71428680419922" type="line"/>
      <point x="570.2001131562733" y="850" type="line"/>
      <point x="351.99536309523813" y="850.0" type="line"/>
      <point x="78.69324781766142" y="850.0"/>
      <point x="44.39949999999999" y="670.731695166979"/>
      <point x="44.39949999999999" y="592.4041369047618" type="curve" smooth="yes"/>
      <point x="44.3995" y="450.23311097263615"/>
      <point x="159.82433716311238" y="334.80827380952366"/>
      <point x="301.9953630952381" y="334.80827380952366" type="curve"/>
    </contour>
  </outline>
</glyph>
<glyph name="interpunct" format="2">
  <advance width="329.47836047619046"/>
  <unicode hex="00B7"/>
  <outline>
    <contour>
      <point x="241.07886047619047" y="425.0" type="curve" smooth="yes"/>
      <point x="241.07886047619047" y="467.13301614540194"/>
      <point x="206.87219638349717" y="501.33968023809524"/>
      <point x="164.73918023809523" y="501.33968023809524" type="curve" smooth="yes"/>
      <point x="122.60616409269329" y="501.33968023809524"/>
      <point x="88.39949999999999" y="467.13301614540194"/>
      <point x="88.39949999999999" y="425.0" type="curve" smooth="yes"/>
      <point x="88.39949999999999" y="382.86698385459806"/>
      <point x="122.60616409269329" y="348.66031976190476"/>
      <point x="164.73918023809523" y="348.66031976190476" type="curve" smooth="yes"/>
      <point x="206.87219638349717" y="348.66031976190476"/>
      <point x="241.07886047619047" y="382.86698385459806"/>
    </contour>
  </outline>
</glyph>
<glyph name="cedilla" format="2">
  <advance width="283.2232523687453"/>
  <unicode hex="00B8"/>
  <anchor x="140.02926873779296" y="0" name="top" identifier="top"/>
  <outline>
    <contour>
      <point x="172.3073294290132" y="-163.74163611020916" type="curve"/>
      <point x="172.3073294290132" y="-197.25206673422286"/>
      <point x="143.76717350001246" y="-221.48376521996806"/>
      <point x="108.58589373779296" y="-221.48376521996806" type="curve"/>
      <point x="92.82583084972615" y="-221.48376521996806"/>
      <point x="52.19495742673743" y="-218.96522199905584"/>
      <point x="23.39949999999999" y="-194.65872192382812" type="curve"/>
      <point x="23.39949999999999" y="-263.3754577636719" type="line"/>
      <point x="56.44714761422719" y="-281.54662464223355"/>
      <point x="89.99774824063405" y="-284.500625"/>
      <point x="108.58589373779293" y="-284.50062499999996" type="curve"/>
      <point x="180.52403974725348" y="-284.500625"/>
      <point x="238.82375236874532" y="-230.43018741633628"/>
      <point x="238.82375236874532" y="-163.89129386882985" type="curve"/>
      <point x="238.82375289748592" y="-108.26703633744995"/>
      <point x="200.73737698782872" y="-62.43025169984444"/>
      <point x="148.66192065429686" y="-48.01335144042969" type="curve"/>
      <point x="171.05757342529296" y="0.6640243530273438" type="line"/>
      <point x="101.44081317138671" y="0.6640243530273438" type="line"/>
      <point x="42.45058642578124" y="-127.55232238769531" type="line"/>
      <point x="66.67236102268578" y="-108.90702753439693"/>
      <point x="92.42285744864557" y="-105.99950700045025"/>
      <point x="106.08589373779296" y="-105.99950700045025" type="curve"/>
      <point x="142.71220486450858" y="-105.99950700045025"/>
      <point x="172.3073294290132" y="-129.59982762117124"/>
    </contour>
  </outline>
</glyph>
<glyph name="ordinal_o" format="2">
  <advance width="533.564254212832"/>
  <unicode hex="00BA"/>
  <outline>
    <contour>
      <point x="453.164754212832" y="672.5708928571429" type="curve" smooth="yes"/>
      <point x="453.164754212832" y="775.438264224233"/>
      <point x="369.6494984735061" y="858.9535199635588"/>
      <point x="266.782127106416" y="858.9535199635588" type="curve" smooth="yes"/>
      <point x="163.91475573932587" y="858.9535199635588"/>
      <point x="80.39949999999999" y="775.438264224233"/>
      <point x="80.39949999999999" y="672.5708928571429" type="curve" smooth="yes"/>
      <point x="80.39949999999999" y="569.7035214900527"/>
      <point x="163.91475573932587" y="486.1882657507269"/>
      <point x="266.782127106416" y="486.1882657507269" type="curve" smooth="yes"/>
      <point x="369.6494984735061" y="486.1882657507269"/>
      <point x="453.164754212832" y="569.7035214900527"/>
    </contour>
    <contour>
      <point x="382.9091128464527" y="672.5708928571429" type="curve" smooth="yes"/>
      <point x="382.9091128464527" y="606.5490936654892"/>
      <point x="331.3517292062596" y="552.9311250487872"/>
      <point x="266.782127106416" y="552.9311250487872" type="curve" smooth="yes"/>
      <point x="202.21252500657238" y="552.9311250487872"/>
      <point x="150.65514136637933" y="606.5490936654892"/>
      <point x="150.65514136637933" y="672.5708928571429" type="curve" smooth="yes"/>
      <point x="150.65514136637933" y="738.5926920487966"/>
      <point x="202.21252500657238" y="792.2106606654985"/>
      <point x="266.782127106416" y="792.2106606654985" type="curve" smooth="yes"/>
      <point x="331.3517292062596" y="792.2106606654985"/>
      <point x="382.9091128464527" y="738.5926920487966"/>
    </contour>
    <contour>
      <point x="89.35301996355884" y="360.61140222098214" type="line"/>
      <point x="444.21123424927316" y="360.61140222098214" type="line"/>
      <point x="444.21123424927316" y="429.67216920758926" type="line"/>
      <point x="89.35301996355884" y="429.67216920758926" type="line"/>
    </contour>
  </outline>
</glyph>
<glyph name="angleright_dbl" format="2">
  <advance width="559.1882211914062"/>
  <unicode hex="00BB"/>
  <outline>
    <contour>
      <point x="515.7887211914062" y="297.2503128051758" type="line"/>
      <point x="340.44741259765624" y="518.2273635864258" type="line"/>
      <point x="265.77109729003905" y="518.2273635864258" type="line"/>
      <point x="427.1958104248047" y="297.2503128051758" type="line"/>
      <point x="265.77109729003905" y="76.27326202392578" type="line"/>
      <point x="340.44741259765624" y="76.27326202392578" type="line"/>
    </contour>
    <contour>
      <point x="315.41711627197265" y="297.2503128051758" type="line"/>
      <point x="140.07580767822265" y="518.2273635864258" type="line"/>
      <point x="65.39949999999999" y="518.2273635864258" type="line"/>
      <point x="226.8242131347656" y="297.2503128051758" type="line"/>
      <point x="65.39949999999999" y="76.27326202392578" type="line"/>
      <point x="140.07580767822265" y="76.27326202392578" type="line"/>
    </contour>
  </outline>
</glyph>
<glyph name="one_over_four" format="2">
  <advance width="1035.3266165015173"/>
  <unicode hex="00BC"/>
  <outline>
    <contour>
      <point x="141.06454598915224" y="0" type="line"/>
      <point x="230.00000131141786" y="0" type="line"/>
      <point x="857.5893415213789" y="850" type="line"/>
      <point x="768.6538861991132" y="850" type="line"/>
    </contour>
    <contour>
      <point x="195.8552647705078" y="303.57142639160156" type="line"/>
      <point x="269.97004901123046" y="303.57142639160156" type="line"/>
      <point x="269.97004901123046" y="850" type="line"/>
      <point x="119.80156909179686" y="850" type="line"/>
      <point x="80.39949999999999" y="782.0305557250977" type="line"/>
      <point x="195.8552647705078" y="782.0305557250977" type="line"/>
    </contour>
    <contour>
      <point x="546.0111161353062" y="143.14861297607422" type="line"/>
      <point x="844.1869813086462" y="143.14861297607422" type="line"/>
      <point x="844.1869813086462" y="0" type="line"/>
      <point x="915.7337647559118" y="0" type="line"/>
      <point x="915.7337647559118" y="143.14861297607422" type="line"/>
      <point x="980.9271165015173" y="143.14861297607422" type="line"/>
      <point x="980.9271165015173" y="209.2126922607422" type="line"/>
      <point x="915.7337647559118" y="209.2126922607422" type="line"/>
      <point x="915.7337647559118" y="386.6755905151367" type="line"/>
      <point x="844.1869813086462" y="386.6755905151367" type="line"/>
      <point x="844.1869813086462" y="209.2126922607422" type="line"/>
      <point x="668.9782639624548" y="209.2126922607422" type="line"/>
      <point x="886.8765641333532" y="546.4285736083984" type="line"/>
      <point x="804.7958451392126" y="546.4285736083984" type="line"/>
    </contour>
  </outline>
</glyph>
<glyph name="one_over_two" format="2">
  <advance width="1099.3935262915563"/>
  <unicode hex="00BD"/>
  <outline>
    <contour>
      <point x="141.06454598915224" y="0" type="line"/>
      <point x="230.00000131141786" y="0" type="line"/>
      <point x="857.5893415213789" y="850" type="line"/>
      <point x="768.6538861991132" y="850" type="line"/>
    </contour>
    <contour>
      <point x="195.8552647705078" y="303.57142639160156" type="line"/>
      <point x="269.97004901123046" y="303.57142639160156" type="line"/>
      <point x="269.97004901123046" y="850" type="line"/>
      <point x="119.80156909179686" y="850" type="line"/>
      <point x="80.39949999999999" y="782.0305557250977" type="line"/>
      <point x="195.8552647705078" y="782.0305557250977" type="line"/>
    </contour>
    <contour>
      <point x="653.9442063452673" y="0" type="line"/>
      <point x="1012.9940262915563" y="0" type="line"/>
      <point x="1012.9940262915563" y="67.96944427490234" type="line"/>
      <point x="797.653358566947" y="67.96944427490234" type="line"/>
      <point x="924.7928002854048" y="224.97899660659843" type="line"/>
      <point x="965.0477304332293" y="274.6914106004379"/>
      <point x="1000.1368870482415" y="321.38431233954793"/>
      <point x="1000.1368870482415" y="388.1796584452484" type="curve"/>
      <point x="1000.1368870482415" y="480.8362838993837"/>
      <point x="924.0373604599606" y="556.0714285714287"/>
      <point x="830.3165454934899" y="556.0714285714287" type="curve"/>
      <point x="771.3756111725834" y="556.0714285714287"/>
      <point x="718.7107409932842" y="536.0525929782153"/>
      <point x="683.9643479468298" y="501.34226989746094" type="curve"/>
      <point x="683.9643479468298" y="412.14929962158203" type="line"/>
      <point x="709.8062577482829" y="457.18332473514283"/>
      <point x="763.6825381685987" y="488.1503904576201"/>
      <point x="825.9753312905957" y="488.15039045762" type="curve"/>
      <point x="883.2361468818224" y="488.1503904576202"/>
      <point x="929.724720505046" y="446.6055406167186"/>
      <point x="929.724720505046" y="389.3721048531148" type="curve"/>
      <point x="929.724720505046" y="345.2966392001341"/>
      <point x="907.2274300126807" y="316.9869704316405"/>
      <point x="902.1120034338903" y="310.5866012573242" type="curve"/>
      <point x="899.8806191565466" y="307.79048919677734" type="line"/>
    </contour>
  </outline>
</glyph>
<glyph name="three_over_four" format="2">
  <advance width="1116.3640776461007"/>
  <unicode hex="00BE"/>
  <outline>
    <contour>
      <point x="222.1020071337358" y="0" type="line"/>
      <point x="311.03746245600144" y="0" type="line"/>
      <point x="938.6268026659624" y="850" type="line"/>
      <point x="849.6913473436967" y="850" type="line"/>
    </contour>
    <contour>
      <point x="226.72248587750374" y="361.6347336077493" type="curve"/>
      <point x="167.62388764501495" y="361.6347336077493"/>
      <point x="115.4849574008951" y="386.73489727033643"/>
      <point x="84.39949999999999" y="424.9448847089495" type="curve"/>
      <point x="84.39950163487023" y="341.048828125" type="line"/>
      <point x="121.16450023750056" y="311.0103627405237"/>
      <point x="172.00718378694364" y="293.92857142857133"/>
      <point x="228.17469991475744" y="293.92857142857133" type="curve"/>
      <point x="336.7765653538412" y="293.92857142857133"/>
      <point x="424.83068431876427" y="375.5136021632057"/>
      <point x="424.83068431876427" y="476.4397702011127" type="curve"/>
      <point x="424.83068431876427" y="565.354322838409"/>
      <point x="360.7162851091663" y="633.4713481282704"/>
      <point x="273.77178557041714" y="653.1519470214844" type="curve"/>
      <point x="428.0449713003976" y="850" type="line"/>
      <point x="99.5027883780343" y="850" type="line"/>
      <point x="99.5027883780343" y="782.0305557250977" type="line"/>
      <point x="292.8853033316476" y="782.0305557250977" type="line"/>
      <point x="132.7723425162179" y="579.9480285644531" type="line"/>
      <point x="166.12351847819966" y="590.9353290675131"/>
      <point x="200.24660621187488" y="592.5517994280045"/>
      <point x="216.59555738889537" y="592.5517994280044" type="curve"/>
      <point x="295.6758090847019" y="592.5517994280045"/>
      <point x="353.28389984678154" y="542.7497431203931"/>
      <point x="353.28389984678154" y="477.0932665178769" type="curve"/>
      <point x="353.28389984678154" y="412.93730196765296"/>
      <point x="296.61786508417197" y="361.6347336077493"/>
    </contour>
    <contour>
      <point x="627.0485772798897" y="143.14861297607422" type="line"/>
      <point x="925.2244424532297" y="143.14861297607422" type="line"/>
      <point x="925.2244424532297" y="0" type="line"/>
      <point x="996.7712259004953" y="0" type="line"/>
      <point x="996.7712259004953" y="143.14861297607422" type="line"/>
      <point x="1061.9645776461007" y="143.14861297607422" type="line"/>
      <point x="1061.9645776461007" y="209.2126922607422" type="line"/>
      <point x="996.7712259004953" y="209.2126922607422" type="line"/>
      <point x="996.7712259004953" y="386.6755905151367" type="line"/>
      <point x="925.2244424532297" y="386.6755905151367" type="line"/>
      <point x="925.2244424532297" y="209.2126922607422" type="line"/>
      <point x="750.0157251070383" y="209.2126922607422" type="line"/>
      <point x="967.9140252779367" y="546.4285736083984" type="line"/>
      <point x="885.8333062837961" y="546.4285736083984" type="line"/>
    </contour>
  </outline>
</glyph>
<glyph name="inv_question" format="2">
  <advance width="516.7635982142859"/>
  <unicode hex="00BF"/>
  <outline>
    <contour>
      <point x="288.9183514053095" y="533.1609447619048" type="curve" smooth="yes"/>
      <point x="288.9183514053095" y="491.0279286165029"/>
      <point x="323.12501549800277" y="456.82126452380953"/>
      <point x="365.2580316434047" y="456.82126452380953" type="curve" smooth="yes"/>
      <point x="407.39104778880665" y="456.82126452380953"/>
      <point x="441.59771188149995" y="491.02792861650283"/>
      <point x="441.59771188149995" y="533.1609447619048" type="curve" smooth="yes"/>
      <point x="441.5977118815" y="575.2939609073068"/>
      <point x="407.39104778880665" y="609.500625"/>
      <point x="365.2580316434047" y="609.500625" type="curve" smooth="yes"/>
      <point x="323.1250154980028" y="609.500625"/>
      <point x="288.9183514053095" y="575.2939609073068"/>
    </contour>
    <contour>
      <point x="315.88179910714297" y="168.36284821428592" type="curve"/>
      <point x="339.7345820209396" y="168.36284816054274"/>
      <point x="368.7083058906142" y="165.06932021327057"/>
      <point x="399.7183386317664" y="154.24634552001953" type="curve"/>
      <point x="396.0037313929969" y="367.42176818847656" type="line"/>
      <point x="334.5123297206336" y="367.42176818847656" type="line"/>
      <point x="330.14347138323126" y="242.060791015625" type="line"/>
      <point x="324.13641633245345" y="242.4082592487425"/>
      <point x="319.13005476059374" y="242.46522321428597"/>
      <point x="315.881799107143" y="242.46522321428594" type="curve"/>
      <point x="166.00398307904004" y="242.4652232142859"/>
      <point x="44.3995" y="127.91302471571385"/>
      <point x="44.39949999999999" y="-14.017075892856951" type="curve"/>
      <point x="44.3995" y="-155.57350913422175"/>
      <point x="159.3253658657781" y="-270.499375"/>
      <point x="300.8817991071429" y="-270.499375" type="curve"/>
      <point x="364.10051555088233" y="-270.499375"/>
      <point x="422.1227485811395" y="-248.57299116864766"/>
      <point x="467.36409821428595" y="-211.94869995117188" type="curve"/>
      <point x="467.36409821428595" y="-123.59394836425781" type="line"/>
      <point x="426.0536511937711" y="-168.38135080516105"/>
      <point x="366.7416104816434" y="-196.39700000000005"/>
      <point x="300.8817991071429" y="-196.39700000000002" type="curve"/>
      <point x="200.54814812444675" y="-196.39700000000008"/>
      <point x="122.40199999999999" y="-114.68486620286812"/>
      <point x="122.40200000000004" y="-14.017075892857065" type="curve"/>
      <point x="122.40200000000004" y="86.73280275570549"/>
      <point x="209.03509320501195" y="168.36284821428592"/>
    </contour>
  </outline>
</glyph>
<glyph name="A_with_grave" format="2">
  <advance width="816.322811340332"/>
  <unicode hex="00C0"/>
  <outline>
    <contour>
      <point x="373.75891419615795" y="903.0718612670898" type="line"/>
      <point x="454.03139039244707" y="903.0718612670898" type="line"/>
      <point x="343.1236068841462" y="1088.0718612670898" type="line"/>
      <point x="253.46108552184154" y="1088.0718612670898" type="line"/>
    </contour>
    <contour>
      <point x="3.399499999999989" y="0" type="line"/>
      <point x="83.99813281249997" y="0" type="line"/>
      <point x="186.10225115966796" y="219.98572540283203" type="line"/>
      <point x="625.9681721801758" y="219.98572540283203" type="line"/>
      <point x="728.0722828979492" y="0" type="line"/>
      <point x="812.923311340332" y="0" type="line"/>
      <point x="677.0263653869629" y="292.1120300292969" type="line"/>
      <point x="408.16140185546874" y="870" type="line"/>
      <point x="139.29014979553222" y="292.0984992980957" type="line"/>
    </contour>
    <contour>
      <point x="406.03521166992186" y="693.8364791870117" type="line"/>
      <point x="592.4852009887695" y="292.1255645751953" type="line"/>
      <point x="219.58521472167968" y="292.1255645751953" type="line"/>
    </contour>
  </outline>
</glyph>
<glyph name="A_with_acute" format="2">
  <advance width="816.322811340332"/>
  <unicode hex="00C1"/>
  <outline>
    <contour>
      <point x="442.56389072636625" y="903.0718612670898" type="line"/>
      <point x="562.8617270300772" y="1088.0718612670898" type="line"/>
      <point x="473.1992056677725" y="1088.0718612670898" type="line"/>
      <point x="362.29142215947167" y="903.0718612670898" type="line"/>
    </contour>
    <contour>
      <point x="3.399499999999989" y="0" type="line"/>
      <point x="83.99813281249997" y="0" type="line"/>
      <point x="186.10225115966796" y="219.98572540283203" type="line"/>
      <point x="625.9681721801758" y="219.98572540283203" type="line"/>
      <point x="728.0722828979492" y="0" type="line"/>
      <point x="812.923311340332" y="0" type="line"/>
      <point x="677.0263653869629" y="292.1120300292969" type="line"/>
      <point x="408.16140185546874" y="870" type="line"/>
      <point x="139.29014979553222" y="292.0984992980957" type="line"/>
    </contour>
    <contour>
      <point x="406.03521166992186" y="693.8364791870117" type="line"/>
      <point x="592.4852009887695" y="292.1255645751953" type="line"/>
      <point x="219.58521472167968" y="292.1255645751953" type="line"/>
    </contour>
  </outline>
</glyph>
<glyph name="A_with_circumflex" format="2">
  <advance width="816.322811340332"/>
  <unicode hex="00C2"/>
  <outline>
    <contour>
      <point x="242.16479166666664" y="917.2167053222656" type="line"/>
      <point x="337.62963541666664" y="917.2167053222656" type="line"/>
      <point x="408.16140421549477" y="985.4447937011719" type="line"/>
      <point x="478.69317301432295" y="917.2167053222656" type="line"/>
      <point x="574.1580167643228" y="917.2167053222656" type="line"/>
      <point x="408.16140421549477" y="1075.3087158203125" type="line"/>
    </contour>
    <contour>
      <point x="3.399499999999989" y="0" type="line"/>
      <point x="83.99813281249997" y="0" type="line"/>
      <point x="186.10225115966796" y="219.98572540283203" type="line"/>
      <point x="625.9681721801758" y="219.98572540283203" type="line"/>
      <point x="728.0722828979492" y="0" type="line"/>
      <point x="812.923311340332" y="0" type="line"/>
      <point x="677.0263653869629" y="292.1120300292969" type="line"/>
      <point x="408.16140185546874" y="870" type="line"/>
      <point x="139.29014979553222" y="292.0984992980957" type="line"/>
    </contour>
    <contour>
      <point x="406.03521166992186" y="693.8364791870117" type="line"/>
      <point x="592.4852009887695" y="292.1255645751953" type="line"/>
      <point x="219.58521472167968" y="292.1255645751953" type="line"/>
    </contour>
  </outline>
</glyph>
<glyph name="A_with_tildeabove" format="2">
  <advance width="816.322811340332"/>
  <unicode hex="00C3"/>
  <outline>
    <contour>
      <point x="335.0881796056548" y="976.4035215690255" type="curve"/>
      <point x="354.07228446644865" y="976.4035215690255"/>
      <point x="365.6735872445" y="969.1359819391505"/>
      <point x="384.176694554069" y="957.7543277316983" type="curve"/>
      <point x="388.43548672618874" y="955.1346542339716" type="line"/>
      <point x="416.16262727054084" y="938.0791013175144"/>
      <point x="444.6435813253329" y="921.9828196007071"/>
      <point x="481.23462991815484" y="921.9828196007071" type="curve"/>
      <point x="514.81436142494" y="921.9828196007071"/>
      <point x="544.81590807527" y="937.4246983656677"/>
      <point x="564.5195303136626" y="961.5915985107422" type="curve"/>
      <point x="564.5195303136626" y="1047.4486770629883" type="line"/>
      <point x="550.4357437874417" y="1015.419380344983"/>
      <point x="518.4276919906067" y="993.043140167489"/>
      <point x="481.23462991815484" y="993.0431401674889" type="curve"/>
      <point x="462.25052288205734" y="993.0431401674892"/>
      <point x="450.6492225427294" y="1000.3106829515949"/>
      <point x="432.14611024224996" y="1011.69233662029" type="curve"/>
      <point x="427.887317699454" y="1014.3120095154098" type="line"/>
      <point x="400.16017644664964" y="1031.367557459862"/>
      <point x="371.6792265951105" y="1047.4638421358077"/>
      <point x="335.0881796056548" y="1047.4638421358077" type="curve"/>
      <point x="301.5084480988696" y="1047.4638421358077"/>
      <point x="271.50690717179253" y="1032.0219703905339"/>
      <point x="251.80328275506884" y="1007.8550720214844" type="curve"/>
      <point x="251.80328275506884" y="921.9979858398438" type="line"/>
      <point x="265.88706674048115" y="954.0272836750826"/>
      <point x="297.89511753320295" y="976.4035215690257"/>
    </contour>
    <contour>
      <point x="3.399499999999989" y="0" type="line"/>
      <point x="83.99813281249997" y="0" type="line"/>
      <point x="186.10225115966796" y="219.98572540283203" type="line"/>
      <point x="625.9681721801758" y="219.98572540283203" type="line"/>
      <point x="728.0722828979492" y="0" type="line"/>
      <point x="812.923311340332" y="0" type="line"/>
      <point x="677.0263653869629" y="292.1120300292969" type="line"/>
      <point x="408.16140185546874" y="870" type="line"/>
      <point x="139.29014979553222" y="292.0984992980957" type="line"/>
    </contour>
    <contour>
      <point x="406.03521166992186" y="693.8364791870117" type="line"/>
      <point x="592.4852009887695" y="292.1255645751953" type="line"/>
      <point x="219.58521472167968" y="292.1255645751953" type="line"/>
    </contour>
  </outline>
</glyph>
<glyph name="AE" format="2">
  <advance width="1084.5774042358398"/>
  <unicode hex="00C6"/>
  <anchor x="582.4632908935547" y="988.3581080780788" name="top" identifier="top"/>
  <outline>
    <contour>
      <point x="535.0820408935547" y="0" type="line"/>
      <point x="1005.1779042358398" y="0" type="line"/>
      <point x="1005.1779042358398" y="74.10237121582031" type="line"/>
      <point x="613.0845433349609" y="74.10237121582031" type="line"/>
      <point x="613.0845433349609" y="394.1376266479492" type="line"/>
      <point x="975.1779042358398" y="394.1376266479492" type="line"/>
      <point x="975.1779042358398" y="465.8623733520508" type="line"/>
      <point x="613.0845433349609" y="465.8623733520508" type="line"/>
      <point x="613.0845433349609" y="775.8976287841797" type="line"/>
      <point x="1005.1779042358398" y="775.8976287841797" type="line"/>
      <point x="1005.1779042358398" y="850" type="line"/>
      <point x="514.4923802490234" y="850" type="line"/>
      <point x="-4.600500000000011" y="0" type="line"/>
      <point x="83.07885180664061" y="0" type="line"/>
      <point x="217.0724049682617" y="219.9243927001953" type="line"/>
      <point x="535.0820408935547" y="219.9243927001953" type="line"/>
    </contour>
    <contour>
      <point x="261.0998479003906" y="292.1868896484375" type="line"/>
      <point x="535.0820408935547" y="741.8754425048828" type="line"/>
      <point x="535.0820408935547" y="292.1868896484375" type="line"/>
    </contour>
  </outline>
</glyph>
<glyph name="C_with_cedilla" format="2">
  <advance width="816.7182490658518"/>
  <unicode hex="00C7"/>
  <outline>
    <contour>
      <point x="40.026618644067796" y="425.0" type="curve" smooth="yes"/>
      <point x="40.026618644067796" y="200.90098087675426"/>
      <point x="205.94095604065902" y="19.620267356612544"/>
      <point x="421.5285336220951" y="-10.568405151367188" type="curve"/>
      <point x="367.70616118557166" y="-127.55232238769531" type="line"/>
      <point x="391.9279377145326" y="-108.90703004429761"/>
      <point x="417.6784359760411" y="-105.99950700045025"/>
      <point x="431.3414722651885" y="-105.99950700045025" type="curve"/>
      <point x="467.96778339190405" y="-105.99950700045025"/>
      <point x="497.5629079564087" y="-129.59982762117124"/>
      <point x="497.5629079564087" y="-163.74163611020916" type="curve"/>
      <point x="497.5629079564087" y="-197.25206673422286"/>
      <point x="469.02275202740793" y="-221.48376521996806"/>
      <point x="433.8414722651885" y="-221.48376521996806" type="curve"/>
      <point x="418.08140937712164" y="-221.48376521996806"/>
      <point x="377.450535954133" y="-218.9652219990558"/>
      <point x="348.6550785273955" y="-194.65872192382812" type="curve"/>
      <point x="348.6550747597904" y="-263.3754577636719" type="line"/>
      <point x="381.7027235670455" y="-281.5466224724903"/>
      <point x="415.2533267680295" y="-284.500625"/>
      <point x="433.8414722651884" y="-284.50062499999996" type="curve"/>
      <point x="505.7796182746489" y="-284.500625"/>
      <point x="564.0793308961408" y="-230.43018741633628"/>
      <point x="564.0793308961408" y="-163.89129386882985" type="curve"/>
      <point x="564.0793314248814" y="-108.26703633744995"/>
      <point x="525.9929555152243" y="-62.43025169984444"/>
      <point x="473.9174991816924" y="-48.01335144042969" type="curve"/>
      <point x="489.1169430459232" y="-14.977058410644531" type="line"/>
      <point x="586.3277961413036" y="-15.0"/>
      <point x="679.5503154591164" y="17.903262169466366"/>
      <point x="754.284850760767" y="73.74042510986328" type="curve"/>
      <point x="754.284850760767" y="166.13326263427734" type="line"/>
      <point x="684.1879221449716" y="99.89280285012434"/>
      <point x="589.46913408491" y="59.360603621120575"/>
      <point x="485.28484726518843" y="59.36060362112062" type="curve"/>
      <point x="283.6064813059322" y="59.36060362112073"/>
      <point x="124.09916963630914" y="223.20140781933017"/>
      <point x="124.09916963630914" y="425.0" type="curve" smooth="yes"/>
      <point x="124.09916963630914" y="626.79859218067"/>
      <point x="283.60648130593233" y="790.6393963788794"/>
      <point x="485.28484726518843" y="790.6393963788794" type="curve"/>
      <point x="589.4689748425707" y="790.6393965226916"/>
      <point x="684.1876302964437" y="750.107322481103"/>
      <point x="754.284850760767" y="683.8668365478516" type="curve"/>
      <point x="754.284850760767" y="776.2557525634766" type="line"/>
      <point x="679.5503154591164" y="832.0967378305336"/>
      <point x="586.3277961413036" y="865.0"/>
      <point x="485.28484726518843" y="865.0" type="curve"/>
      <point x="239.5401431105981" y="865.0"/>
      <point x="40.026618644067796" y="670.7447041545904"/>
    </contour>
  </outline>
</glyph>
<glyph name="E_with_grave" format="2">
  <advance width="653.8948633422851"/>
  <unicode hex="00C8"/>
  <outline>
    <contour>
      <point x="307.48251910687225" y="903.0718612670898" type="line"/>
      <point x="387.7549953031613" y="903.0718612670898" type="line"/>
      <point x="276.8472117948605" y="1088.0718612670898" type="line"/>
      <point x="187.18469043255584" y="1088.0718612670898" type="line"/>
    </contour>
    <contour>
      <point x="104.39949999999999" y="0" type="line"/>
      <point x="574.4953633422851" y="0" type="line"/>
      <point x="574.4953633422851" y="74.10237121582031" type="line"/>
      <point x="182.40200244140624" y="74.10237121582031" type="line"/>
      <point x="182.40200244140624" y="394.1376266479492" type="line"/>
      <point x="544.4953633422851" y="394.1376266479492" type="line"/>
      <point x="544.4953633422851" y="465.8623733520508" type="line"/>
      <point x="182.40200244140624" y="465.8623733520508" type="line"/>
      <point x="182.40200244140624" y="775.8976287841797" type="line"/>
      <point x="574.4953633422851" y="775.8976287841797" type="line"/>
      <point x="574.4953633422851" y="850" type="line"/>
      <point x="104.39949999999999" y="850" type="line"/>
    </contour>
  </outline>
</glyph>
<glyph name="E_with_acute" format="2">
  <advance width="653.8948633422851"/>
  <unicode hex="00C9"/>
  <outline>
    <contour>
      <point x="376.2874956370805" y="903.0718612670898" type="line"/>
      <point x="496.58533194079143" y="1088.0718612670898" type="line"/>
      <point x="406.92281057848675" y="1088.0718612670898" type="line"/>
      <point x="296.01502707018597" y="903.0718612670898" type="line"/>
    </contour>
    <contour>
      <point x="104.39949999999999" y="0" type="line"/>
      <point x="574.4953633422851" y="0" type="line"/>
      <point x="574.4953633422851" y="74.10237121582031" type="line"/>
      <point x="182.40200244140624" y="74.10237121582031" type="line"/>
      <point x="182.40200244140624" y="394.1376266479492" type="line"/>
      <point x="544.4953633422851" y="394.1376266479492" type="line"/>
      <point x="544.4953633422851" y="465.8623733520508" type="line"/>
      <point x="182.40200244140624" y="465.8623733520508" type="line"/>
      <point x="182.40200244140624" y="775.8976287841797" type="line"/>
      <point x="574.4953633422851" y="775.8976287841797" type="line"/>
      <point x="574.4953633422851" y="850" type="line"/>
      <point x="104.39949999999999" y="850" type="line"/>
    </contour>
  </outline>
</glyph>
<glyph name="E_with_circumflex" format="2">
  <advance width="653.8948633422851"/>
  <unicode hex="00CA"/>
  <outline>
    <contour>
      <point x="175.88839657738095" y="917.2167053222656" type="line"/>
      <point x="271.35324032738095" y="917.2167053222656" type="line"/>
      <point x="341.88500912620907" y="985.4447937011719" type="line"/>
      <point x="412.4167779250372" y="917.2167053222656" type="line"/>
      <point x="507.8816216750372" y="917.2167053222656" type="line"/>
      <point x="341.88500912620907" y="1075.3087158203125" type="line"/>
    </contour>
    <contour>
      <point x="104.39949999999999" y="0" type="line"/>
      <point x="574.4953633422851" y="0" type="line"/>
      <point x="574.4953633422851" y="74.10237121582031" type="line"/>
      <point x="182.40200244140624" y="74.10237121582031" type="line"/>
      <point x="182.40200244140624" y="394.1376266479492" type="line"/>
      <point x="544.4953633422851" y="394.1376266479492" type="line"/>
      <point x="544.4953633422851" y="465.8623733520508" type="line"/>
      <point x="182.40200244140624" y="465.8623733520508" type="line"/>
      <point x="182.40200244140624" y="775.8976287841797" type="line"/>
      <point x="574.4953633422851" y="775.8976287841797" type="line"/>
      <point x="574.4953633422851" y="850" type="line"/>
      <point x="104.39949999999999" y="850" type="line"/>
    </contour>
  </outline>
</glyph>
<glyph name="E_with_diaeresis" format="2">
  <advance width="653.8948633422851"/>
  <unicode hex="00CB"/>
  <outline>
    <contour>
      <point x="306.34358027915" y="988.3581080780788" type="curve" smooth="yes"/>
      <point x="306.34358027915" y="1020.3859826256162"/>
      <point x="280.3410092201565" y="1046.3885536846096"/>
      <point x="248.31313467261907" y="1046.3885536846096" type="curve" smooth="yes"/>
      <point x="216.28526012508166" y="1046.3885536846096"/>
      <point x="190.28268906608815" y="1020.3859826256162"/>
      <point x="190.28268906608815" y="988.3581080780788" type="curve" smooth="yes"/>
      <point x="190.28268906608815" y="956.3302335305414"/>
      <point x="216.2852601250816" y="930.3276624715478"/>
      <point x="248.31313467261907" y="930.3276624715478" type="curve" smooth="yes"/>
      <point x="280.3410092201565" y="930.3276624715478"/>
      <point x="306.34358027915" y="956.3302335305414"/>
    </contour>
    <contour>
      <point x="493.48733027915" y="988.3581080780788" type="curve" smooth="yes"/>
      <point x="493.48733027915" y="1020.3859826256162"/>
      <point x="467.4847592201565" y="1046.3885536846096"/>
      <point x="435.456884672619" y="1046.3885536846096" type="curve" smooth="yes"/>
      <point x="403.4290101250816" y="1046.3885536846096"/>
      <point x="377.4264390660881" y="1020.3859826256162"/>
      <point x="377.4264390660881" y="988.3581080780788" type="curve" smooth="yes"/>
      <point x="377.4264390660881" y="956.3302335305414"/>
      <point x="403.4290101250816" y="930.3276624715478"/>
      <point x="435.456884672619" y="930.3276624715478" type="curve" smooth="yes"/>
      <point x="467.48475922015643" y="930.3276624715478"/>
      <point x="493.48733027915" y="956.3302335305414"/>
    </contour>
    <contour>
      <point x="104.39949999999999" y="0" type="line"/>
      <point x="574.4953633422851" y="0" type="line"/>
      <point x="574.4953633422851" y="74.10237121582031" type="line"/>
      <point x="182.40200244140624" y="74.10237121582031" type="line"/>
      <point x="182.40200244140624" y="394.1376266479492" type="line"/>
      <point x="544.4953633422851" y="394.1376266479492" type="line"/>
      <point x="544.4953633422851" y="465.8623733520508" type="line"/>
      <point x="182.40200244140624" y="465.8623733520508" type="line"/>
      <point x="182.40200244140624" y="775.8976287841797" type="line"/>
      <point x="574.4953633422851" y="775.8976287841797" type="line"/>
      <point x="574.4953633422851" y="850" type="line"/>
      <point x="104.39949999999999" y="850" type="line"/>
    </contour>
  </outline>
</glyph>
<glyph name="I_with_grave" format="2">
  <advance width="288.36930487060545"/>
  <unicode hex="00CC"/>
  <outline>
    <contour>
      <point x="109.6973286743164" y="903.0718612670898" type="line"/>
      <point x="189.96980487060543" y="903.0718612670898" type="line"/>
      <point x="79.06202136230468" y="1088.0718612670898" type="line"/>
      <point x="-10.600500000000011" y="1088.0718612670898" type="line"/>
    </contour>
    <contour>
      <point x="104.35370286075286" y="0" type="line"/>
      <point x="183.84593561937353" y="0" type="line"/>
      <point x="183.84593561937353" y="850" type="line"/>
      <point x="104.35370286075286" y="850" type="line"/>
    </contour>
  </outline>
</glyph>
<glyph name="I_with_acute" format="2">
  <advance width="287.36930487060545"/>
  <unicode hex="00CD"/>
  <outline>
    <contour>
      <point x="177.67196856689452" y="903.0718612670898" type="line"/>
      <point x="297.96980487060546" y="1088.0718612670898" type="line"/>
      <point x="208.30728350830077" y="1088.0718612670898" type="line"/>
      <point x="97.39949999999999" y="903.0718612670898" type="line"/>
    </contour>
    <contour>
      <point x="103.52336622312272" y="0" type="line"/>
      <point x="183.01559898174338" y="0" type="line"/>
      <point x="183.01559898174338" y="850" type="line"/>
      <point x="103.52336622312272" y="850" type="line"/>
    </contour>
  </outline>
</glyph>
<glyph name="I_with_circumflex" format="2">
  <advance width="287.7922250976562"/>
  <unicode hex="00CE"/>
  <outline>
    <contour>
      <point x="-22.60050000000001" y="917.2167053222656" type="line"/>
      <point x="72.86434374999999" y="917.2167053222656" type="line"/>
      <point x="143.39611254882809" y="985.4447937011719" type="line"/>
      <point x="213.9278813476562" y="917.2167053222656" type="line"/>
      <point x="309.39272509765624" y="917.2167053222656" type="line"/>
      <point x="143.39611254882809" y="1075.3087158203125" type="line"/>
    </contour>
    <contour>
      <point x="103.64999671592776" y="0" type="line"/>
      <point x="183.14222947454843" y="0" type="line"/>
      <point x="183.14222947454843" y="850" type="line"/>
      <point x="103.64999671592776" y="850" type="line"/>
    </contour>
  </outline>
</glyph>
<glyph name="I_with_diaeresis" format="2">
  <advance width="288.0036412130618"/>
  <unicode hex="00CF"/>
  <outline>
    <contour>
      <point x="108.46039121306185" y="988.3581080780788" type="curve" smooth="yes"/>
      <point x="108.46039121306185" y="1020.3859826256162"/>
      <point x="82.45782015406837" y="1046.3885536846096"/>
      <point x="50.42994560653091" y="1046.3885536846096" type="curve" smooth="yes"/>
      <point x="18.4020710589935" y="1046.3885536846096"/>
      <point x="-7.600500000000011" y="1020.3859826256162"/>
      <point x="-7.600500000000011" y="988.3581080780788" type="curve" smooth="yes"/>
      <point x="-7.600500000000011" y="956.3302335305414"/>
      <point x="18.40207105899347" y="930.3276624715478"/>
      <point x="50.42994560653091" y="930.3276624715478" type="curve" smooth="yes"/>
      <point x="82.45782015406834" y="930.3276624715478"/>
      <point x="108.46039121306185" y="956.3302335305414"/>
    </contour>
    <contour>
      <point x="295.60414121306184" y="988.3581080780788" type="curve" smooth="yes"/>
      <point x="295.60414121306184" y="1020.3859826256162"/>
      <point x="269.6015701540683" y="1046.3885536846096"/>
      <point x="237.57369560653092" y="1046.3885536846096" type="curve" smooth="yes"/>
      <point x="205.5458210589935" y="1046.3885536846096"/>
      <point x="179.54324999999994" y="1020.3859826256162"/>
      <point x="179.54324999999994" y="988.3581080780788" type="curve" smooth="yes"/>
      <point x="179.54324999999994" y="956.3302335305414"/>
      <point x="205.54582105899345" y="930.3276624715478"/>
      <point x="237.57369560653092" y="930.3276624715478" type="curve" smooth="yes"/>
      <point x="269.6015701540683" y="930.3276624715478"/>
      <point x="295.60414121306184" y="956.3302335305414"/>
    </contour>
    <contour>
      <point x="104.25570422722058" y="0" type="line"/>
      <point x="183.74793698584125" y="0" type="line"/>
      <point x="183.74793698584125" y="850" type="line"/>
      <point x="104.25570422722058" y="850" type="line"/>
    </contour>
  </outline>
</glyph>
<glyph name="ETH" format="2">
  <advance width="839.4720942889143"/>
  <unicode hex="00D0"/>
  <outline>
    <contour>
      <point x="114.55160509718509" y="0" type="line"/>
      <point x="324.89715563429445" y="0.0" type="line"/>
      <point x="694.2866145693213" y="0.0"/>
      <point x="799.8971556924231" y="256.7973717881822"/>
      <point x="799.8971556924231" y="425.0" type="curve" smooth="yes"/>
      <point x="799.8971556924231" y="593.2026282118178"/>
      <point x="694.28661462745" y="850.0"/>
      <point x="324.8971556924231" y="850.0" type="curve"/>
      <point x="114.55160509718509" y="850" type="line"/>
      <point x="114.55160509718509" y="460.8623733520508" type="line"/>
      <point x="-4.1619035087719425" y="460.8623733520508" type="line"/>
      <point x="-4.1619035087719425" y="389.1376266479492" type="line"/>
      <point x="114.55160509718509" y="389.1376266479492" type="line"/>
    </contour>
    <contour>
      <point x="192.55410753859132" y="74.10237121582031" type="line"/>
      <point x="192.55410753859132" y="389.1376266479492" type="line"/>
      <point x="409.83934008253664" y="389.1376266479492" type="line"/>
      <point x="409.83934008253664" y="460.8623733520508" type="line"/>
      <point x="192.55410753859132" y="460.8623733520508" type="line"/>
      <point x="192.55410753859132" y="775.8976287841797" type="line"/>
      <point x="322.9470900215015" y="775.8976287841797" type="line"/>
      <point x="646.8492598537083" y="775.8976287841797"/>
      <point x="721.3781984501818" y="556.5690191519575"/>
      <point x="721.3781984501818" y="425.0" type="curve" smooth="yes"/>
      <point x="721.3781984501818" y="293.43098084804257"/>
      <point x="646.8492630246299" y="74.10238074576124"/>
      <point x="322.9470931924231" y="74.10237395112893" type="curve"/>
    </contour>
  </outline>
</glyph>
<glyph name="O_with_grave" format="2">
  <advance width="969.3154572422413"/>
  <unicode hex="00D2"/>
  <outline>
    <contour>
      <point x="450.25523805537387" y="903.0718612670898" type="line"/>
      <point x="530.5277142516629" y="903.0718612670898" type="line"/>
      <point x="419.61993074336215" y="1088.0718612670898" type="line"/>
      <point x="329.95740938105746" y="1088.0718612670898" type="line"/>
    </contour>
    <contour>
      <point x="929.9159572422413" y="425.0" type="curve" smooth="yes"/>
      <point x="929.9159572422413" y="670.7447041545904"/>
      <point x="730.4024327757111" y="865.0"/>
      <point x="484.65772862112067" y="865.0" type="curve" smooth="yes"/>
      <point x="238.91302446653026" y="865.0"/>
      <point x="39.39949999999999" y="670.7447041545904"/>
      <point x="39.39949999999999" y="425.0" type="curve" smooth="yes"/>
      <point x="39.39949999999999" y="179.2552958454096"/>
      <point x="238.91302446653026" y="-15.0"/>
      <point x="484.65772862112067" y="-15.0" type="curve" smooth="yes"/>
      <point x="730.4024327757111" y="-15.0"/>
      <point x="929.9159572422413" y="179.2552958454096"/>
    </contour>
    <contour>
      <point x="845.84340625" y="425.0" type="curve" smooth="yes"/>
      <point x="845.84340625" y="223.05622999835467"/>
      <point x="686.4714406828949" y="59.102374999999995"/>
      <point x="484.65772862112067" y="59.102374999999995" type="curve" smooth="yes"/>
      <point x="282.84401655934647" y="59.102374999999995"/>
      <point x="123.47205099224134" y="223.05622999835467"/>
      <point x="123.47205099224134" y="425.0" type="curve" smooth="yes"/>
      <point x="123.47205099224134" y="626.9437700016454"/>
      <point x="282.84401655934647" y="790.8976250000001"/>
      <point x="484.65772862112067" y="790.8976250000001" type="curve" smooth="yes"/>
      <point x="686.4714406828949" y="790.8976250000001"/>
      <point x="845.84340625" y="626.9437700016454"/>
    </contour>
  </outline>
</glyph>
<glyph name="O_with_acute" format="2">
  <advance width="969.3154572422413"/>
  <unicode hex="00D3"/>
  <outline>
    <contour>
      <point x="519.0602145855821" y="903.0718612670898" type="line"/>
      <point x="639.358050889293" y="1088.0718612670898" type="line"/>
      <point x="549.6955295269884" y="1088.0718612670898" type="line"/>
      <point x="438.7877460186876" y="903.0718612670898" type="line"/>
    </contour>
    <contour>
      <point x="929.9159572422413" y="425.0" type="curve" smooth="yes"/>
      <point x="929.9159572422413" y="670.7447041545904"/>
      <point x="730.4024327757111" y="865.0"/>
      <point x="484.65772862112067" y="865.0" type="curve" smooth="yes"/>
      <point x="238.91302446653026" y="865.0"/>
      <point x="39.39949999999999" y="670.7447041545904"/>
      <point x="39.39949999999999" y="425.0" type="curve" smooth="yes"/>
      <point x="39.39949999999999" y="179.2552958454096"/>
      <point x="238.91302446653026" y="-15.0"/>
      <point x="484.65772862112067" y="-15.0" type="curve" smooth="yes"/>
      <point x="730.4024327757111" y="-15.0"/>
      <point x="929.9159572422413" y="179.2552958454096"/>
    </contour>
    <contour>
      <point x="845.84340625" y="425.0" type="curve" smooth="yes"/>
      <point x="845.84340625" y="223.05622999835467"/>
      <point x="686.4714406828949" y="59.102374999999995"/>
      <point x="484.65772862112067" y="59.102374999999995" type="curve" smooth="yes"/>
      <point x="282.84401655934647" y="59.102374999999995"/>
      <point x="123.47205099224134" y="223.05622999835467"/>
      <point x="123.47205099224134" y="425.0" type="curve" smooth="yes"/>
      <point x="123.47205099224134" y="626.9437700016454"/>
      <point x="282.84401655934647" y="790.8976250000001"/>
      <point x="484.65772862112067" y="790.8976250000001" type="curve" smooth="yes"/>
      <point x="686.4714406828949" y="790.8976250000001"/>
      <point x="845.84340625" y="626.9437700016454"/>
    </contour>
  </outline>
</glyph>
<glyph name="multiply" format="2">
  <advance width="593.096607421875"/>
  <unicode hex="00D7"/>
  <outline>
    <contour>
      <point x="115.21032916259763" y="189.8511962890625" type="line"/>
      <point x="296.5483037109375" y="371.18917083740234" type="line"/>
      <point x="477.88627825927733" y="189.8511962890625" type="line"/>
      <point x="531.697107421875" y="243.66202545166016" type="line"/>
      <point x="350.35913287353515" y="425" type="line"/>
      <point x="531.697107421875" y="606.3379745483398" type="line"/>
      <point x="477.88627825927733" y="660.1488037109375" type="line"/>
      <point x="296.5483037109375" y="478.81082916259766" type="line"/>
      <point x="115.21032916259763" y="660.1488037109375" type="line"/>
      <point x="61.39949999999999" y="606.3379745483398" type="line"/>
      <point x="242.73747454833983" y="425" type="line"/>
      <point x="61.39949999999999" y="243.66202545166016" type="line"/>
    </contour>
  </outline>
</glyph>
<glyph name="U_with_circumflex" format="2">
  <advance width="777.5258153692504"/>
  <unicode hex="00DB"/>
  <outline>
    <contour>
      <point x="222.76629464285713" y="917.2167053222656" type="line"/>
      <point x="318.23113839285713" y="917.2167053222656" type="line"/>
      <point x="388.76290719168526" y="985.4447937011719" type="line"/>
      <point x="459.2946759905134" y="917.2167053222656" type="line"/>
      <point x="554.7595197405134" y="917.2167053222656" type="line"/>
      <point x="388.76290719168526" y="1075.3087158203125" type="line"/>
    </contour>
    <contour>
      <point x="84.39949999999999" y="336.0528869628906" type="line"/>
      <point x="84.3995" y="38.595134541545406"/>
      <point x="282.705377598759" y="-14.999999999999988"/>
      <point x="388.7629077380952" y="-15.0" type="curve" smooth="yes"/>
      <point x="494.82043787743135" y="-15.0"/>
      <point x="693.1263160054535" y="38.59513807537064"/>
      <point x="693.1263153692504" y="336.05289049671586" type="curve"/>
      <point x="693.1263142700195" y="850" type="line"/>
      <point x="615.1238118286133" y="850" type="line"/>
      <point x="615.1238118286133" y="337.41334533691406" type="line"/>
      <point x="615.1238118286133" y="89.21800200003182"/>
      <point x="461.66007178526525" y="59.10237499999998"/>
      <point x="388.76290773809524" y="59.102374999999995" type="curve" smooth="yes"/>
      <point x="315.8657436909252" y="59.10237500000004"/>
      <point x="162.4019991399096" y="89.218001901213"/>
      <point x="162.4020002169804" y="337.41334523809525" type="curve"/>
      <point x="162.40200244140624" y="850" type="line"/>
      <point x="84.39949999999999" y="850" type="line"/>
    </contour>
  </outline>
</glyph>
